NunitoSans-LightItalic.ufo
<glyph name="exclam" format="2">
  <advance width="219.46987951807228"/>
  <unicode hex="0021"/>
  <outline>
    <contour>
      <point x="80.2289156626506" y="173.67469879518072" type="line"/>
      <point x="118.44578313253011" y="173.67469879518072" type="line"/>
      <point x="221.56626506024097" y="705.0" type="line"/>
      <point x="145.44578313253012" y="705.0" type="line"/>
    </contour>
    <contour>
      <point x="29.108433734939766" y="0.0" type="line"/>
      <point x="114.36144578313252" y="0.0" type="line"/>
      <point x="127.87951807228914" y="85.79518072289156" type="line"/>
      <point x="42.62650602409639" y="85.79518072289156" type="line"/>
    </contour>
  </outline>
</glyph>
<glyph name="numbersign" format="2">
  <advance width="600.0"/>
  <unicode hex="0023"/>
  <outline>
    <contour>
      <point x="52.024096385542165" y="0.0" type="line"/>
      <point x="105.09638554216866" y="0.0" type="line"/>
      <point x="171.49397590361446" y="186.65060240963857" type="line"/>
      <point x="344.53012048192767" y="186.65060240963857" type="line"/>
      <point x="278.13253012048193" y="0.0" type="line"/>
      <point x="330.9759036144578" y="0.0" type="line"/>
      <point x="398.3734939759036" y="186.65060240963857" type="line"/>
      <point x="540.9638554216867" y="186.65060240963857" type="line"/>
      <point x="548.3373493975903" y="235.80722891566265" type="line"/>
      <point x="414.8072289156627" y="235.80722891566265" type="line"/>
      <point x="500.3734939759036" y="477.1927710843373" type="line"/>
      <point x="606.421686746988" y="477.1927710843373" type="line"/>
      <point x="613.7951807228916" y="526.5783132530121" type="line"/>
      <point x="517.8072289156627" y="526.5783132530121" type="line"/>
      <point x="580.433734939759" y="705.0" type="line"/>
      <point x="527.3614457831326" y="705.0" type="line"/>
      <point x="464.73493975903614" y="526.5783132530121" type="line"/>
      <point x="290.6987951807229" y="526.5783132530121" type="line"/>
      <point x="353.32530120481925" y="705.0" type="line"/>
      <point x="301.2530120481928" y="705.0" type="line"/>
      <point x="237.855421686747" y="526.5783132530121" type="line"/>
      <point x="95.03614457831326" y="526.5783132530121" type="line"/>
      <point x="87.66265060240964" y="477.1927710843373" type="line"/>
      <point x="221.42168674698794" y="477.1927710843373" type="line"/>
      <point x="135.85542168674698" y="235.80722891566265" type="line"/>
      <point x="29.57831325301205" y="235.80722891566265" type="line"/>
      <point x="22.204819277108435" y="186.65060240963857" type="line"/>
      <point x="119.19277108433734" y="186.65060240963857" type="line"/>
    </contour>
    <contour>
      <point x="187.9277108433735" y="235.80722891566265" type="line"/>
      <point x="273.4939759036144" y="477.1927710843373" type="line"/>
      <point x="447.5301204819277" y="477.1927710843373" type="line"/>
      <point x="361.96385542168673" y="235.80722891566265" type="line"/>
    </contour>
  </outline>
</glyph>
<glyph name="dollar" format="2">
  <advance width="600.0"/>
  <unicode hex="0024"/>
  <outline>
    <contour>
      <point x="226.13253012048193" y="-115.0" type="line"/>
      <point x="279.86746987951807" y="-115.0" type="line"/>
      <point x="299.86746987951807" y="11.144578313253012" type="line"/>
      <point x="283.72289156626505" y="-4.228915662650603" type="line"/>
      <point x="418.6385542168675" y="-4.168674698795181"/>
      <point x="534.3253012048192" y="65.51807228915663"/>
      <point x="534.3253012048192" y="189.72289156626505" type="curve" smooth="yes"/>
      <point x="534.3253012048192" y="279.1807228915663"/>
      <point x="480.1807228915663" y="332.4698795180723"/>
      <point x="350.0722891566265" y="368.09638554216866" type="curve" smooth="yes"/>
      <point x="265.1807228915663" y="390.7831325301205" type="line" smooth="yes"/>
      <point x="194.7590361445783" y="409.4096385542169"/>
      <point x="158.27710843373495" y="438.8072289156626"/>
      <point x="158.27710843373495" y="514.710843373494" type="curve" smooth="yes"/>
      <point x="158.27710843373495" y="604.0120481927711"/>
      <point x="233.7831325301205" y="653.1204819277109"/>
      <point x="351.0" y="653.1204819277109" type="curve" smooth="yes"/>
      <point x="426.0240963855422" y="653.1204819277109"/>
      <point x="494.9397590361446" y="630.2650602409639"/>
      <point x="553.9397590361446" y="567.2409638554217" type="curve"/>
      <point x="582.2048192771084" y="614.7469879518072" type="line"/>
      <point x="535.7469879518072" y="666.2289156626506"/>
      <point x="470.89156626506025" y="696.3132530120482"/>
      <point x="402.7228915662651" y="705.7710843373494" type="curve"/>
      <point x="407.6385542168675" y="697.5421686746988" type="line"/>
      <point x="427.86746987951807" y="820.0" type="line"/>
      <point x="374.13253012048193" y="820.0" type="line"/>
      <point x="354.90361445783134" y="699.3132530120482" type="line"/>
      <point x="363.73493975903614" y="709.4578313253012" type="line"/>
      <point x="214.96385542168676" y="713.6265060240963"/>
      <point x="95.27710843373494" y="642.7951807228916"/>
      <point x="95.27710843373494" y="511.9638554216868" type="curve" smooth="yes"/>
      <point x="95.27710843373494" y="408.3373493975904"/>
      <point x="154.50602409638554" y="360.3614457831325"/>
      <point x="245.87951807228916" y="336.13253012048193" type="curve" smooth="yes"/>
      <point x="330.77108433734935" y="313.4457831325301" type="line" smooth="yes"/>
      <point x="438.1566265060241" y="284.4216867469879"/>
      <point x="471.3253012048193" y="249.93975903614458"/>
      <point x="471.3253012048193" y="183.66265060240963" type="curve" smooth="yes"/>
      <point x="471.3253012048193" y="97.44578313253012"/>
      <point x="389.1927710843373" y="51.87951807228916"/>
      <point x="288.4578313253012" y="51.87951807228916" type="curve" smooth="yes"/>
      <point x="192.34939759036143" y="51.87951807228916"/>
      <point x="126.9156626506024" y="71.10843373493975"/>
      <point x="55.7710843373494" y="131.50602409638554" type="curve"/>
      <point x="27.73493975903614" y="81.855421686747" type="line"/>
      <point x="88.96385542168674" y="24.686746987951807"/>
      <point x="166.42168674698797" y="0.45783132530120496"/>
      <point x="257.27710843373495" y="-4.228915662650603" type="curve"/>
      <point x="246.13253012048193" y="9.602409638554217" type="line"/>
    </contour>
  </outline>
</glyph>
<glyph name="ampersand" format="2">
  <advance width="678.1927710843373"/>
  <unicode hex="0026"/>
  <outline>
    <contour>
      <point x="247.26506024096383" y="-8.457831325301205" type="curve" smooth="yes"/>
      <point x="349.7469879518072" y="-8.457831325301205"/>
      <point x="431.9759036144578" y="33.168674698795186"/>
      <point x="492.3493975903615" y="105.42168674698794" type="curve"/>
      <point x="473.51807228915663" y="105.65060240963855" type="line"/>
      <point x="549.3734939759036" y="0.0" type="line"/>
      <point x="619.8072289156627" y="0.0" type="line"/>
      <point x="509.65060240963857" y="149.95180722891567" type="line"/>
      <point x="512.5060240963855" y="128.97590361445782" type="line"/>
      <point x="567.0240963855422" y="199.89156626506025"/>
      <point x="606.8554216867469" y="297.03614457831327"/>
      <point x="626.6265060240963" y="408.34939759036143" type="curve"/>
      <point x="571.2048192771084" y="408.34939759036143" type="line"/>
      <point x="554.2048192771084" y="315.7831325301205"/>
      <point x="520.3493975903615" y="227.67469879518072"/>
      <point x="479.34939759036143" y="172.67469879518072" type="curve"/>
      <point x="491.0120481927711" y="172.67469879518072" type="line"/>
      <point x="331.2771084337349" y="395.31325301204816" type="line"/>
      <point x="329.2771084337349" y="376.87951807228916" type="line"/>
      <point x="436.6144578313253" y="440.2168674698795"/>
      <point x="514.3614457831326" y="492.6506024096385"/>
      <point x="514.3614457831326" y="589.1084337349397" type="curve" smooth="yes"/>
      <point x="514.3614457831326" y="662.6265060240963"/>
      <point x="461.6987951807229" y="713.4578313253012"/>
      <point x="378.8072289156626" y="713.4578313253012" type="curve" smooth="yes"/>
      <point x="271.3132530120482" y="713.4578313253012"/>
      <point x="199.04819277108433" y="645.7951807228915"/>
      <point x="199.04819277108433" y="545.3614457831325" type="curve" smooth="yes"/>
      <point x="199.04819277108433" y="501.90361445783134"/>
      <point x="217.04819277108433" y="451.5903614457832"/>
      <point x="263.44578313253015" y="390.48192771084337" type="curve"/>
      <point x="271.566265060241" y="403.6024096385542" type="line"/>
      <point x="236.10843373493975" y="383.6024096385542" type="line" smooth="yes"/>
      <point x="150.9879518072289" y="335.77108433734935"/>
      <point x="50.397590361445786" y="257.68674698795184"/>
      <point x="50.397590361445786" y="144.97590361445785" type="curve" smooth="yes"/>
      <point x="50.397590361445786" y="49.83132530120482"/>
      <point x="126.68674698795182" y="-8.457831325301205"/>
    </contour>
    <contour>
      <point x="249.30120481927713" y="44.27710843373494" type="curve" smooth="yes"/>
      <point x="158.87951807228916" y="44.27710843373494"/>
      <point x="111.39759036144578" y="81.44578313253011"/>
      <point x="111.39759036144578" y="150.63855421686748" type="curve" smooth="yes"/>
      <point x="111.39759036144578" y="234.43373493975903"/>
      <point x="175.56626506024097" y="289.3132530120482"/>
      <point x="266.6385542168675" y="343.3614457831325" type="curve" smooth="yes"/>
      <point x="300.72289156626505" y="363.4457831325301" type="line"/>
      <point x="281.2530120481928" y="365.5903614457831" type="line"/>
      <point x="457.65060240963857" y="124.83132530120481" type="line"/>
      <point x="460.56626506024094" y="147.57831325301206" type="line"/>
      <point x="408.16867469879514" y="80.07228915662651"/>
      <point x="340.20481927710847" y="44.27710843373494"/>
    </contour>
    <contour>
      <point x="376.433734939759" y="663.0120481927711" type="curve" smooth="yes"/>
      <point x="426.4578313253012" y="663.0120481927711"/>
      <point x="459.48192771084337" y="631.1325301204819"/>
      <point x="459.48192771084337" y="585.1084337349397" type="curve" smooth="yes"/>
      <point x="459.48192771084337" y="526.0240963855422"/>
      <point x="418.56626506024094" y="486.0240963855422"/>
      <point x="297.9518072289157" y="415.72289156626505" type="curve"/>
      <point x="315.2409638554217" y="417.12048192771084" type="line"/>
      <point x="269.9879518072289" y="479.3132530120482"/>
      <point x="257.9879518072289" y="507.93975903614455"/>
      <point x="257.9879518072289" y="550.7349397590361" type="curve" smooth="yes"/>
      <point x="257.9879518072289" y="613.6746987951807"/>
      <point x="305.55421686746985" y="663.0120481927711"/>
    </contour>
  </outline>
</glyph>
<glyph name="quotesingle" format="2">
  <advance width="211.1566265060241"/>
  <unicode hex="0027"/>
  <outline>
    <contour>
      <point x="116.25301204819277" y="434.27710843373495" type="line"/>
      <point x="157.0722891566265" y="434.27710843373495" type="line"/>
      <point x="215.33734939759037" y="705.0" type="line"/>
      <point x="142.04819277108433" y="705.0" type="line"/>
    </contour>
  </outline>
</glyph>
<glyph name="parenleft" format="2">
  <advance width="298.3975903614458"/>
  <unicode hex="0028"/>
  <outline>
    <contour>
      <point x="147.49397590361446" y="-191.14457831325302" type="curve"/>
      <point x="194.6265060240964" y="-174.10843373493975" type="line"/>
      <point x="175.7710843373494" y="-78.19277108433735"/>
      <point x="165.2289156626506" y="12.915662650602409"/>
      <point x="165.2289156626506" y="99.5421686746988" type="curve" smooth="yes"/>
      <point x="165.2289156626506" y="327.3132530120482"/>
      <point x="231.0843373493976" y="521.7349397590361"/>
      <point x="335.1686746987952" y="694.8795180722892" type="curve"/>
      <point x="290.2650602409638" y="717.144578313253" type="line"/>
      <point x="177.06024096385542" y="563.6626506024097"/>
      <point x="100.62650602409639" y="341.4096385542169"/>
      <point x="100.62650602409639" y="110.46987951807229" type="curve" smooth="yes"/>
      <point x="100.62650602409639" y="11.493975903614459"/>
      <point x="117.4578313253012" y="-90.0843373493976"/>
    </contour>
  </outline>
</glyph>
<glyph name="parenright" format="2">
  <advance width="298.3975903614458"/>
  <unicode hex="0029"/>
  <outline>
    <contour>
      <point x="14.132530120481931" y="-191.14457831325302" type="line"/>
      <point x="127.56626506024097" y="-37.66265060240964"/>
      <point x="204.0" y="184.59036144578315"/>
      <point x="204.0" y="415.5301204819277" type="curve" smooth="yes"/>
      <point x="204.0" y="514.7349397590361"/>
      <point x="187.16867469879517" y="616.0843373493976"/>
      <point x="156.90361445783134" y="717.144578313253" type="curve"/>
      <point x="109.7710843373494" y="700.1084337349398" type="line"/>
      <point x="128.85542168674698" y="604.1927710843373"/>
      <point x="139.39759036144576" y="513.3132530120482"/>
      <point x="139.39759036144576" y="426.4578313253012" type="curve" smooth="yes"/>
      <point x="139.39759036144576" y="198.9156626506024"/>
      <point x="73.5421686746988" y="4.493975903614459"/>
      <point x="-30.771084337349397" y="-168.87951807228916" type="curve"/>
    </contour>
  </outline>
</glyph>
<glyph name="asterisk" format="2">
  <advance width="448.9156626506024"/>
  <unicode hex="002A"/>
  <outline>
    <contour>
      <point x="196.89156626506022" y="360.3614457831325" type="line"/>
      <point x="275.144578313253" y="505.67469879518075" type="line"/>
      <point x="267.08433734939763" y="505.67469879518075" type="line"/>
      <point x="344.3373493975904" y="361.13253012048193" type="line"/>
      <point x="387.1807228915663" y="385.855421686747" type="line"/>
      <point x="299.49397590361446" y="528.4819277108434" type="line"/>
      <point x="290.9759036144578" y="517.1325301204819" type="line"/>
      <point x="460.83132530120486" y="511.9879518072289" type="line"/>
      <point x="460.83132530120486" y="561.9759036144578" type="line"/>
      <point x="290.9759036144578" y="556.6024096385543" type="line"/>
      <point x="299.49397590361446" y="546.2530120481928" type="line"/>
      <point x="387.1807228915663" y="688.6506024096385" type="line"/>
      <point x="344.3373493975904" y="713.6024096385543" type="line"/>
      <point x="267.08433734939763" y="568.5180722891566" type="line"/>
      <point x="275.144578313253" y="568.5180722891566" type="line"/>
      <point x="197.12048192771084" y="713.6024096385543" type="line"/>
      <point x="154.27710843373492" y="688.8795180722891" type="line"/>
      <point x="242.73493975903614" y="546.0240963855422" type="line"/>
      <point x="250.48192771084337" y="556.6024096385543" type="line"/>
      <point x="81.39759036144578" y="561.9759036144578" type="line"/>
      <point x="81.39759036144578" y="511.9879518072289" type="line"/>
      <point x="250.48192771084337" y="517.1325301204819" type="line"/>
      <point x="242.50602409638554" y="528.4819277108434" type="line"/>
      <point x="154.04819277108433" y="385.855421686747" type="line"/>
    </contour>
  </outline>
</glyph>
<glyph name="plus" format="2">
  <advance width="600.0"/>
  <unicode hex="002B"/>
  <outline>
    <contour>
      <point x="242.04819277108436" y="40.0" type="line"/>
      <point x="293.72289156626505" y="40.0" type="line"/>
      <point x="328.8072289156626" y="261.50602409638554" type="line"/>
      <point x="547.0843373493976" y="261.50602409638554" type="line"/>
      <point x="554.9156626506024" y="311.72289156626505" type="line"/>
      <point x="336.6385542168675" y="311.72289156626505" type="line"/>
      <point x="370.72289156626505" y="528.0" type="line"/>
      <point x="319.04819277108436" y="528.0" type="line"/>
      <point x="284.9638554216868" y="311.72289156626505" type="line"/>
      <point x="66.91566265060241" y="311.72289156626505" type="line"/>
      <point x="59.08433734939759" y="261.50602409638554" type="line"/>
      <point x="277.13253012048193" y="261.50602409638554" type="line"/>
    </contour>
  </outline>
</glyph>
<glyph name="comma" format="2">
  <advance width="219.46987951807228"/>
  <unicode hex="002C"/>
  <outline>
    <contour>
      <point x="49.975903614457835" y="-106.01204819277109" type="line"/>
      <point x="95.61445783132531" y="-68.20481927710844"/>
      <point x="108.36144578313252" y="-33.54216867469879"/>
      <point x="116.27710843373494" y="15.180722891566264" type="curve" smooth="yes"/>
      <point x="127.65060240963855" y="85.79518072289156" type="line"/>
      <point x="42.39759036144579" y="85.79518072289156" type="line"/>
      <point x="28.879518072289162" y="0.0" type="line"/>
      <point x="90.63855421686748" y="0.0" type="line"/>
      <point x="70.57831325301204" y="11.265060240963855" type="line"/>
      <point x="65.66265060240964" y="-19.08433734939759"/>
      <point x="58.14457831325301" y="-42.45783132530121"/>
      <point x="22.168674698795183" y="-76.51807228915662" type="curve"/>
    </contour>
  </outline>
</glyph>
<glyph name="hyphen" format="2">
  <advance width="420.12048192771084"/>
  <unicode hex="002D"/>
  <outline>
    <contour>
      <point x="74.02409638554218" y="239.59036144578315" type="line"/>
      <point x="345.8072289156626" y="239.59036144578315" type="line"/>
      <point x="354.09638554216866" y="291.5542168674699" type="line"/>
      <point x="82.3132530120482" y="291.5542168674699" type="line"/>
    </contour>
  </outline>
</glyph>
<glyph name="period" format="2">
  <advance width="219.46987951807228"/>
  <unicode hex="002E"/>
  <outline>
    <contour>
      <point x="28.879518072289162" y="0.0" type="line"/>
      <point x="114.13253012048192" y="0.0" type="line"/>
      <point x="127.65060240963855" y="85.79518072289156" type="line"/>
      <point x="42.39759036144579" y="85.79518072289156" type="line"/>
    </contour>
  </outline>
</glyph>
<glyph name="slash" format="2">
  <advance width="269.04819277108436"/>
  <unicode hex="002F"/>
  <outline>
    <contour>
      <point x="-16.325301204819276" y="-61.43373493975904" type="line"/>
      <point x="362.04819277108436" y="725.6265060240964" type="line"/>
      <point x="315.14457831325296" y="749.433734939759" type="line"/>
      <point x="-62.2289156626506" y="-37.626506024096386" type="line"/>
    </contour>
  </outline>
</glyph>
<glyph name="one" format="2">
  <advance width="600.0"/>
  <unicode hex="0031"/>
  <outline>
    <contour>
      <point x="93.13253012048192" y="0.0" type="line"/>
      <point x="467.44578313253015" y="0.0" type="line"/>
      <point x="475.9638554216868" y="54.33734939759036" type="line"/>
      <point x="324.65060240963857" y="54.33734939759036" type="line"/>
      <point x="428.13253012048193" y="705.0" type="line"/>
      <point x="384.1686746987952" y="705.0" type="line"/>
      <point x="192.95180722891567" y="591.3373493975904" type="line"/>
      <point x="215.21686746987953" y="541.9156626506024" type="line"/>
      <point x="395.85542168674704" y="648.289156626506" type="line"/>
      <point x="357.9277108433735" y="651.7469879518072" type="line"/>
      <point x="262.9638554216868" y="54.33734939759036" type="line"/>
      <point x="101.65060240963855" y="54.33734939759036" type="line"/>
    </contour>
  </outline>
</glyph>
<glyph name="two" format="2">
  <advance width="600.0"/>
  <unicode hex="0032"/>
  <outline>
    <contour>
      <point x="61.19277108433735" y="0.0" type="line"/>
      <point x="496.6626506024096" y="0.0" type="line"/>
      <point x="505.18072289156623" y="54.33734939759036" type="line"/>
      <point x="130.25301204819277" y="54.33734939759036" type="line"/>
      <point x="132.02409638554215" y="34.21686746987952" type="line"/>
      <point x="385.8915662650602" y="268.3975903614458" type="line" smooth="yes"/>
      <point x="479.34939759036143" y="353.9397590361446"/>
      <point x="552.9759036144578" y="439.65060240963857"/>
      <point x="552.9759036144578" y="551.7951807228916" type="curve" smooth="yes"/>
      <point x="552.9759036144578" y="647.3975903614459"/>
      <point x="478.6867469879518" y="713.4578313253012"/>
      <point x="361.9397590361446" y="713.4578313253012" type="curve" smooth="yes"/>
      <point x="273.2530120481928" y="713.4578313253012"/>
      <point x="192.87951807228916" y="678.8313253012049"/>
      <point x="130.04819277108436" y="621.9759036144578" type="curve"/>
      <point x="153.62650602409641" y="572.0120481927711" type="line"/>
      <point x="216.710843373494" y="625.722891566265"/>
      <point x="282.8795180722891" y="657.1204819277109"/>
      <point x="355.4457831325301" y="657.1204819277109" type="curve" smooth="yes"/>
      <point x="441.49397590361446" y="657.1204819277109"/>
      <point x="489.9759036144578" y="615.3253012048193"/>
      <point x="489.9759036144578" y="545.6746987951807" type="curve" smooth="yes"/>
      <point x="489.9759036144578" y="459.855421686747"/>
      <point x="430.3253012048193" y="384.8072289156627"/>
      <point x="350.84337349397595" y="310.5542168674699" type="curve" smooth="yes"/>
      <point x="68.48192771084338" y="46.42168674698795" type="line"/>
    </contour>
  </outline>
</glyph>
<glyph name="three" format="2">
  <advance width="600.0"/>
  <unicode hex="0033"/>
  <outline>
    <contour>
      <point x="278.31325301204816" y="-8.457831325301205" type="curve" smooth="yes"/>
      <point x="408.3253012048193" y="-8.457831325301205"/>
      <point x="511.1807228915663" y="77.51807228915662"/>
      <point x="511.1807228915663" y="204.22891566265062" type="curve" smooth="yes"/>
      <point x="511.1807228915663" y="282.144578313253"/>
      <point x="465.72289156626505" y="344.3734939759036"/>
      <point x="380.49397590361446" y="363.9156626506024" type="curve"/>
      <point x="379.72289156626505" y="353.4578313253012" type="line"/>
      <point x="476.72289156626505" y="371.45783132530124"/>
      <point x="546.722891566265" y="447.6265060240964"/>
      <point x="546.4939759036145" y="545.1686746987951" type="curve" smooth="yes"/>
      <point x="546.2650602409639" y="640.710843373494"/>
      <point x="473.72289156626505" y="713.4578313253012"/>
      <point x="355.6265060240964" y="713.4578313253012" type="curve" smooth="yes"/>
      <point x="270.9397590361446" y="713.4578313253012"/>
      <point x="184.10843373493975" y="682.3734939759037"/>
      <point x="124.59036144578313" y="622.7469879518072" type="curve"/>
      <point x="148.3975903614458" y="573.7831325301205" type="line"/>
      <point x="207.93975903614458" y="631.0361445783133"/>
      <point x="279.79518072289153" y="657.1204819277109"/>
      <point x="350.96385542168673" y="657.1204819277109" type="curve" smooth="yes"/>
      <point x="431.1566265060241" y="657.1204819277109"/>
      <point x="484.1807228915663" y="610.2409638554217"/>
      <point x="484.1807228915663" y="540.0481927710844" type="curve" smooth="yes"/>
      <point x="484.1807228915663" y="444.3734939759036"/>
      <point x="404.90361445783134" y="385.09638554216866"/>
      <point x="306.855421686747" y="385.09638554216866" type="curve" smooth="yes"/>
      <point x="213.56626506024097" y="385.09638554216866" type="line"/>
      <point x="205.27710843373495" y="330.7590361445783" type="line"/>
      <point x="301.9397590361446" y="330.7590361445783" type="line" smooth="yes"/>
      <point x="395.98795180722897" y="330.7590361445783"/>
      <point x="448.86746987951807" y="280.56626506024094"/>
      <point x="448.86746987951807" y="206.06024096385542" type="curve" smooth="yes"/>
      <point x="448.86746987951807" y="107.61445783132531"/>
      <point x="374.13253012048193" y="47.87951807228916"/>
      <point x="278.31325301204816" y="47.87951807228916" type="curve" smooth="yes"/>
      <point x="199.45783132530119" y="47.87951807228916"/>
      <point x="136.22891566265062" y="63.10843373493975"/>
      <point x="67.28915662650603" y="125.90361445783132" type="curve"/>
      <point x="37.87951807228916" y="78.62650602409639" type="line"/>
      <point x="103.19277108433734" y="13.000000000000002"/>
      <point x="193.93975903614458" y="-8.457831325301205"/>
    </contour>
  </outline>
</glyph>
<glyph name="four" format="2">
  <advance width="600.0"/>
  <unicode hex="0034"/>
  <outline>
    <contour>
      <point x="351.09638554216866" y="0.0" type="line"/>
      <point x="412.7831325301205" y="0.0" type="line"/>
      <point x="438.4096385542169" y="158.67469879518072" type="line"/>
      <point x="546.2048192771084" y="158.67469879518072" type="line"/>
      <point x="554.2650602409639" y="213.0120481927711" type="line"/>
      <point x="446.46987951807233" y="213.0120481927711" type="line"/>
      <point x="524.3253012048193" y="705.0" type="line"/>
      <point x="473.07228915662654" y="705.0" type="line"/>
      <point x="49.566265060240966" y="205.63855421686748" type="line"/>
      <point x="42.506024096385545" y="158.67469879518072" type="line"/>
      <point x="376.72289156626505" y="158.67469879518072" type="line"/>
    </contour>
    <contour>
      <point x="385.0120481927711" y="213.0120481927711" type="line"/>
      <point x="107.6987951807229" y="213.0120481927711" type="line"/>
      <point x="106.01204819277109" y="196.74698795180723" type="line"/>
      <point x="474.89156626506025" y="630.6506024096385" type="line"/>
      <point x="451.2048192771084" y="630.6506024096385" type="line"/>
    </contour>
  </outline>
</glyph>
<glyph name="five" format="2">
  <advance width="600.0"/>
  <unicode hex="0035"/>
  <outline>
    <contour>
      <point x="289.71084337349396" y="-8.457831325301205" type="curve" smooth="yes"/>
      <point x="425.3734939759036" y="-8.457831325301205"/>
      <point x="539.8072289156626" y="91.3132530120482"/>
      <point x="539.8072289156626" y="238.51807228915663" type="curve" smooth="yes"/>
      <point x="539.8072289156626" y="373.855421686747"/>
      <point x="450.7831325301205" y="437.9759036144578"/>
      <point x="349.89156626506025" y="437.9759036144578" type="curve" smooth="yes"/>
      <point x="277.86746987951807" y="437.9759036144578"/>
      <point x="203.8433734939759" y="404.26506024096386"/>
      <point x="161.8433734939759" y="344.9277108433735" type="curve"/>
      <point x="181.73493975903617" y="344.9277108433735" type="line"/>
      <point x="230.0722891566265" y="650.6626506024096" type="line"/>
      <point x="566.6024096385541" y="650.6626506024096" type="line"/>
      <point x="574.8915662650602" y="705.0" type="line"/>
      <point x="177.59036144578315" y="705.0" type="line"/>
      <point x="111.67469879518072" y="289.87951807228916" type="line"/>
      <point x="159.89156626506025" y="289.87951807228916" type="line"/>
      <point x="207.8313253012048" y="347.30120481927713"/>
      <point x="263.7710843373494" y="382.32530120481925"/>
      <point x="336.73493975903614" y="382.32530120481925" type="curve" smooth="yes"/>
      <point x="424.0120481927711" y="382.32530120481925"/>
      <point x="477.49397590361446" y="321.04819277108436"/>
      <point x="477.49397590361446" y="234.2289156626506" type="curve" smooth="yes"/>
      <point x="477.49397590361446" y="127.01204819277109"/>
      <point x="394.9879518072289" y="47.87951807228916"/>
      <point x="289.710843373494" y="47.87951807228916" type="curve" smooth="yes"/>
      <point x="216.7710843373494" y="47.87951807228916"/>
      <point x="160.54216867469881" y="63.10843373493975"/>
      <point x="94.14457831325302" y="125.90361445783132" type="curve"/>
      <point x="65.50602409638554" y="78.62650602409639" type="line"/>
      <point x="127.27710843373494" y="13.000000000000002"/>
      <point x="211.02409638554215" y="-8.457831325301205"/>
    </contour>
  </outline>
</glyph>
<glyph name="six" format="2">
  <advance width="600.0"/>
  <unicode hex="0036"/>
  <outline>
    <contour>
      <point x="304.60240963855426" y="-8.457831325301205" type="curve" smooth="yes"/>
      <point x="439.34939759036143" y="-8.457831325301205"/>
      <point x="540.5783132530121" y="98.91566265060241"/>
      <point x="540.5783132530121" y="240.20481927710844" type="curve" smooth="yes"/>
      <point x="540.5783132530121" y="351.9759036144578"/>
      <point x="458.95180722891564" y="437.34939759036143"/>
      <point x="344.6385542168675" y="437.34939759036143" type="curve" smooth="yes"/>
      <point x="244.0722891566265" y="437.34939759036143"/>
      <point x="147.44578313253012" y="367.7831325301205"/>
      <point x="128.81927710843374" y="254.04819277108433" type="curve"/>
      <point x="137.50602409638554" y="254.04819277108433" type="line"/>
      <point x="139.19277108433735" y="281.65060240963857" type="line" smooth="yes"/>
      <point x="148.87951807228916" y="511.1686746987952"/>
      <point x="245.9277108433735" y="657.1204819277109"/>
      <point x="392.9156626506024" y="657.1204819277109" type="curve" smooth="yes"/>
      <point x="457.0843373493976" y="657.1204819277109"/>
      <point x="515.9397590361446" y="631.2650602409639"/>
      <point x="564.710843373494" y="575.2409638554217" type="curve"/>
      <point x="594.3493975903615" y="622.289156626506" type="line"/>
      <point x="546.289156626506" y="679.8313253012049"/>
      <point x="471.7469879518072" y="713.4578313253012"/>
      <point x="398.3734939759036" y="713.4578313253012" type="curve" smooth="yes"/>
      <point x="187.4578313253012" y="713.4578313253012"/>
      <point x="80.19277108433735" y="501.3855421686747"/>
      <point x="80.19277108433735" y="249.51807228915666" type="curve" smooth="yes"/>
      <point x="80.19277108433735" y="90.6867469879518"/>
      <point x="167.56626506024097" y="-8.457831325301205"/>
    </contour>
    <contour>
      <point x="301.144578313253" y="46.506024096385545" type="curve" smooth="yes"/>
      <point x="216.86746987951807" y="46.506024096385545"/>
      <point x="153.9036144578313" y="106.1566265060241"/>
      <point x="153.9036144578313" y="191.97590361445785" type="curve" smooth="yes"/>
      <point x="153.9036144578313" y="297.0240963855421"/>
      <point x="225.40963855421688" y="382.3855421686747"/>
      <point x="332.1686746987952" y="382.3855421686747" type="curve" smooth="yes"/>
      <point x="416.44578313253015" y="382.3855421686747"/>
      <point x="479.4096385542169" y="322.73493975903614"/>
      <point x="479.4096385542169" y="236.91566265060243" type="curve" smooth="yes"/>
      <point x="479.4096385542169" y="131.86746987951807"/>
      <point x="407.90361445783134" y="46.506024096385545"/>
    </contour>
  </outline>
</glyph>
<glyph name="seven" format="2">
  <advance width="600.0"/>
  <unicode hex="0037"/>
  <outline>
    <contour>
      <point x="84.78313253012048" y="0.0" type="line"/>
      <point x="156.5301204819277" y="0.0" type="line"/>
      <point x="592.2048192771084" y="659.1204819277109" type="line"/>
      <point x="599.4939759036145" y="705.0" type="line"/>
      <point x="145.50602409638554" y="705.0" type="line"/>
      <point x="136.9879518072289" y="650.433734939759" type="line"/>
      <point x="537.9759036144578" y="650.433734939759" type="line"/>
      <point x="538.9759036144578" y="682.8674698795181" type="line"/>
    </contour>
  </outline>
</glyph>
<glyph name="eight" format="2">
  <advance width="600.0"/>
  <unicode hex="0038"/>
  <outline>
    <contour>
      <point x="267.68674698795184" y="-8.457831325301205" type="curve" smooth="yes"/>
      <point x="426.06024096385545" y="-8.457831325301205"/>
      <point x="540.1204819277109" y="68.5421686746988"/>
      <point x="540.1204819277109" y="209.0" type="curve" smooth="yes"/>
      <point x="540.1204819277109" y="293.3734939759036"/>
      <point x="485.34939759036143" y="350.0602409638554"/>
      <point x="404.8072289156627" y="361.7469879518072" type="curve"/>
      <point x="402.578313253012" y="351.77108433734935" type="line"/>
      <point x="500.89156626506025" y="365.3132530120482"/>
      <point x="575.9759036144578" y="445.45783132530124"/>
      <point x="575.9759036144578" y="547.6265060240964" type="curve" smooth="yes"/>
      <point x="575.9759036144578" y="647.7710843373494"/>
      <point x="488.51807228915663" y="713.2289156626506"/>
      <point x="365.6265060240964" y="713.2289156626506" type="curve" smooth="yes"/>
      <point x="218.48192771084337" y="713.2289156626506"/>
      <point x="111.19277108433735" y="638.6867469879518"/>
      <point x="111.19277108433735" y="507.0" type="curve" smooth="yes"/>
      <point x="111.19277108433735" y="430.6265060240964"/>
      <point x="153.65060240963854" y="374.16867469879514"/>
      <point x="228.96385542168676" y="356.93975903614455" type="curve"/>
      <point x="231.19277108433735" y="365.3734939759036" type="line"/>
      <point x="122.65060240963855" y="359.3734939759036"/>
      <point x="41.65060240963855" y="269.51807228915663"/>
      <point x="41.65060240963855" y="158.43373493975903" type="curve" smooth="yes"/>
      <point x="41.65060240963855" y="55.144578313253014"/>
      <point x="135.87951807228916" y="-8.457831325301205"/>
    </contour>
    <contour>
      <point x="270.6024096385542" y="45.27710843373494" type="curve" smooth="yes"/>
      <point x="170.01204819277106" y="45.27710843373494"/>
      <point x="102.81927710843374" y="84.98795180722891"/>
      <point x="102.81927710843374" y="164.72289156626508" type="curve" smooth="yes"/>
      <point x="102.81927710843374" y="274.7951807228916"/>
      <point x="184.86746987951807" y="330.13253012048193"/>
      <point x="313.71084337349396" y="330.13253012048193" type="curve" smooth="yes"/>
      <point x="412.30120481927713" y="330.13253012048193"/>
      <point x="478.9518072289157" y="291.4216867469879"/>
      <point x="478.9518072289157" y="212.6867469879518" type="curve" smooth="yes"/>
      <point x="478.9518072289157" y="101.6144578313253"/>
      <point x="399.2168674698795" y="45.27710843373494"/>
    </contour>
    <contour>
      <point x="321.9156626506024" y="383.86746987951807" type="curve" smooth="yes"/>
      <point x="230.55421686746988" y="383.86746987951807"/>
      <point x="172.36144578313252" y="426.6626506024096"/>
      <point x="172.36144578313252" y="502.9397590361446" type="curve" smooth="yes"/>
      <point x="172.36144578313252" y="606.2409638554217"/>
      <point x="244.63855421686748" y="659.4939759036145"/>
      <point x="363.71084337349396" y="659.4939759036145" type="curve" smooth="yes"/>
      <point x="455.8433734939759" y="659.4939759036145"/>
      <point x="514.8072289156627" y="617.6987951807229"/>
      <point x="514.8072289156627" y="542.9638554216867" type="curve" smooth="yes"/>
      <point x="514.8072289156627" y="444.7469879518072"/>
      <point x="434.67469879518075" y="383.86746987951807"/>
    </contour>
  </outline>
</glyph>
<glyph name="nine" format="2">
  <advance width="600.0"/>
  <unicode hex="0039"/>
  <outline>
    <contour>
      <point x="238.6867469879518" y="-8.457831325301205" type="curve" smooth="yes"/>
      <point x="450.7469879518073" y="-8.457831325301205"/>
      <point x="554.5783132530121" y="208.42168674698794"/>
      <point x="554.5783132530121" y="455.71084337349396" type="curve" smooth="yes"/>
      <point x="554.5783132530121" y="614.5421686746988"/>
      <point x="467.433734939759" y="713.4578313253012"/>
      <point x="330.39759036144574" y="713.4578313253012" type="curve" smooth="yes"/>
      <point x="195.65060240963857" y="713.4578313253012"/>
      <point x="94.19277108433734" y="606.3132530120482"/>
      <point x="94.19277108433734" y="465.0240963855422" type="curve" smooth="yes"/>
      <point x="94.19277108433734" y="353.0240963855422"/>
      <point x="175.81927710843374" y="267.65060240963857"/>
      <point x="290.1325301204819" y="267.65060240963857" type="curve" smooth="yes"/>
      <point x="390.6987951807229" y="267.65060240963857"/>
      <point x="487.5542168674699" y="337.4457831325301"/>
      <point x="506.18072289156623" y="450.95180722891564" type="curve"/>
      <point x="497.26506024096386" y="451.1807228915663" type="line"/>
      <point x="495.8072289156627" y="423.578313253012" type="line" smooth="yes"/>
      <point x="486.12048192771084" y="194.06024096385542"/>
      <point x="388.6144578313253" y="47.87951807228916"/>
      <point x="242.77108433734938" y="47.87951807228916" type="curve" smooth="yes"/>
      <point x="178.3734939759036" y="47.87951807228916"/>
      <point x="119.51807228915662" y="73.73493975903614"/>
      <point x="70.06024096385542" y="129.9879518072289" type="curve"/>
      <point x="40.65060240963856" y="82.71084337349397" type="line"/>
      <point x="88.48192771084338" y="25.397590361445783"/>
      <point x="165.3132530120482" y="-8.457831325301205"/>
    </contour>
    <contour>
      <point x="302.6024096385542" y="322.6144578313253" type="curve" smooth="yes"/>
      <point x="218.55421686746988" y="322.6144578313253"/>
      <point x="155.59036144578315" y="382.26506024096386"/>
      <point x="155.59036144578315" y="468.3132530120482" type="curve" smooth="yes"/>
      <point x="155.59036144578315" y="573.132530120482"/>
      <point x="227.09638554216866" y="658.722891566265"/>
      <point x="333.855421686747" y="658.722891566265" type="curve" smooth="yes"/>
      <point x="417.90361445783134" y="658.722891566265"/>
      <point x="480.86746987951807" y="599.0722891566265"/>
      <point x="480.86746987951807" y="513.0240963855423" type="curve" smooth="yes"/>
      <point x="480.86746987951807" y="408.20481927710847"/>
      <point x="409.3614457831325" y="322.6144578313253"/>
    </contour>
  </outline>
</glyph>
<glyph name="colon" format="2">
  <advance width="219.46987951807228"/>
  <unicode hex="003A"/>
  <outline>
    <contour>
      <point x="92.59036144578315" y="399.578313253012" type="line"/>
      <point x="177.8433734939759" y="399.578313253012" type="line"/>
      <point x="191.36144578313252" y="485.144578313253" type="line"/>
      <point x="106.10843373493977" y="485.144578313253" type="line"/>
    </contour>
    <contour>
      <point x="29.108433734939766" y="0.0" type="line"/>
      <point x="114.36144578313252" y="0.0" type="line"/>
      <point x="127.87951807228914" y="85.79518072289156" type="line"/>
      <point x="42.62650602409639" y="85.79518072289156" type="line"/>
    </contour>
  </outline>
</glyph>
<glyph name="semicolon" format="2">
  <advance width="219.46987951807228"/>
  <unicode hex="003B"/>
  <outline>
    <contour>
      <point x="49.204819277108435" y="-106.01204819277109" type="line"/>
      <point x="94.8433734939759" y="-68.20481927710844"/>
      <point x="107.59036144578313" y="-33.54216867469879"/>
      <point x="115.50602409638553" y="15.180722891566264" type="curve" smooth="yes"/>
      <point x="126.87951807228914" y="85.79518072289156" type="line"/>
      <point x="41.62650602409639" y="85.79518072289156" type="line"/>
      <point x="28.108433734939766" y="0.0" type="line"/>
      <point x="89.86746987951805" y="0.0" type="line"/>
      <point x="69.80722891566265" y="11.265060240963855" type="line"/>
      <point x="64.89156626506023" y="-19.08433734939759"/>
      <point x="57.37349397590361" y="-42.45783132530121"/>
      <point x="21.397590361445783" y="-76.51807228915662" type="curve"/>
    </contour>
    <contour>
      <point x="91.81927710843374" y="399.578313253012" type="line"/>
      <point x="177.0722891566265" y="399.578313253012" type="line"/>
      <point x="190.59036144578312" y="485.144578313253" type="line"/>
      <point x="105.33734939759037" y="485.144578313253" type="line"/>
    </contour>
  </outline>
</glyph>
<glyph name="less" format="2">
  <advance width="600.0"/>
  <unicode hex="003C"/>
  <outline>
    <contour>
      <point x="510.7710843373494" y="36.08433734939759" type="line"/>
      <point x="519.6024096385543" y="88.53012048192771" type="line"/>
      <point x="95.74698795180723" y="298.8915662650602" type="line"/>
      <point x="90.37349397590361" y="267.9638554216868" type="line"/>
      <point x="581.1686746987951" y="479.3253012048193" type="line"/>
      <point x="590.2289156626506" y="538.144578313253" type="line"/>
      <point x="66.91566265060241" y="311.86746987951807" type="line"/>
      <point x="58.855421686746986" y="262.3614457831325" type="line"/>
    </contour>
  </outline>
</glyph>
<glyph name="equal" format="2">
  <advance width="600.0"/>
  <unicode hex="003D"/>
  <outline>
    <contour>
      <point x="74.08433734939759" y="361.50602409638554" type="line"/>
      <point x="562.0843373493976" y="361.50602409638554" type="line"/>
      <point x="569.9156626506024" y="411.72289156626505" type="line"/>
      <point x="81.91566265060241" y="411.72289156626505" type="line"/>
    </contour>
    <contour>
      <point x="43.08433734939759" y="162.50602409638554" type="line"/>
      <point x="531.0843373493976" y="162.50602409638554" type="line"/>
      <point x="538.9156626506024" y="212.49397590361446" type="line"/>
      <point x="50.91566265060241" y="212.49397590361446" type="line"/>
    </contour>
  </outline>
</glyph>
<glyph name="greater" format="2">
  <advance width="600.0"/>
  <unicode hex="003E"/>
  <outline>
    <contour>
      <point x="22.771084337349397" y="36.08433734939759" type="line"/>
      <point x="546.855421686747" y="262.3614457831325" type="line"/>
      <point x="554.9156626506024" y="311.86746987951807" type="line"/>
      <point x="102.2289156626506" y="538.144578313253" type="line"/>
      <point x="93.39759036144578" y="485.46987951807233" type="line"/>
      <point x="518.0240963855422" y="274.1084337349398" type="line"/>
      <point x="523.3975903614457" y="305.26506024096386" type="line"/>
      <point x="31.83132530120482" y="94.67469879518072" type="line"/>
    </contour>
  </outline>
</glyph>
<glyph name="question" format="2">
  <advance width="435.86746987951807"/>
  <unicode hex="003F"/>
  <outline>
    <contour>
      <point x="168.74698795180723" y="172.75903614457832" type="line"/>
      <point x="209.04819277108433" y="172.75903614457832" type="line"/>
      <point x="214.96385542168676" y="195.90361445783134" type="line" smooth="yes"/>
      <point x="227.19277108433735" y="247.07228915662648"/>
      <point x="248.50602409638554" y="296.9518072289157"/>
      <point x="328.13253012048193" y="363.28915662650604" type="curve" smooth="yes"/>
      <point x="385.1927710843374" y="410.144578313253"/>
      <point x="457.0722891566265" y="480.3975903614458"/>
      <point x="457.0722891566265" y="566.9397590361446" type="curve" smooth="yes"/>
      <point x="457.0722891566265" y="646.5421686746988"/>
      <point x="398.86746987951807" y="713.4578313253012"/>
      <point x="289.26506024096386" y="713.4578313253012" type="curve" smooth="yes"/>
      <point x="209.43373493975903" y="713.4578313253012"/>
      <point x="123.51807228915663" y="682.6024096385543"/>
      <point x="63.0" y="623.0602409638554" type="curve"/>
      <point x="87.57831325301206" y="573.7831325301205" type="line"/>
      <point x="144.34939759036143" y="626.722891566265"/>
      <point x="211.97590361445782" y="657.1204819277109"/>
      <point x="283.54216867469876" y="657.1204819277109" type="curve" smooth="yes"/>
      <point x="360.5903614457832" y="657.1204819277109"/>
      <point x="394.0722891566265" y="616.0120481927711"/>
      <point x="394.0722891566265" y="560.8192771084338" type="curve" smooth="yes"/>
      <point x="394.0722891566265" y="484.77108433734935"/>
      <point x="330.10843373493975" y="435.89156626506025"/>
      <point x="289.6265060240964" y="398.6385542168675" type="curve" smooth="yes"/>
      <point x="202.51807228915663" y="318.2168674698795"/>
      <point x="182.20481927710844" y="270.27710843373495"/>
      <point x="172.43373493975903" y="198.33734939759037" type="curve" smooth="yes"/>
    </contour>
    <contour>
      <point x="119.16867469879517" y="0.0" type="line"/>
      <point x="203.42168674698797" y="0.0" type="line"/>
      <point x="216.93975903614458" y="85.79518072289156" type="line"/>
      <point x="132.6867469879518" y="85.79518072289156" type="line"/>
    </contour>
  </outline>
</glyph>
<glyph name="at" format="2">
  <advance width="944.6024096385543"/>
  <unicode hex="0040"/>
  <outline>
    <contour>
      <point x="495.2289156626506" y="-162.6867469879518" type="curve" smooth="yes"/>
      <point x="616.3132530120482" y="-162.6867469879518"/>
      <point x="720.3975903614457" y="-123.28915662650603"/>
      <point x="785.1686746987951" y="-52.493975903614455" type="curve"/>
      <point x="755.1927710843373" y="-12.710843373493976" type="line"/>
      <point x="698.5060240963855" y="-77.50602409638554"/>
      <point x="606.0240963855422" y="-114.98795180722891"/>
      <point x="495.2289156626506" y="-114.98795180722891" type="curve" smooth="yes"/>
      <point x="269.5783132530121" y="-114.98795180722891"/>
      <point x="127.09638554216868" y="31.349397590361445"/>
      <point x="127.09638554216868" y="274.93975903614455" type="curve" smooth="yes"/>
      <point x="127.09638554216868" y="508.421686746988"/>
      <point x="280.12048192771084" y="665.7590361445783"/>
      <point x="505.83132530120486" y="665.7590361445783" type="curve" smooth="yes"/>
      <point x="706.2289156626506" y="665.7590361445783"/>
      <point x="843.4216867469879" y="536.2530120481928"/>
      <point x="843.4216867469879" y="345.0843373493976" type="curve" smooth="yes"/>
      <point x="843.4216867469879" y="200.03614457831324"/>
      <point x="787.6265060240964" y="104.46987951807229"/>
      <point x="705.6626506024096" y="104.46987951807229" type="curve" smooth="yes"/>
      <point x="662.1807228915662" y="104.46987951807229"/>
      <point x="641.3253012048193" y="127.32530120481928"/>
      <point x="641.3253012048193" y="173.95180722891567" type="curve" smooth="yes"/>
      <point x="641.3253012048193" y="186.40963855421685"/>
      <point x="642.5542168674699" y="201.32530120481928"/>
      <point x="645.7831325301205" y="217.9277108433735" type="curve" smooth="yes"/>
      <point x="691.6385542168675" y="485.144578313253" type="line"/>
      <point x="637.9638554216867" y="485.144578313253" type="line"/>
      <point x="621.7349397590361" y="390.3734939759036" type="line"/>
      <point x="631.0240963855422" y="390.3734939759036" type="line"/>
      <point x="618.1084337349398" y="455.28915662650604"/>
      <point x="569.0240963855422" y="493.6024096385542"/>
      <point x="495.71084337349396" y="493.6024096385542" type="curve" smooth="yes"/>
      <point x="371.71084337349396" y="493.6024096385542"/>
      <point x="278.6265060240964" y="385.8313253012048"/>
      <point x="278.6265060240964" y="238.289156626506" type="curve" smooth="yes"/>
      <point x="278.6265060240964" y="126.144578313253"/>
      <point x="337.3132530120482" y="59.0"/>
      <point x="438.9156626506024" y="59.0" type="curve" smooth="yes"/>
      <point x="504.7469879518072" y="59.0"/>
      <point x="570.5180722891566" y="100.37349397590361"/>
      <point x="605.289156626506" y="175.18072289156626" type="curve"/>
      <point x="592.0240963855422" y="187.5421686746988" type="line"/>
      <point x="581.6867469879518" y="109.08433734939759"/>
      <point x="624.0602409638554" y="59.0"/>
      <point x="701.9759036144578" y="59.0" type="curve" smooth="yes"/>
      <point x="815.6626506024096" y="59.0"/>
      <point x="891.3493975903615" y="171.3132530120482"/>
      <point x="891.3493975903615" y="345.0843373493976" type="curve" smooth="yes"/>
      <point x="891.3493975903615" y="564.6867469879518"/>
      <point x="735.1204819277109" y="713.4578313253012"/>
      <point x="506.83132530120486" y="713.4578313253012" type="curve" smooth="yes"/>
      <point x="251.93975903614458" y="713.4578313253012"/>
      <point x="74.79518072289156" y="534.4578313253012"/>
      <point x="74.79518072289156" y="274.93975903614455" type="curve" smooth="yes"/>
      <point x="74.79518072289156" y="6.228915662650603"/>
      <point x="241.3132530120482" y="-162.6867469879518"/>
    </contour>
    <contour>
      <point x="443.8072289156627" y="107.1566265060241" type="curve" smooth="yes"/>
      <point x="373.9277108433735" y="107.1566265060241"/>
      <point x="334.2168674698795" y="153.63855421686748"/>
      <point x="334.2168674698795" y="238.51807228915663" type="curve" smooth="yes"/>
      <point x="334.2168674698795" y="358.0240963855422"/>
      <point x="405.4096385542169" y="445.2168674698795"/>
      <point x="499.3734939759036" y="445.2168674698795" type="curve" smooth="yes"/>
      <point x="573.7951807228916" y="445.2168674698795"/>
      <point x="608.5060240963855" y="406.04819277108436"/>
      <point x="608.5060240963855" y="325.855421686747" type="curve" smooth="yes"/>
      <point x="608.5060240963855" y="199.89156626506025"/>
      <point x="538.3132530120482" y="107.1566265060241"/>
    </contour>
  </outline>
</glyph>
<glyph name="A" format="2">
  <advance width="722.4096385542168"/>
  <unicode hex="0041"/>
  <anchor x="340.6626506024096" y="0.0" name="bottom"/>
  <anchor x="647.8072289156627" y="0.0" name="ogonek"/>
  <anchor x="436.5180722891566" y="705.0" name="top"/>
  <outline>
    <contour>
      <point x="-11.012048192771084" y="0.0" type="line"/>
      <point x="57.90361445783132" y="0.0" type="line"/>
      <point x="175.6144578313253" y="200.10843373493975" type="line"/>
      <point x="139.49397590361446" y="187.67469879518072" type="line"/>
      <point x="570.4578313253012" y="187.67469879518072" type="line"/>
      <point x="542.7951807228915" y="200.79518072289156" type="line"/>
      <point x="596.6506024096385" y="0.0" type="line"/>
      <point x="657.1927710843373" y="0.0" type="line"/>
      <point x="462.7590361445783" y="705.0" type="line"/>
      <point x="407.87951807228916" y="705.0" type="line"/>
    </contour>
    <contour>
      <point x="426.14457831325296" y="629.2289156626506" type="line"/>
      <point x="428.14457831325296" y="629.2289156626506" type="line"/>
      <point x="534.1927710843373" y="230.74698795180723" type="line"/>
      <point x="555.7951807228915" y="241.09638554216866" type="line"/>
      <point x="170.96385542168673" y="241.09638554216866" type="line"/>
      <point x="193.73493975903614" y="231.20481927710844" type="line"/>
    </contour>
  </outline>
</glyph>
<glyph name="B" format="2">
  <advance width="671.0361445783133"/>
  <unicode hex="0042"/>
  <anchor x="301.8313253012048" y="0.0" name="bottom"/>
  <anchor x="412.83132530120486" y="705.0" name="top"/>
  <outline>
    <contour>
      <point x="53.42168674698795" y="0.0" type="line"/>
      <point x="351.95180722891564" y="0.0" type="line" smooth="yes"/>
      <point x="509.6385542168675" y="0.0"/>
      <point x="597.156626506024" y="70.6867469879518"/>
      <point x="597.156626506024" y="207.6867469879518" type="curve" smooth="yes"/>
      <point x="597.156626506024" y="290.4578313253012"/>
      <point x="542.0722891566265" y="349.68674698795184"/>
      <point x="453.3012048192771" y="364.144578313253" type="curve"/>
      <point x="453.3012048192771" y="349.68674698795184" type="line"/>
      <point x="562.6987951807229" y="364.144578313253"/>
      <point x="633.4698795180723" y="434.4578313253012"/>
      <point x="633.4698795180723" y="540.3132530120482" type="curve" smooth="yes"/>
      <point x="633.4698795180723" y="641.3975903614459"/>
      <point x="564.3855421686746" y="705.0"/>
      <point x="422.26506024096386" y="705.0" type="curve" smooth="yes"/>
      <point x="165.42168674698797" y="705.0" type="line"/>
    </contour>
    <contour>
      <point x="122.79518072289157" y="52.27710843373494" type="line"/>
      <point x="166.81927710843374" y="330.5903614457831" type="line"/>
      <point x="380.3734939759036" y="330.5903614457831" type="line" smooth="yes"/>
      <point x="479.73493975903614" y="330.5903614457831"/>
      <point x="534.843373493976" y="288.79518072289153"/>
      <point x="534.843373493976" y="208.51807228915663" type="curve" smooth="yes"/>
      <point x="534.843373493976" y="106.07228915662651"/>
      <point x="474.1927710843374" y="52.27710843373494"/>
      <point x="353.6626506024096" y="52.27710843373494" type="curve" smooth="yes"/>
    </contour>
    <contour>
      <point x="175.10843373493975" y="382.86746987951807" type="line"/>
      <point x="217.90361445783134" y="652.722891566265" type="line"/>
      <point x="415.3734939759036" y="652.722891566265" type="line" smooth="yes"/>
      <point x="521.0481927710842" y="652.722891566265"/>
      <point x="571.1566265060242" y="611.9277108433736"/>
      <point x="571.1566265060242" y="536.1084337349398" type="curve" smooth="yes"/>
      <point x="571.1566265060242" y="437.7469879518072"/>
      <point x="500.65060240963857" y="382.86746987951807"/>
      <point x="389.28915662650604" y="382.86746987951807" type="curve" smooth="yes"/>
    </contour>
  </outline>
</glyph>
<glyph name="C" format="2">
  <advance width="669.7469879518072"/>
  <unicode hex="0043"/>
  <anchor x="365.6024096385542" y="0.0" name="bottom"/>
  <anchor x="435.06024096385545" y="705.0" name="top"/>
  <outline>
    <contour>
      <point x="375.8072289156626" y="-8.457831325301205" type="curve" smooth="yes"/>
      <point x="466.43373493975906" y="-8.457831325301205"/>
      <point x="546.4096385542168" y="22.85542168674699"/>
      <point x="609.2650602409639" y="83.33734939759036" type="curve"/>
      <point x="582.2891566265059" y="132.67469879518072" type="line"/>
      <point x="516.9759036144578" y="73.87951807228916"/>
      <point x="457.433734939759" y="49.25301204819277"/>
      <point x="379.7831325301205" y="49.25301204819277" type="curve" smooth="yes"/>
      <point x="235.90361445783134" y="49.25301204819277"/>
      <point x="146.08433734939757" y="122.04819277108435"/>
      <point x="146.08433734939757" y="306.28915662650604" type="curve" smooth="yes"/>
      <point x="146.08433734939757" y="508.8433734939759"/>
      <point x="255.98795180722894" y="655.7469879518072"/>
      <point x="434.89156626506025" y="655.7469879518072" type="curve" smooth="yes"/>
      <point x="519.7710843373494" y="655.7469879518072"/>
      <point x="582.3132530120482" y="628.6626506024096"/>
      <point x="636.8554216867469" y="570.6385542168674" type="curve"/>
      <point x="668.0361445783133" y="620.9759036144578" type="line"/>
      <point x="616.4939759036145" y="678.9156626506024"/>
      <point x="535.6626506024097" y="713.4578313253012"/>
      <point x="437.89156626506025" y="713.4578313253012" type="curve" smooth="yes"/>
      <point x="216.93975903614458" y="713.4578313253012"/>
      <point x="80.25301204819277" y="537.2289156626506"/>
      <point x="80.25301204819277" y="306.144578313253" type="curve" smooth="yes"/>
      <point x="80.25301204819277" y="90.60240963855422"/>
      <point x="200.3734939759036" y="-8.457831325301205"/>
    </contour>
  </outline>
</glyph>
<glyph name="E" format="2">
  <advance width="576.1807228915662"/>
  <unicode hex="0045"/>
  <anchor x="290.3734939759036" y="0.0" name="bottom"/>
  <anchor x="450.6024096385542" y="0.0" name="ogonek"/>
  <anchor x="397.14457831325296" y="705.0" name="top"/>
  <anchor x="99.85542168674698" y="705.0" name="topleft"/>
  <outline>
    <contour>
      <point x="53.65060240963855" y="0.0" type="line"/>
      <point x="487.72289156626505" y="0.0" type="line"/>
      <point x="496.0120481927711" y="53.42168674698795" type="line"/>
      <point x="122.25301204819277" y="53.42168674698795" type="line"/>
      <point x="166.04819277108433" y="330.90361445783134" type="line"/>
      <point x="520.3493975903615" y="330.90361445783134" type="line"/>
      <point x="528.6385542168674" y="384.32530120481925" type="line"/>
      <point x="175.10843373493975" y="384.32530120481925" type="line"/>
      <point x="217.67469879518072" y="651.5783132530121" type="line"/>
      <point x="591.433734939759" y="651.5783132530121" type="line"/>
      <point x="599.722891566265" y="705.0" type="line"/>
      <point x="165.42168674698797" y="705.0" type="line"/>
    </contour>
  </outline>
</glyph>
<glyph name="F" format="2">
  <advance width="541.9518072289156"/>
  <unicode hex="0046"/>
  <anchor x="256.3734939759036" y="0.0" name="bottom"/>
  <anchor x="368.83132530120486" y="705.0" name="top"/>
  <outline>
    <contour>
      <point x="53.65060240963855" y="0.0" type="line"/>
      <point x="115.33734939759037" y="0.0" type="line"/>
      <point x="167.96385542168676" y="329.7590361445783" type="line"/>
      <point x="510.80722891566273" y="329.7590361445783" type="line"/>
      <point x="519.0963855421687" y="383.1807228915663" type="line"/>
      <point x="176.25301204819277" y="383.1807228915663" type="line"/>
      <point x="219.04819277108436" y="651.5783132530121" type="line"/>
      <point x="582.1204819277108" y="651.5783132530121" type="line"/>
      <point x="590.4096385542168" y="705.0" type="line"/>
      <point x="165.42168674698797" y="705.0" type="line"/>
    </contour>
  </outline>
</glyph>
<glyph name="G" format="2">
  <advance width="722.1204819277109"/>
  <unicode hex="0047"/>
  <anchor x="376.12048192771084" y="0.0" name="bottom"/>
  <anchor x="436.9759036144578" y="705.0" name="top"/>
  <outline>
    <contour>
      <point x="387.2048192771084" y="-8.457831325301205" type="curve" smooth="yes"/>
      <point x="466.66265060240966" y="-8.457831325301205"/>
      <point x="552.2650602409639" y="9.084337349397591"/>
      <point x="603.9277108433735" y="32.915662650602414" type="curve"/>
      <point x="655.6144578313252" y="360.95180722891564" type="line"/>
      <point x="413.6024096385542" y="360.95180722891564" type="line"/>
      <point x="405.77108433734935" y="309.13253012048193" type="line"/>
      <point x="592.4457831325301" y="309.13253012048193" type="line"/>
      <point x="549.7349397590361" y="43.69879518072289" type="line"/>
      <point x="571.1686746987953" y="81.50602409638553" type="line"/>
      <point x="519.5421686746988" y="62.42168674698795"/>
      <point x="463.6024096385542" y="48.33734939759036"/>
      <point x="392.8674698795181" y="48.33734939759036" type="curve" smooth="yes"/>
      <point x="229.87951807228916" y="48.33734939759036"/>
      <point x="144.6265060240964" y="127.44578313253011"/>
      <point x="144.6265060240964" y="293.3493975903615" type="curve" smooth="yes"/>
      <point x="144.6265060240964" y="514.012048192771"/>
      <point x="255.67469879518075" y="656.2048192771084"/>
      <point x="435.26506024096386" y="656.2048192771084" type="curve" smooth="yes"/>
      <point x="522.8313253012049" y="656.2048192771084"/>
      <point x="586.6024096385543" y="629.3493975903615"/>
      <point x="643.144578313253" y="571.5542168674699" type="curve"/>
      <point x="674.3253012048192" y="621.6626506024096" type="line"/>
      <point x="621.6987951807229" y="678.9156626506024"/>
      <point x="540.3253012048193" y="713.4578313253012"/>
      <point x="439.1807228915663" y="713.4578313253012" type="curve" smooth="yes"/>
      <point x="216.855421686747" y="713.4578313253012"/>
      <point x="79.25301204819277" y="544.3132530120482"/>
      <point x="79.25301204819277" y="292.20481927710847" type="curve" smooth="yes"/>
      <point x="79.25301204819277" y="96.91566265060241"/>
      <point x="192.74698795180723" y="-8.457831325301205"/>
    </contour>
  </outline>
</glyph>
<glyph name="H" format="2">
  <advance width="756.0361445783133"/>
  <unicode hex="0048"/>
  <anchor x="344.7469879518072" y="0.0" name="bottom"/>
  <anchor x="426.9759036144578" y="549.433734939759" name="center"/>
  <anchor x="450.28915662650604" y="705.0" name="top"/>
  <anchor x="99.08433734939759" y="705.0" name="topleft"/>
  <outline>
    <contour>
      <point x="53.42168674698795" y="0.0" type="line"/>
      <point x="115.10843373493977" y="0.0" type="line"/>
      <point x="167.73493975903617" y="330.2168674698795" type="line"/>
      <point x="616.3253012048192" y="330.2168674698795" type="line"/>
      <point x="563.6987951807229" y="0.0" type="line"/>
      <point x="625.3855421686746" y="0.0" type="line"/>
      <point x="737.3855421686746" y="705.0" type="line"/>
      <point x="675.6987951807229" y="705.0" type="line"/>
      <point x="624.8433734939758" y="384.7831325301205" type="line"/>
      <point x="176.25301204819277" y="384.7831325301205" type="line"/>
      <point x="227.10843373493978" y="705.0" type="line"/>
      <point x="165.42168674698797" y="705.0" type="line"/>
    </contour>
  </outline>
</glyph>
<glyph name="I" format="2">
  <advance width="244.9879518072289"/>
  <unicode hex="0049"/>
  <anchor x="84.26506024096385" y="0.0" name="bottom"/>
  <anchor x="108.69879518072291" y="0.0" name="ogonek"/>
  <anchor x="196.26506024096386" y="705.0" name="top"/>
  <anchor x="100.62650602409637" y="705.0" name="topleft"/>
  <outline>
    <contour>
      <point x="53.42168674698795" y="0.0" type="line"/>
      <point x="115.10843373493977" y="0.0" type="line"/>
      <point x="227.10843373493978" y="705.0" type="line"/>
      <point x="165.42168674698797" y="705.0" type="line"/>
    </contour>
  </outline>
</glyph>
<glyph name="J" format="2">
  <advance width="310.04819277108436"/>
  <unicode hex="004A"/>
  <anchor x="150.32530120481928" y="0.0" name="bottom"/>
  <anchor x="261.3253012048193" y="705.0" name="top"/>
  <outline>
    <contour>
      <point x="-41.855421686746986" y="-6.686746987951807" type="line"/>
      <point x="13.927710843373495" y="-3.4578313253012047" type="line" smooth="yes"/>
      <point x="129.6265060240964" y="4.0"/>
      <point x="190.3975903614458" y="68.6867469879518"/>
      <point x="208.0843373493976" y="181.34939759036143" type="curve" smooth="yes"/>
      <point x="291.3975903614458" y="705.0" type="line"/>
      <point x="229.710843373494" y="705.0" type="line"/>
      <point x="148.3975903614458" y="191.57831325301203" type="line" smooth="yes"/>
      <point x="134.3132530120482" y="102.30120481927712"/>
      <point x="88.74698795180723" y="56.19277108433735"/>
      <point x="12.867469879518072" y="50.65060240963855" type="curve" smooth="yes"/>
      <point x="-42.16867469879518" y="46.65060240963855" type="line"/>
    </contour>
  </outline>
</glyph>
<glyph name="K" format="2">
  <advance width="606.9397590361446"/>
  <unicode hex="004B"/>
  <anchor x="282.49397590361446" y="0.0" name="bottom"/>
  <anchor x="381.6385542168675" y="705.0" name="top"/>
  <anchor x="99.62650602409639" y="705.0" name="topleft"/>
  <outline>
    <contour>
      <point x="53.42168674698795" y="0.0" type="line"/>
      <point x="115.10843373493977" y="0.0" type="line"/>
      <point x="168.65060240963857" y="335.9397590361446" type="line"/>
      <point x="170.65060240963857" y="335.9397590361446" type="line"/>
      <point x="500.3734939759036" y="0.0" type="line"/>
      <point x="578.2048192771084" y="0.0" type="line"/>
      <point x="214.81927710843374" y="374.4939759036145" type="line"/>
      <point x="211.87951807228913" y="337.855421686747" type="line"/>
      <point x="668.5783132530121" y="705.0" type="line"/>
      <point x="583.4578313253012" y="705.0" type="line"/>
      <point x="177.56626506024097" y="380.66265060240966" type="line"/>
      <point x="175.56626506024097" y="380.66265060240966" type="line"/>
      <point x="227.10843373493978" y="705.0" type="line"/>
      <point x="165.42168674698797" y="705.0" type="line"/>
    </contour>
  </outline>
</glyph>
<glyph name="L" format="2">
  <advance width="535.0120481927711"/>
  <unicode hex="004C"/>
  <anchor x="268.3734939759036" y="0.0" name="bottom"/>
  <anchor x="187.95180722891567" y="387.0" name="center"/>
  <anchor x="417.3855421686747" y="387.8313253012048" name="dot"/>
  <anchor x="196.03614457831324" y="705.0" name="top"/>
  <anchor x="345.67469879518075" y="705.0" name="topright"/>
  <outline>
    <contour>
      <point x="53.42168674698795" y="0.0" type="line"/>
      <point x="482.4096385542168" y="0.0" type="line"/>
      <point x="490.92771084337346" y="55.024096385542165" type="line"/>
      <point x="123.855421686747" y="55.024096385542165" type="line"/>
      <point x="227.10843373493978" y="705.0" type="line"/>
      <point x="165.42168674698797" y="705.0" type="line"/>
    </contour>
  </outline>
</glyph>
<glyph name="M" format="2">
  <advance width="849.4939759036145"/>
  <unicode hex="004D"/>
  <anchor x="392.2048192771084" y="0.0" name="bottom"/>
  <anchor x="498.7469879518072" y="705.0" name="top"/>
  <outline>
    <contour>
      <point x="55.42168674698795" y="0.0" type="line"/>
      <point x="112.04819277108435" y="0.0" type="line"/>
      <point x="211.7831325301205" y="631.433734939759" type="line"/>
      <point x="191.32530120481928" y="631.433734939759" type="line"/>
      <point x="383.16867469879514" y="109.3132530120482" type="line"/>
      <point x="427.09638554216866" y="109.3132530120482" type="line"/>
      <point x="785.2650602409639" y="631.578313253012" type="line"/>
      <point x="760.722891566265" y="631.578313253012" type="line"/>
      <point x="660.9879518072289" y="0.0" type="line"/>
      <point x="717.6144578313254" y="0.0" type="line"/>
      <point x="829.6144578313254" y="705.0" type="line"/>
      <point x="776.6746987951807" y="705.0" type="line"/>
      <point x="393.8072289156627" y="146.9156626506024" type="line"/>
      <point x="421.26506024096386" y="146.9156626506024" type="line"/>
      <point x="218.53012048192772" y="705.0" type="line"/>
      <point x="167.42168674698797" y="705.0" type="line"/>
    </contour>
  </outline>
</glyph>
<glyph name="N" format="2">
  <advance width="735.433734939759"/>
  <unicode hex="004E"/>
  <anchor x="339.8313253012048" y="0.0" name="bottom"/>
  <anchor x="441.14457831325296" y="705.0" name="top"/>
  <outline>
    <contour>
      <point x="53.42168674698795" y="0.0" type="line"/>
      <point x="110.73493975903615" y="0.0" type="line"/>
      <point x="211.1566265060241" y="634.6144578313254" type="line"/>
      <point x="192.32530120481928" y="634.6144578313254" type="line"/>
      <point x="556.8192771084338" y="0.0" type="line"/>
      <point x="604.7831325301205" y="0.0" type="line"/>
      <point x="716.7831325301205" y="705.0" type="line"/>
      <point x="659.4698795180723" y="705.0" type="line"/>
      <point x="559.0481927710844" y="70.38554216867469" type="line"/>
      <point x="578.6506024096386" y="70.38554216867469" type="line"/>
      <point x="214.3855421686747" y="705.0" type="line"/>
      <point x="165.42168674698797" y="705.0" type="line"/>
    </contour>
  </outline>
</glyph>
<glyph name="O" format="2">
  <advance width="758.7831325301205"/>
  <unicode hex="004F"/>
  <anchor x="351.5783132530121" y="-8.457831325301205" name="Qtail"/>
  <anchor x="352.9759036144578" y="0.0" name="bottom"/>
  <anchor x="396.89156626506025" y="353.0" name="center"/>
  <anchor x="407.1807228915663" y="0.0" name="ogonek"/>
  <anchor x="442.9759036144578" y="705.0" name="top"/>
  <anchor x="99.0" y="705.0" name="topleft"/>
  <anchor x="492.03614457831327" y="705.0" name="topright"/>
  <outline>
    <contour>
      <point x="362.49397590361446" y="-8.457831325301205" type="curve" smooth="yes"/>
      <point x="590.722891566265" y="-8.457831325301205"/>
      <point x="714.5301204819277" y="175.79518072289156"/>
      <point x="714.5301204819277" y="413.93975903614455" type="curve" smooth="yes"/>
      <point x="714.5301204819277" y="607.6265060240964"/>
      <point x="604.0963855421687" y="713.4578313253012"/>
      <point x="431.28915662650604" y="713.4578313253012" type="curve" smooth="yes"/>
      <point x="203.06024096385542" y="713.4578313253012"/>
      <point x="79.25301204819277" y="529.2048192771084"/>
      <point x="79.25301204819277" y="291.28915662650604" type="curve" smooth="yes"/>
      <point x="79.25301204819277" y="97.37349397590361"/>
      <point x="189.9156626506024" y="-8.457831325301205"/>
    </contour>
    <contour>
      <point x="364.49397590361446" y="48.33734939759036" type="curve" smooth="yes"/>
      <point x="227.27710843373495" y="48.33734939759036"/>
      <point x="144.6265060240964" y="127.2168674698795"/>
      <point x="144.6265060240964" y="291.7469879518072" type="curve" smooth="yes"/>
      <point x="144.6265060240964" y="500.36144578313247"/>
      <point x="244.81927710843374" y="656.6626506024096"/>
      <point x="428.28915662650604" y="656.6626506024096" type="curve" smooth="yes"/>
      <point x="566.5060240963855" y="656.6626506024096"/>
      <point x="649.1566265060242" y="577.7831325301204"/>
      <point x="649.1566265060242" y="413.48192771084337" type="curve" smooth="yes"/>
      <point x="649.1566265060242" y="205.63855421686748"/>
      <point x="548.9638554216867" y="48.33734939759036"/>
    </contour>
  </outline>
</glyph>
<glyph name="P" format="2">
  <advance width="624.2409638554217"/>
  <unicode hex="0050"/>
  <anchor x="281.43373493975906" y="0.0" name="bottom"/>
  <anchor x="393.20481927710847" y="705.0" name="top"/>
  <outline>
    <contour>
      <point x="53.42168674698795" y="0.0" type="line"/>
      <point x="115.10843373493977" y="0.0" type="line"/>
      <point x="160.96385542168676" y="289.4457831325301" type="line"/>
      <point x="373.6626506024096" y="289.4457831325301" type="line" smooth="yes"/>
      <point x="540.5542168674698" y="289.4457831325301"/>
      <point x="630.6144578313254" y="378.90361445783134"/>
      <point x="630.6144578313254" y="518.2530120481927" type="curve" smooth="yes"/>
      <point x="630.6144578313254" y="642.710843373494"/>
      <point x="549.156626506024" y="705.0"/>
      <point x="410.8915662650602" y="705.0" type="curve" smooth="yes"/>
      <point x="165.42168674698797" y="705.0" type="line"/>
    </contour>
    <contour>
      <point x="170.02409638554218" y="342.6385542168675" type="line"/>
      <point x="218.81927710843374" y="651.8072289156627" type="line"/>
      <point x="407.4578313253012" y="651.8072289156627" type="line" smooth="yes"/>
      <point x="512.9638554216867" y="651.8072289156627"/>
      <point x="568.3012048192771" y="609.5542168674699"/>
      <point x="568.3012048192771" y="515.1927710843373" type="curve" smooth="yes"/>
      <point x="568.3012048192771" y="402.7469879518072"/>
      <point x="501.87951807228916" y="342.6385542168675"/>
      <point x="378.12048192771084" y="342.6385542168675" type="curve" smooth="yes"/>
    </contour>
  </outline>
</glyph>
<glyph name="R" format="2">
  <advance width="661.3253012048193"/>
  <unicode hex="0052"/>
  <anchor x="307.51807228915663" y="0.0" name="bottom"/>
  <anchor x="397.9759036144578" y="705.0" name="top"/>
  <outline>
    <contour>
      <point x="53.42168674698795" y="0.0" type="line"/>
      <point x="115.33734939759037" y="0.0" type="line"/>
      <point x="163.19277108433735" y="305.13253012048193" type="line"/>
      <point x="316.3132530120482" y="305.13253012048193" type="line" smooth="yes"/>
      <point x="388.5903614457831" y="305.13253012048193"/>
      <point x="420.7590361445783" y="282.50602409638554"/>
      <point x="444.92771084337346" y="219.855421686747" type="curve" smooth="yes"/>
      <point x="528.4698795180723" y="0.0" type="line"/>
      <point x="590.0722891566264" y="0.0" type="line"/>
      <point x="503.81927710843377" y="226.21686746987953" type="line" smooth="yes"/>
      <point x="480.5903614457831" y="286.9036144578313"/>
      <point x="445.67469879518075" y="320.8192771084337"/>
      <point x="390.3855421686747" y="320.8192771084337" type="curve" smooth="yes"/>
      <point x="378.26506024096386" y="320.8192771084337" type="line"/>
      <point x="378.2650602409638" y="308.90361445783134" type="line"/>
      <point x="523.0120481927711" y="305.3614457831325"/>
      <point x="630.6144578313254" y="378.3614457831325"/>
      <point x="630.6144578313254" y="517.710843373494" type="curve" smooth="yes"/>
      <point x="630.6144578313254" y="633.3132530120481"/>
      <point x="556.3253012048192" y="705.0"/>
      <point x="406.49397590361446" y="705.0" type="curve" smooth="yes"/>
      <point x="165.42168674698797" y="705.0" type="line"/>
    </contour>
    <contour>
      <point x="172.02409638554218" y="356.95180722891564" type="line"/>
      <point x="218.81927710843374" y="651.8072289156627" type="line"/>
      <point x="402.14457831325296" y="651.8072289156627" type="line" smooth="yes"/>
      <point x="517.277108433735" y="651.8072289156627"/>
      <point x="568.3012048192771" y="605.2409638554217"/>
      <point x="568.3012048192771" y="514.6506024096385" type="curve" smooth="yes"/>
      <point x="568.3012048192771" y="413.83132530120486"/>
      <point x="500.1084337349398" y="356.95180722891564"/>
      <point x="385.9759036144578" y="356.95180722891564" type="curve" smooth="yes"/>
    </contour>
  </outline>
</glyph>
<glyph name="S" format="2">
  <advance width="607.0963855421687"/>
  <unicode hex="0053"/>
  <anchor x="289.433734939759" y="0.0" name="bottom"/>
  <anchor x="365.12048192771084" y="705.0" name="top"/>
  <outline>
    <contour>
      <point x="296.144578313253" y="-8.457831325301205" type="curve" smooth="yes"/>
      <point x="440.5783132530121" y="-8.457831325301205"/>
      <point x="554.5301204819277" y="62.45783132530121"/>
      <point x="554.5301204819277" y="191.72289156626505" type="curve" smooth="yes"/>
      <point x="554.5301204819277" y="275.6385542168675"/>
      <point x="498.3855421686747" y="334.2409638554217"/>
      <point x="369.5903614457831" y="363.5542168674699" type="curve" smooth="yes"/>
      <point x="268.3012048192771" y="388.01204819277103" type="line" smooth="yes"/>
      <point x="197.19277108433735" y="405.09638554216866"/>
      <point x="160.48192771084337" y="434.49397590361446"/>
      <point x="160.48192771084337" y="510.1686746987952" type="curve" smooth="yes"/>
      <point x="160.48192771084337" y="599.156626506024"/>
      <point x="243.30120481927713" y="657.1204819277109"/>
      <point x="351.578313253012" y="657.1204819277109" type="curve" smooth="yes"/>
      <point x="430.60240963855426" y="657.1204819277109"/>
      <point x="506.6024096385542" y="634.2650602409639"/>
      <point x="565.8313253012047" y="574.0120481927711" type="curve"/>
      <point x="594.5542168674699" y="622.5180722891566" type="line"/>
      <point x="535.8072289156627" y="685.9156626506024"/>
      <point x="443.12048192771084" y="713.4578313253012"/>
      <point x="353.5783132530121" y="713.4578313253012" type="curve" smooth="yes"/>
      <point x="211.83132530120483" y="713.4578313253012"/>
      <point x="97.48192771084338" y="632.0"/>
      <point x="97.48192771084338" y="507.6506024096385" type="curve" smooth="yes"/>
      <point x="97.48192771084338" y="404.0240963855422"/>
      <point x="157.1686746987952" y="355.27710843373495"/>
      <point x="248.7710843373494" y="333.8192771084337" type="curve" smooth="yes"/>
      <point x="350.06024096385545" y="309.3614457831325" type="line" smooth="yes"/>
      <point x="456.3614457831325" y="285.421686746988"/>
      <point x="491.5301204819277" y="243.85542168674698"/>
      <point x="491.5301204819277" y="185.20481927710844" type="curve" smooth="yes"/>
      <point x="491.5301204819277" y="99.98795180722891"/>
      <point x="414.2530120481928" y="47.87951807228916"/>
      <point x="300.43373493975906" y="47.87951807228916" type="curve" smooth="yes"/>
      <point x="204.0963855421687" y="47.87951807228916"/>
      <point x="130.57831325301206" y="65.33734939759036"/>
      <point x="58.975903614457835" y="125.73493975903615" type="curve"/>
      <point x="30.710843373493976" y="78.08433734939759" type="line"/>
      <point x="98.3132530120482" y="15.228915662650603"/>
      <point x="193.14457831325302" y="-8.457831325301205"/>
    </contour>
  </outline>
</glyph>
<glyph name="T" format="2">
  <advance width="594.0120481927711"/>
  <unicode hex="0054"/>
  <anchor x="258.34939759036143" y="0.0" name="bottom"/>
  <anchor x="315.12048192771084" y="358.0" name="center"/>
  <anchor x="369.66265060240966" y="705.0" name="top"/>
  <outline>
    <contour>
      <point x="227.27710843373495" y="0.0" type="line"/>
      <point x="288.96385542168673" y="0.0" type="line"/>
      <point x="392.4457831325301" y="650.433734939759" type="line"/>
      <point x="655.2650602409639" y="650.433734939759" type="line"/>
      <point x="663.7831325301205" y="705.0" type="line"/>
      <point x="76.4578313253012" y="705.0" type="line"/>
      <point x="67.93975903614458" y="650.433734939759" type="line"/>
      <point x="330.7590361445783" y="650.433734939759" type="line"/>
    </contour>
  </outline>
</glyph>
<glyph name="U" format="2">
  <advance width="723.8915662650603"/>
  <unicode hex="0055"/>
  <anchor x="324.06024096385545" y="0.0" name="bottom"/>
  <anchor x="387.89156626506025" y="0.0" name="ogonek"/>
  <anchor x="434.83132530120486" y="705.0" name="top"/>
  <anchor x="655.421686746988" y="705.0" name="topright"/>
  <outline>
    <contour>
      <point x="332.7469879518072" y="-8.457831325301205" type="curve" smooth="yes"/>
      <point x="514.2409638554217" y="-8.457831325301205"/>
      <point x="612.2409638554217" y="83.06024096385542"/>
      <point x="640.6987951807229" y="265.12048192771084" type="curve" smooth="yes"/>
      <point x="710.0120481927711" y="705.0" type="line"/>
      <point x="648.5542168674699" y="705.0" type="line"/>
      <point x="579.7831325301205" y="271.6024096385542" type="line" smooth="yes"/>
      <point x="554.3855421686748" y="114.67469879518073"/>
      <point x="475.421686746988" y="48.33734939759036"/>
      <point x="334.8072289156627" y="48.33734939759036" type="curve" smooth="yes"/>
      <point x="191.27710843373492" y="48.33734939759036"/>
      <point x="129.6265060240964" y="126.59036144578313"/>
      <point x="155.02409638554218" y="285.66265060240966" type="curve" smooth="yes"/>
      <point x="221.33734939759037" y="705.0" type="line"/>
      <point x="159.65060240963857" y="705.0" type="line"/>
      <point x="94.33734939759036" y="292.34939759036143" type="line" smooth="yes"/>
      <point x="62.65060240963855" y="92.4578313253012"/>
      <point x="154.8313253012048" y="-8.457831325301205"/>
    </contour>
  </outline>
</glyph>
<glyph name="V" format="2">
  <advance width="677.5301204819277"/>
  <unicode hex="0056"/>
  <anchor x="300.26506024096386" y="0.0" name="bottom"/>
  <anchor x="411.03614457831327" y="705.0" name="top"/>
  <outline>
    <contour>
      <point x="269.3975903614458" y="0.0" type="line"/>
      <point x="328.5903614457831" y="0.0" type="line"/>
      <point x="746.8795180722891" y="705.0" type="line"/>
      <point x="677.3614457831325" y="705.0" type="line"/>
      <point x="289.26506024096386" y="44.60240963855422" type="line"/>
      <point x="317.6144578313253" y="44.60240963855422" type="line"/>
      <point x="139.10843373493975" y="705.0" type="line"/>
      <point x="76.65060240963855" y="705.0" type="line"/>
    </contour>
  </outline>
</glyph>
<glyph name="W" format="2">
  <advance width="1096.0361445783133"/>
  <unicode hex="0057"/>
  <anchor x="509.51807228915663" y="0.0" name="bottom"/>
  <anchor x="620.0602409638554" y="705.0" name="top"/>
  <outline>
    <contour>
      <point x="240.48192771084337" y="0.0" type="line"/>
      <point x="296.3614457831325" y="0.0" type="line"/>
      <point x="620.6265060240963" y="641.2409638554217" type="line"/>
      <point x="599.9397590361446" y="641.2409638554217" type="line"/>
      <point x="720.1325301204819" y="0.0" type="line"/>
      <point x="777.5542168674699" y="0.0" type="line"/>
      <point x="1134.9277108433735" y="705.0" type="line"/>
      <point x="1069.2409638554216" y="705.0" type="line"/>
      <point x="736.8313253012049" y="43.72289156626506" type="line"/>
      <point x="765.8915662650602" y="43.72289156626506" type="line"/>
      <point x="643.1566265060242" y="705.0" type="line"/>
      <point x="591.1084337349398" y="705.0" type="line"/>
      <point x="256.7831325301205" y="43.72289156626506" type="line"/>
      <point x="289.8433734939759" y="43.72289156626506" type="line"/>
      <point x="168.10843373493975" y="705.0" type="line"/>
      <point x="107.10843373493975" y="705.0" type="line"/>
    </contour>
  </outline>
</glyph>
<glyph name="X" format="2">
  <advance width="640.3855421686746"/>
  <unicode hex="0058"/>
  <anchor x="282.3493975903615" y="0.0" name="bottom"/>
  <anchor x="394.12048192771084" y="705.0" name="top"/>
  <outline>
    <contour>
      <point x="-21.096385542168676" y="0.0" type="line"/>
      <point x="55.71084337349397" y="0.0" type="line"/>
      <point x="348.34939759036143" y="331.0120481927711" type="line"/>
      <point x="325.68674698795184" y="331.0120481927711" type="line"/>
      <point x="517.277108433735" y="0.0" type="line"/>
      <point x="585.2530120481928" y="0.0" type="line"/>
      <point x="366.81927710843377" y="374.89156626506025" type="line"/>
      <point x="366.81927710843377" y="346.7349397590362" type="line"/>
      <point x="683.6265060240964" y="705.0" type="line"/>
      <point x="606.8192771084338" y="705.0" type="line"/>
      <point x="336.20481927710847" y="395.4698795180723" type="line"/>
      <point x="350.7831325301205" y="395.4698795180723" type="line"/>
      <point x="173.04819277108436" y="705.0" type="line"/>
      <point x="105.53012048192771" y="705.0" type="line"/>
      <point x="311.10843373493975" y="351.27710843373495" type="line"/>
      <point x="311.10843373493975" y="372.12048192771084" type="line"/>
    </contour>
  </outline>
</glyph>
<glyph name="Y" format="2">
  <advance width="586.3855421686746"/>
  <unicode hex="0059"/>
  <anchor x="253.80722891566268" y="0.0" name="bottom"/>
  <anchor x="359.43373493975906" y="705.0" name="top"/>
  <anchor x="89.7710843373494" y="705.0" name="topleft"/>
  <outline>
    <contour>
      <point x="222.96385542168673" y="0.0" type="line"/>
      <point x="284.65060240963857" y="0.0" type="line"/>
      <point x="342.65060240963857" y="366.0843373493976" type="line"/>
      <point x="320.3855421686747" y="318.3855421686747" type="line"/>
      <point x="665.8795180722891" y="705.0" type="line"/>
      <point x="590.7590361445783" y="705.0" type="line"/>
      <point x="300.3493975903615" y="379.2168674698795" type="line"/>
      <point x="319.0963855421687" y="379.2168674698795" type="line"/>
      <point x="133.02409638554215" y="705.0" type="line"/>
      <point x="66.27710843373494" y="705.0" type="line"/>
      <point x="287.2530120481928" y="318.3855421686747" type="line"/>
      <point x="280.96385542168673" y="366.0843373493976" type="line"/>
    </contour>
  </outline>
</glyph>
<glyph name="Z" format="2">
  <advance width="581.8674698795181"/>
  <unicode hex="005A"/>
  <anchor x="275.9759036144578" y="0.0" name="bottom"/>
  <anchor x="366.51807228915663" y="705.0" name="top"/>
  <outline>
    <contour>
      <point x="10.313253012048191" y="0.0" type="line"/>
      <point x="521.3253012048193" y="0.0" type="line"/>
      <point x="529.843373493976" y="54.566265060240966" type="line"/>
      <point x="76.37349397590361" y="54.566265060240966" type="line"/>
      <point x="77.06024096385542" y="27.674698795180724" type="line"/>
      <point x="611.5783132530121" y="659.5783132530121" type="line"/>
      <point x="618.8674698795181" y="705.0" type="line"/>
      <point x="122.31325301204818" y="705.0" type="line"/>
      <point x="113.02409638554217" y="650.433734939759" type="line"/>
      <point x="552.0361445783133" y="650.433734939759" type="line"/>
      <point x="551.5783132530121" y="677.5542168674699" type="line"/>
      <point x="17.602409638554214" y="45.65060240963855" type="line"/>
    </contour>
  </outline>
</glyph>
<glyph name="bracketleft" format="2">
  <advance width="297.71084337349396"/>
  <unicode hex="005B"/>
  <outline>
    <contour>
      <point x="43.626506024096386" y="-180.0" type="line"/>
      <point x="224.87951807228916" y="-180.0" type="line"/>
      <point x="232.93975903614458" y="-129.95180722891567" type="line"/>
      <point x="112.6867469879518" y="-129.95180722891567" type="line"/>
      <point x="236.56626506024097" y="654.9518072289156" type="line"/>
      <point x="356.8192771084337" y="654.9518072289156" type="line"/>
      <point x="364.87951807228916" y="705.0" type="line"/>
      <point x="183.6265060240964" y="705.0" type="line"/>
    </contour>
  </outline>
</glyph>
<glyph name="backslash" format="2">
  <advance width="269.04819277108436"/>
  <unicode hex="005C"/>
  <outline>
    <contour>
      <point x="190.4578313253012" y="-61.43373493975904" type="line"/>
      <point x="240.73493975903614" y="-51.45783132530121" type="line"/>
      <point x="110.36144578313252" y="749.433734939759" type="line"/>
      <point x="60.3132530120482" y="739.6867469879518" type="line"/>
    </contour>
  </outline>
</glyph>
<glyph name="bracketright" format="2">
  <advance width="297.71084337349396"/>
  <unicode hex="005D"/>
  <outline>
    <contour>
      <point x="-61.39759036144578" y="-180.0" type="line"/>
      <point x="120.0843373493976" y="-180.0" type="line"/>
      <point x="260.08433734939763" y="705.0" type="line"/>
      <point x="78.83132530120481" y="705.0" type="line"/>
      <point x="70.7710843373494" y="654.9518072289156" type="line"/>
      <point x="191.02409638554215" y="654.9518072289156" type="line"/>
      <point x="67.144578313253" y="-129.95180722891567" type="line"/>
      <point x="-53.33734939759036" y="-129.95180722891567" type="line"/>
    </contour>
  </outline>
</glyph>
<glyph name="asciicircum" format="2">
  <advance width="600.0"/>
  <unicode hex="005E"/>
  <outline>
    <contour>
      <point x="33.855421686746986" y="140.0" type="line"/>
      <point x="91.44578313253012" y="140.0" type="line"/>
      <point x="374.34939759036143" y="596.9397590361446" type="line"/>
      <point x="343.421686746988" y="596.9397590361446" type="line"/>
      <point x="483.0120481927711" y="140.0" type="line"/>
      <point x="534.144578313253" y="140.0" type="line"/>
      <point x="385.6385542168675" y="628.0" type="line"/>
      <point x="336.3614457831325" y="628.0" type="line"/>
    </contour>
  </outline>
</glyph>
<glyph name="underscore" format="2">
  <advance width="500.0"/>
  <unicode hex="005F"/>
  <outline>
    <contour>
      <point x="-24.602409638554217" y="-42.614457831325296" type="line"/>
      <point x="434.3975903614458" y="-42.614457831325296" type="line"/>
      <point x="441.0" y="0.0" type="line"/>
      <point x="-18.0" y="0.0" type="line"/>
    </contour>
  </outline>
</glyph>
<glyph name="a" format="2">
  <advance width="521.5542168674699"/>
  <unicode hex="0061"/>
  <anchor x="231.66265060240963" y="0.0" name="bottom"/>
  <anchor x="397.12048192771084" y="0.0" name="ogonek"/>
  <anchor x="302.289156626506" y="484.0" name="top"/>
  <outline>
    <contour>
      <point x="202.25301204819277" y="-8.457831325301205" type="curve" smooth="yes"/>
      <point x="273.33734939759034" y="-8.457831325301205"/>
      <point x="347.5903614457831" y="30.397590361445786"/>
      <point x="374.27710843373495" y="113.25301204819277" type="curve"/>
      <point x="364.2771084337349" y="113.25301204819277" type="line"/>
      <point x="346.73493975903614" y="0.0" type="line"/>
      <point x="405.13253012048193" y="0.0" type="line"/>
      <point x="452.2168674698795" y="296.27710843373495" type="line" smooth="yes"/>
      <point x="471.4457831325301" y="417.87951807228916"/>
      <point x="418.9879518072289" y="493.6024096385542"/>
      <point x="292.83132530120486" y="493.6024096385542" type="curve" smooth="yes"/>
      <point x="223.3132530120482" y="493.6024096385542"/>
      <point x="150.10843373493975" y="471.3734939759036"/>
      <point x="103.19277108433735" y="437.144578313253" type="curve"/>
      <point x="123.48192771084338" y="389.6987951807229" type="line"/>
      <point x="175.1686746987952" y="426.0120481927711"/>
      <point x="227.08433734939757" y="442.0120481927711"/>
      <point x="287.6265060240964" y="442.0120481927711" type="curve" smooth="yes"/>
      <point x="376.27710843373495" y="442.0120481927711"/>
      <point x="409.3614457831325" y="396.9879518072289"/>
      <point x="395.27710843373495" y="313.39759036144574" type="curve" smooth="yes"/>
      <point x="375.50602409638554" y="190.5421686746988" type="line" smooth="yes"/>
      <point x="360.65060240963857" y="95.86746987951808"/>
      <point x="289.60240963855426" y="40.53012048192771"/>
      <point x="213.49397590361446" y="40.53012048192771" type="curve" smooth="yes"/>
      <point x="158.46987951807228" y="40.53012048192771"/>
      <point x="108.59036144578313" y="74.2409638554217"/>
      <point x="108.59036144578313" y="138.97590361445782" type="curve" smooth="yes"/>
      <point x="108.59036144578313" y="209.71084337349396"/>
      <point x="162.6987951807229" y="233.42168674698794"/>
      <point x="333.13253012048193" y="233.42168674698794" type="curve" smooth="yes"/>
      <point x="393.04819277108436" y="233.42168674698794" type="line"/>
      <point x="400.1927710843374" y="278.43373493975906" type="line"/>
      <point x="319.4216867469879" y="278.43373493975906" type="line" smooth="yes"/>
      <point x="127.10843373493975" y="278.43373493975906"/>
      <point x="44.42168674698795" y="237.06024096385542"/>
      <point x="44.42168674698795" y="135.6024096385542" type="curve" smooth="yes"/>
      <point x="44.42168674698795" y="50.06024096385542"/>
      <point x="119.19277108433734" y="-8.457831325301205"/>
    </contour>
  </outline>
</glyph>
<glyph name="b" format="2">
  <advance width="575.3253012048193"/>
  <unicode hex="0062"/>
  <anchor x="270.31325301204816" y="0.0" name="bottom"/>
  <anchor x="375.9759036144578" y="705.0" name="top"/>
  <outline>
    <contour>
      <point x="284.8433734939759" y="-8.457831325301205" type="curve" smooth="yes"/>
      <point x="441.69879518072287" y="-8.457831325301205"/>
      <point x="527.7590361445783" y="128.1686746987952"/>
      <point x="527.7590361445783" y="286.4578313253012" type="curve" smooth="yes"/>
      <point x="527.7590361445783" y="414.144578313253"/>
      <point x="452.4457831325301" y="493.6024096385542"/>
      <point x="338.90361445783134" y="493.6024096385542" type="curve" smooth="yes"/>
      <point x="251.87951807228916" y="493.6024096385542"/>
      <point x="186.02409638554218" y="448.66265060240966"/>
      <point x="151.56626506024097" y="376.95180722891564" type="curve"/>
      <point x="163.10843373493975" y="376.95180722891564" type="line"/>
      <point x="215.19277108433735" y="705.0" type="line"/>
      <point x="154.19277108433735" y="705.0" type="line"/>
      <point x="42.192771084337345" y="0.0" type="line"/>
      <point x="102.50602409638553" y="0.0" type="line"/>
      <point x="120.59036144578313" y="116.27710843373494" type="line"/>
      <point x="114.04819277108435" y="116.27710843373494" type="line"/>
      <point x="137.04819277108433" y="31.397590361445783"/>
      <point x="205.2168674698795" y="-8.457831325301205"/>
    </contour>
    <contour>
      <point x="281.12048192771084" y="43.36144578313253" type="curve" smooth="yes"/>
      <point x="191.75903614457832" y="43.36144578313253"/>
      <point x="138.65060240963857" y="97.1566265060241"/>
      <point x="138.65060240963857" y="200.06024096385542" type="curve" smooth="yes"/>
      <point x="138.65060240963857" y="332.65060240963857"/>
      <point x="203.75903614457832" y="441.7831325301205"/>
      <point x="323.289156626506" y="441.7831325301205" type="curve" smooth="yes"/>
      <point x="412.65060240963857" y="441.7831325301205"/>
      <point x="465.7590361445783" y="387.9879518072289"/>
      <point x="465.7590361445783" y="285.0843373493976" type="curve" smooth="yes"/>
      <point x="465.7590361445783" y="152.49397590361446"/>
      <point x="400.65060240963857" y="43.36144578313253"/>
    </contour>
  </outline>
</glyph>
<glyph name="c" format="2">
  <advance width="458.89156626506025"/>
  <unicode hex="0063"/>
  <anchor x="236.51807228915663" y="0.0" name="bottom"/>
  <anchor x="299.66265060240966" y="484.0" name="top"/>
  <outline>
    <contour>
      <point x="253.03614457831327" y="-8.457831325301205" type="curve" smooth="yes"/>
      <point x="309.26506024096386" y="-8.457831325301205"/>
      <point x="372.86746987951807" y="13.626506024096386"/>
      <point x="411.6385542168675" y="50.48192771084337" type="curve"/>
      <point x="390.34939759036143" y="97.07228915662651" type="line"/>
      <point x="350.7228915662651" y="60.36144578313253"/>
      <point x="301.09638554216866" y="43.81927710843374"/>
      <point x="258.6987951807229" y="43.81927710843374" type="curve" smooth="yes"/>
      <point x="153.73493975903614" y="43.81927710843374"/>
      <point x="111.02409638554217" y="107.1566265060241"/>
      <point x="111.02409638554217" y="204.74698795180723" type="curve" smooth="yes"/>
      <point x="111.02409638554217" y="320.65060240963857"/>
      <point x="165.59036144578315" y="441.32530120481925"/>
      <point x="301.1807228915663" y="441.32530120481925" type="curve" smooth="yes"/>
      <point x="356.433734939759" y="441.32530120481925"/>
      <point x="400.43373493975906" y="423.7831325301205"/>
      <point x="435.8313253012048" y="387.30120481927713" type="curve"/>
      <point x="460.95180722891564" y="431.89156626506025" type="line"/>
      <point x="426.8072289156627" y="468.7469879518072"/>
      <point x="365.12048192771084" y="493.6024096385542"/>
      <point x="300.89156626506025" y="493.6024096385542" type="curve" smooth="yes"/>
      <point x="124.0" y="493.6024096385542"/>
      <point x="48.566265060240966" y="346.43373493975906"/>
      <point x="48.566265060240966" y="204.5180722891566" type="curve" smooth="yes"/>
      <point x="48.566265060240966" y="78.4578313253012"/>
      <point x="114.0" y="-8.457831325301205"/>
    </contour>
  </outline>
</glyph>
<glyph name="d" format="2">
  <advance width="575.3253012048193"/>
  <unicode hex="0064"/>
  <anchor x="254.12048192771087" y="0.0" name="bottom"/>
  <anchor x="290.83132530120486" y="245.2289156626506" name="center"/>
  <anchor x="469.51807228915663" y="581.8313253012049" name="stroke"/>
  <anchor x="334.3253012048193" y="509.4096385542169" name="top"/>
  <anchor x="615.843373493976" y="705.0" name="topright"/>
  <outline>
    <contour>
      <point x="236.19277108433732" y="-8.457831325301205" type="curve" smooth="yes"/>
      <point x="323.21686746987956" y="-8.457831325301205"/>
      <point x="389.0722891566265" y="36.71084337349398"/>
      <point x="423.5301204819277" y="108.19277108433735" type="curve"/>
      <point x="412.9036144578313" y="108.19277108433735" type="line"/>
      <point x="395.5903614457831" y="0.0" type="line"/>
      <point x="455.90361445783134" y="0.0" type="line"/>
      <point x="567.9036144578313" y="705.0" type="line"/>
      <point x="506.90361445783134" y="705.0" type="line"/>
      <point x="454.04819277108436" y="369.09638554216866" type="line"/>
      <point x="461.04819277108436" y="368.86746987951807" type="line"/>
      <point x="438.04819277108436" y="453.7469879518072"/>
      <point x="369.87951807228916" y="493.6024096385542"/>
      <point x="290.2530120481928" y="493.6024096385542" type="curve" smooth="yes"/>
      <point x="133.6265060240964" y="493.6024096385542"/>
      <point x="47.566265060240966" y="357.2048192771084"/>
      <point x="47.566265060240966" y="198.6867469879518" type="curve" smooth="yes"/>
      <point x="47.566265060240966" y="71.22891566265059"/>
      <point x="122.87951807228916" y="-8.457831325301205"/>
    </contour>
    <contour>
      <point x="252.03614457831324" y="43.36144578313253" type="curve" smooth="yes"/>
      <point x="162.67469879518072" y="43.36144578313253"/>
      <point x="109.56626506024097" y="97.1566265060241"/>
      <point x="109.56626506024097" y="200.06024096385542" type="curve" smooth="yes"/>
      <point x="109.56626506024097" y="332.65060240963857"/>
      <point x="174.67469879518072" y="441.7831325301205"/>
      <point x="294.2048192771084" y="441.7831325301205" type="curve" smooth="yes"/>
      <point x="383.566265060241" y="441.7831325301205"/>
      <point x="436.67469879518075" y="387.9879518072289"/>
      <point x="436.67469879518075" y="285.0843373493976" type="curve" smooth="yes"/>
      <point x="436.67469879518075" y="152.49397590361446"/>
      <point x="371.566265060241" y="43.36144578313253"/>
    </contour>
  </outline>
</glyph>
<glyph name="e" format="2">
  <advance width="527.5783132530121"/>
  <unicode hex="0065"/>
  <anchor x="247.289156626506" y="0.0" name="bottom"/>
  <anchor x="311.4698795180723" y="0.0" name="ogonek"/>
  <anchor x="308.433734939759" y="484.0" name="top"/>
  <outline>
    <contour>
      <point x="265.34939759036143" y="-8.457831325301205" type="curve" smooth="yes"/>
      <point x="333.4096385542169" y="-8.457831325301205"/>
      <point x="406.6385542168675" y="14.542168674698795"/>
      <point x="450.5542168674699" y="59.168674698795186" type="curve"/>
      <point x="426.49397590361446" y="101.8433734939759" type="line"/>
      <point x="381.4096385542169" y="60.13253012048193"/>
      <point x="328.95180722891564" y="43.36144578313253"/>
      <point x="266.32530120481925" y="43.36144578313253" type="curve" smooth="yes"/>
      <point x="150.36144578313252" y="43.36144578313253"/>
      <point x="90.87951807228914" y="124.40963855421687"/>
      <point x="110.73493975903614" y="245.54216867469881" type="curve" smooth="yes"/>
      <point x="114.19277108433734" y="266.51807228915663" type="line" smooth="yes"/>
      <point x="129.04819277108433" y="352.9397590361446"/>
      <point x="183.0722891566265" y="444.8433734939759"/>
      <point x="301.3734939759036" y="444.8433734939759" type="curve" smooth="yes"/>
      <point x="411.04819277108436" y="444.8433734939759"/>
      <point x="446.44578313253015" y="362.79518072289153"/>
      <point x="432.3614457831326" y="262.2048192771084" type="curve"/>
      <point x="450.9036144578313" y="274.89156626506025" type="line"/>
      <point x="99.96385542168674" y="274.89156626506025" type="line"/>
      <point x="93.04819277108435" y="229.87951807228916" type="line"/>
      <point x="481.0963855421687" y="229.87951807228916" type="line"/>
      <point x="484.0963855421687" y="249.710843373494" type="line" smooth="yes"/>
      <point x="503.1807228915663" y="373.8313253012048"/>
      <point x="451.578313253012" y="493.6024096385542"/>
      <point x="302.3734939759036" y="493.6024096385542" type="curve" smooth="yes"/>
      <point x="142.60240963855424" y="493.6024096385542"/>
      <point x="47.795180722891565" y="358.8072289156627"/>
      <point x="47.795180722891565" y="202.74698795180723" type="curve" smooth="yes"/>
      <point x="47.795180722891565" y="71.6024096385542"/>
      <point x="130.45783132530119" y="-8.457831325301205"/>
    </contour>
  </outline>
</glyph>
<glyph name="f" format="2">
  <advance width="319.27710843373495"/>
  <unicode hex="0066"/>
  <anchor x="95.78313253012048" y="0.0" name="bottom"/>
  <anchor x="207.55421686746988" y="705.0" name="top"/>
  <outline>
    <contour>
      <point x="65.39759036144578" y="0.0" type="line"/>
      <point x="126.3975903614458" y="0.0" type="line"/>
      <point x="195.56626506024097" y="435.86746987951807" type="line"/>
      <point x="338.67469879518075" y="435.86746987951807" type="line"/>
      <point x="346.73493975903614" y="485.144578313253" type="line"/>
      <point x="195.48192771084337" y="485.144578313253" type="line"/>
      <point x="201.3975903614458" y="477.45783132530124" type="line"/>
      <point x="208.93975903614458" y="525.0240963855422" type="line" smooth="yes"/>
      <point x="222.02409638554218" y="607.7590361445783"/>
      <point x="266.5060240963856" y="649.3253012048193"/>
      <point x="349.9879518072289" y="655.0963855421687" type="curve" smooth="yes"/>
      <point x="397.3614457831325" y="658.0963855421687" type="line"/>
      <point x="396.27710843373495" y="707.6867469879518" type="line"/>
      <point x="350.3855421686747" y="705.4578313253012" type="line" smooth="yes"/>
      <point x="233.85542168674698" y="700.2289156626506"/>
      <point x="165.1686746987952" y="635.1686746987951"/>
      <point x="148.710843373494" y="528.4216867469879" type="curve" smooth="yes"/>
      <point x="140.3975903614458" y="474.4578313253012" type="line"/>
      <point x="151.77108433734938" y="485.144578313253" type="line"/>
      <point x="47.08433734939759" y="485.144578313253" type="line"/>
      <point x="39.02409638554217" y="435.86746987951807" type="line"/>
      <point x="134.56626506024097" y="435.86746987951807" type="line"/>
    </contour>
  </outline>
</glyph>
<glyph name="g" format="2">
  <advance width="577.7831325301205"/>
  <unicode hex="0067"/>
  <anchor x="328.0602409638554" y="484.0" name="top"/>
  <outline>
    <contour>
      <point x="244.43373493975906" y="-188.4578313253012" type="curve" smooth="yes"/>
      <point x="367.6144578313253" y="-188.4578313253012"/>
      <point x="438.04819277108436" y="-124.79518072289156"/>
      <point x="459.27710843373495" y="7.493975903614459" type="curve" smooth="yes"/>
      <point x="535.3614457831325" y="485.144578313253" type="line"/>
      <point x="475.04819277108436" y="485.144578313253" type="line"/>
      <point x="456.9638554216868" y="369.3253012048193" type="line"/>
      <point x="464.1927710843373" y="368.86746987951807" type="line"/>
      <point x="441.1927710843373" y="453.7469879518072"/>
      <point x="373.0240963855422" y="493.6024096385542"/>
      <point x="292.16867469879514" y="493.6024096385542" type="curve" smooth="yes"/>
      <point x="134.5421686746988" y="493.6024096385542"/>
      <point x="47.795180722891565" y="356.7469879518072"/>
      <point x="47.795180722891565" y="209.144578313253" type="curve" smooth="yes"/>
      <point x="47.795180722891565" y="89.5421686746988"/>
      <point x="124.25301204819277" y="11.228915662650602"/>
      <point x="239.93975903614455" y="11.228915662650602" type="curve" smooth="yes"/>
      <point x="327.50602409638554" y="11.228915662650602"/>
      <point x="394.04819277108436" y="55.71084337349398"/>
      <point x="427.5903614457831" y="127.65060240963855" type="curve"/>
      <point x="419.3614457831325" y="128.65060240963857" type="line"/>
      <point x="399.73493975903614" y="4.349397590361445" type="line" smooth="yes"/>
      <point x="384.4216867469879" y="-91.8433734939759"/>
      <point x="327.2530120481928" y="-136.63855421686748"/>
      <point x="238.7710843373494" y="-136.63855421686748" type="curve" smooth="yes"/>
      <point x="163.83132530120483" y="-136.63855421686748"/>
      <point x="117.3132530120482" y="-112.09638554216868"/>
      <point x="57.7710843373494" y="-68.9277108433735" type="curve"/>
      <point x="34.42168674698795" y="-115.83132530120481" type="line"/>
      <point x="88.16867469879517" y="-158.06024096385542"/>
      <point x="156.9156626506024" y="-188.4578313253012"/>
    </contour>
    <contour>
      <point x="253.26506024096383" y="63.04819277108434" type="curve" smooth="yes"/>
      <point x="162.67469879518072" y="63.04819277108434"/>
      <point x="109.56626506024097" y="116.61445783132531"/>
      <point x="109.79518072289157" y="210.74698795180723" type="curve" smooth="yes"/>
      <point x="110.02409638554217" y="332.6506024096385"/>
      <point x="174.90361445783134" y="441.7831325301205"/>
      <point x="295.6626506024096" y="441.7831325301205" type="curve" smooth="yes"/>
      <point x="386.48192771084337" y="441.7831325301205"/>
      <point x="439.8192771084337" y="387.9879518072289"/>
      <point x="439.5903614457831" y="295.0843373493976" type="curve" smooth="yes"/>
      <point x="439.3614457831325" y="172.18072289156626"/>
      <point x="374.2530120481928" y="63.04819277108434"/>
    </contour>
  </outline>
</glyph>
<glyph name="h" format="2">
  <advance width="560.3253012048193"/>
  <unicode hex="0068"/>
  <anchor x="248.97590361445785" y="0.0" name="bottom"/>
  <anchor x="280.89156626506025" y="245.6867469879518" name="center"/>
  <anchor x="243.66265060240963" y="352.7710843373494" name="dot"/>
  <anchor x="215.03614457831324" y="581.8313253012049" name="stroke"/>
  <anchor x="354.20481927710847" y="705.0" name="top"/>
  <anchor x="253.44578313253012" y="705.0" name="topright"/>
  <outline>
    <contour>
      <point x="42.192771084337345" y="0.0" type="line"/>
      <point x="103.19277108433734" y="0.0" type="line"/>
      <point x="145.19277108433735" y="263.77108433734935" type="line" smooth="yes"/>
      <point x="162.04819277108433" y="371.13253012048193"/>
      <point x="223.9277108433735" y="441.09638554216866"/>
      <point x="330.6867469879518" y="441.09638554216866" type="curve" smooth="yes"/>
      <point x="411.73493975903614" y="441.09638554216866"/>
      <point x="444.7590361445783" y="393.30120481927713"/>
      <point x="428.90361445783134" y="294.855421686747" type="curve" smooth="yes"/>
      <point x="382.13253012048193" y="0.0" type="line"/>
      <point x="443.13253012048193" y="0.0" type="line"/>
      <point x="489.90361445783134" y="294.54216867469876" type="line" smooth="yes"/>
      <point x="511.13253012048193" y="429.60240963855426"/>
      <point x="450.6746987951807" y="493.6024096385542"/>
      <point x="342.90361445783134" y="493.6024096385542" type="curve" smooth="yes"/>
      <point x="250.42168674698794" y="493.6024096385542"/>
      <point x="183.33734939759037" y="447.66265060240966"/>
      <point x="150.33734939759037" y="369.95180722891564" type="curve"/>
      <point x="162.10843373493975" y="369.95180722891564" type="line"/>
      <point x="215.19277108433735" y="705.0" type="line"/>
      <point x="154.19277108433735" y="705.0" type="line"/>
    </contour>
  </outline>
</glyph>
<glyph name="i" format="2">
  <advance width="221.8433734939759"/>
  <unicode hex="0069"/>
  <anchor x="72.03614457831326" y="0.0" name="bottom"/>
  <anchor x="96.46987951807228" y="0.0" name="ogonek"/>
  <outline>
    <contour>
      <point x="129.42168674698794" y="613.277108433735" type="line"/>
      <point x="210.59036144578315" y="613.277108433735" type="line"/>
      <point x="222.87951807228916" y="689.7831325301205" type="line"/>
      <point x="141.71084337349396" y="689.7831325301205" type="line"/>
    </contour>
    <contour>
      <point x="41.421686746987945" y="0.0" type="line"/>
      <point x="102.42168674698794" y="0.0" type="line"/>
      <point x="179.65060240963854" y="485.144578313253" type="line"/>
      <point x="118.65060240963855" y="485.144578313253" type="line"/>
    </contour>
  </outline>
</glyph>
<glyph name="j" format="2">
  <advance width="225.0722891566265"/>
  <unicode hex="006A"/>
  <outline>
    <contour>
      <point x="132.19277108433732" y="613.277108433735" type="line"/>
      <point x="213.36144578313252" y="613.277108433735" type="line"/>
      <point x="225.65060240963854" y="689.7831325301205" type="line"/>
      <point x="144.48192771084337" y="689.7831325301205" type="line"/>
    </contour>
    <contour>
      <point x="-114.87951807228916" y="-193.0" type="line"/>
      <point x="-71.42168674698794" y="-190.0" type="line" smooth="yes"/>
      <point x="26.566265060240962" y="-183.3132530120482"/>
      <point x="85.87951807228917" y="-128.0843373493976"/>
      <point x="102.79518072289157" y="-18.44578313253012" type="curve" smooth="yes"/>
      <point x="182.87951807228916" y="485.144578313253" type="line"/>
      <point x="121.87951807228916" y="485.144578313253" type="line"/>
      <point x="42.10843373493976" y="-18.566265060240966" type="line" smooth="yes"/>
      <point x="30.024096385542165" y="-93.07228915662651"/>
      <point x="-9.542168674698793" y="-134.63855421686748"/>
      <point x="-75.87951807228916" y="-139.40963855421688" type="curve" smooth="yes"/>
      <point x="-118.25301204819279" y="-142.86746987951807" type="line"/>
    </contour>
  </outline>
</glyph>
<glyph name="k" format="2">
  <advance width="483.56626506024094"/>
  <unicode hex="006B"/>
  <anchor x="208.6144578313253" y="0.0" name="bottom"/>
  <anchor x="353.9759036144578" y="705.0" name="top"/>
  <outline>
    <contour>
      <point x="42.421686746987945" y="0.0" type="line"/>
      <point x="103.42168674698794" y="0.0" type="line"/>
      <point x="139.96385542168673" y="233.7951807228916" type="line"/>
      <point x="141.96385542168673" y="233.7951807228916" type="line"/>
      <point x="372.5421686746988" y="0.0" type="line"/>
      <point x="448.9156626506024" y="0.0" type="line"/>
      <point x="186.81927710843374" y="267.6626506024096" type="line"/>
      <point x="182.19277108433735" y="225.2289156626506" type="line"/>
      <point x="498.43373493975906" y="485.144578313253" type="line"/>
      <point x="418.06024096385545" y="485.144578313253" type="line"/>
      <point x="147.10843373493975" y="264.8072289156627" type="line"/>
      <point x="145.10843373493975" y="264.8072289156627" type="line"/>
      <point x="214.42168674698794" y="705.0" type="line"/>
      <point x="153.42168674698794" y="705.0" type="line"/>
    </contour>
  </outline>
</glyph>
<glyph name="l" format="2">
  <advance width="285.0722891566265"/>
  <unicode hex="006C"/>
  <anchor x="145.97590361445785" y="0.0" name="bottom"/>
  <anchor x="139.03614457831324" y="357.0" name="center"/>
  <anchor x="270.3132530120482" y="357.0" name="dot"/>
  <anchor x="184.57831325301206" y="705.0" name="top"/>
  <anchor x="262.13253012048193" y="705.0" name="topright"/>
  <outline>
    <contour>
      <point x="182.03614457831324" y="-8.457831325301205" type="curve" smooth="yes"/>
      <point x="198.32530120481928" y="-8.457831325301205"/>
      <point x="219.46987951807228" y="-6.228915662650603"/>
      <point x="235.6144578313253" y="-1.0" type="curve"/>
      <point x="246.44578313253012" y="50.50602409638554" type="line"/>
      <point x="229.9036144578313" y="46.963855421686745"/>
      <point x="214.1325301204819" y="44.96385542168675"/>
      <point x="197.81927710843374" y="44.96385542168675" type="curve" smooth="yes"/>
      <point x="137.56626506024097" y="44.96385542168675"/>
      <point x="114.48192771084337" y="74.81927710843374"/>
      <point x="126.56626506024095" y="150.78313253012047" type="curve" smooth="yes"/>
      <point x="214.42168674698794" y="705.0" type="line"/>
      <point x="153.42168674698794" y="705.0" type="line"/>
      <point x="65.56626506024095" y="150.55421686746988" type="line" smooth="yes"/>
      <point x="48.87951807228915" y="45.51807228915663"/>
      <point x="92.16867469879517" y="-8.457831325301205"/>
    </contour>
  </outline>
</glyph>
<glyph name="m" format="2">
  <advance width="846.9277108433735"/>
  <unicode hex="006D"/>
  <anchor x="385.578313253012" y="0.0" name="bottom"/>
  <anchor x="462.34939759036143" y="484.0" name="top"/>
  <outline>
    <contour>
      <point x="44.192771084337345" y="0.0" type="line"/>
      <point x="105.19277108433734" y="0.0" type="line"/>
      <point x="147.19277108433735" y="263.7710843373494" type="line" smooth="yes"/>
      <point x="165.04819277108433" y="374.67469879518075"/>
      <point x="225.46987951807228" y="441.09638554216866"/>
      <point x="313.8313253012048" y="441.09638554216866" type="curve" smooth="yes"/>
      <point x="388.87951807228916" y="441.09638554216866"/>
      <point x="417.5903614457831" y="394.30120481927713"/>
      <point x="402.73493975903614" y="299.3975903614458" type="curve" smooth="yes"/>
      <point x="354.96385542168673" y="0.0" type="line"/>
      <point x="415.96385542168673" y="0.0" type="line"/>
      <point x="457.96385542168673" y="263.7710843373494" type="line" smooth="yes"/>
      <point x="475.8192771084337" y="374.67469879518075"/>
      <point x="536.0120481927711" y="441.09638554216866"/>
      <point x="624.6024096385541" y="441.09638554216866" type="curve" smooth="yes"/>
      <point x="699.6506024096385" y="441.09638554216866"/>
      <point x="728.3614457831325" y="394.30120481927713"/>
      <point x="713.5060240963855" y="299.3975903614458" type="curve" smooth="yes"/>
      <point x="666.7349397590361" y="0.0" type="line"/>
      <point x="727.7349397590361" y="0.0" type="line"/>
      <point x="774.5060240963855" y="294.54216867469876" type="line" smooth="yes"/>
      <point x="795.7349397590361" y="430.60240963855426"/>
      <point x="738.5903614457832" y="493.6024096385542"/>
      <point x="637.3614457831326" y="493.6024096385542" type="curve" smooth="yes"/>
      <point x="548.9638554216867" y="493.6024096385542"/>
      <point x="484.4216867469879" y="446.89156626506025"/>
      <point x="453.50602409638554" y="369.49397590361446" type="curve"/>
      <point x="465.73493975903614" y="367.34939759036143" type="line"/>
      <point x="456.6746987951807" y="449.7469879518072"/>
      <point x="405.3614457831325" y="493.6024096385542"/>
      <point x="327.27710843373495" y="493.6024096385542" type="curve" smooth="yes"/>
      <point x="248.7951807228916" y="493.6024096385542"/>
      <point x="186.33734939759034" y="449.12048192771084"/>
      <point x="151.65060240963857" y="369.26506024096386" type="curve"/>
      <point x="161.65060240963857" y="368.49397590361446" type="line"/>
      <point x="180.96385542168676" y="485.144578313253" type="line"/>
      <point x="121.42168674698794" y="485.144578313253" type="line"/>
    </contour>
  </outline>
</glyph>
<glyph name="n" format="2">
  <advance width="560.3253012048193"/>
  <unicode hex="006E"/>
  <anchor x="247.20481927710844" y="0.0" name="bottom"/>
  <anchor x="318.7469879518072" y="484.0" name="top"/>
  <outline>
    <contour>
      <point x="42.192771084337345" y="0.0" type="line"/>
      <point x="103.19277108433734" y="0.0" type="line"/>
      <point x="145.19277108433735" y="263.77108433734935" type="line" smooth="yes"/>
      <point x="162.04819277108433" y="371.13253012048193"/>
      <point x="223.9277108433735" y="441.09638554216866"/>
      <point x="330.6867469879518" y="441.09638554216866" type="curve" smooth="yes"/>
      <point x="411.73493975903614" y="441.09638554216866"/>
      <point x="444.7590361445783" y="393.30120481927713"/>
      <point x="428.90361445783134" y="294.855421686747" type="curve" smooth="yes"/>
      <point x="382.13253012048193" y="0.0" type="line"/>
      <point x="443.13253012048193" y="0.0" type="line"/>
      <point x="489.90361445783134" y="294.54216867469876" type="line" smooth="yes"/>
      <point x="511.13253012048193" y="429.6024096385542"/>
      <point x="450.6746987951807" y="493.6024096385542"/>
      <point x="342.90361445783134" y="493.6024096385542" type="curve" smooth="yes"/>
      <point x="250.42168674698794" y="493.6024096385542"/>
      <point x="183.33734939759037" y="447.66265060240966"/>
      <point x="150.33734939759037" y="369.95180722891564" type="curve"/>
      <point x="160.65060240963857" y="369.95180722891564" type="line"/>
      <point x="178.96385542168676" y="485.144578313253" type="line"/>
      <point x="119.42168674698794" y="485.144578313253" type="line"/>
    </contour>
  </outline>
</glyph>
<glyph name="p" format="2">
  <advance width="575.3253012048193"/>
  <unicode hex="0070"/>
  <anchor x="246.89156626506025" y="0.0" name="bottom"/>
  <anchor x="323.66265060240966" y="484.0" name="top"/>
  <outline>
    <contour>
      <point x="13.421686746987945" y="-180.0" type="line"/>
      <point x="74.42168674698794" y="-180.0" type="line"/>
      <point x="121.50602409638553" y="116.27710843373494" type="line"/>
      <point x="114.04819277108435" y="116.27710843373494" type="line"/>
      <point x="137.04819277108436" y="31.39759036144578"/>
      <point x="205.21686746987953" y="-8.457831325301205"/>
      <point x="284.8433734939759" y="-8.457831325301205" type="curve" smooth="yes"/>
      <point x="440.92771084337346" y="-8.457831325301205"/>
      <point x="527.7590361445783" y="128.1686746987952"/>
      <point x="527.7590361445783" y="284.91566265060237" type="curve" smooth="yes"/>
      <point x="527.7590361445783" y="414.91566265060237"/>
      <point x="453.2168674698795" y="493.6024096385542"/>
      <point x="338.90361445783134" y="493.6024096385542" type="curve" smooth="yes"/>
      <point x="251.87951807228916" y="493.6024096385542"/>
      <point x="186.02409638554218" y="448.6626506024096"/>
      <point x="151.56626506024097" y="376.9518072289157" type="curve"/>
      <point x="161.87951807228916" y="376.9518072289157" type="line"/>
      <point x="178.96385542168673" y="485.144578313253" type="line"/>
      <point x="118.65060240963855" y="485.144578313253" type="line"/>
    </contour>
    <contour>
      <point x="281.12048192771084" y="43.36144578313253" type="curve" smooth="yes"/>
      <point x="191.75903614457832" y="43.36144578313253"/>
      <point x="138.65060240963857" y="97.1566265060241"/>
      <point x="138.65060240963857" y="200.06024096385542" type="curve" smooth="yes"/>
      <point x="138.65060240963857" y="332.65060240963857"/>
      <point x="203.75903614457832" y="441.7831325301205"/>
      <point x="323.289156626506" y="441.7831325301205" type="curve" smooth="yes"/>
      <point x="412.65060240963857" y="441.7831325301205"/>
      <point x="465.7590361445783" y="387.9879518072289"/>
      <point x="465.7590361445783" y="285.0843373493976" type="curve" smooth="yes"/>
      <point x="465.7590361445783" y="152.49397590361446"/>
      <point x="400.65060240963857" y="43.36144578313253"/>
    </contour>
  </outline>
</glyph>
<glyph name="q" format="2">
  <advance width="575.3253012048193"/>
  <unicode hex="0071"/>
  <anchor x="247.34939759036143" y="0.0" name="bottom"/>
  <anchor x="324.34939759036143" y="484.0" name="top"/>
  <outline>
    <contour>
      <point x="366.90361445783134" y="-180.0" type="line"/>
      <point x="427.90361445783134" y="-180.0" type="line"/>
      <point x="533.1325301204819" y="485.144578313253" type="line"/>
      <point x="472.8192771084337" y="485.144578313253" type="line"/>
      <point x="454.73493975903614" y="369.3253012048193" type="line"/>
      <point x="461.04819277108436" y="368.86746987951807" type="line"/>
      <point x="438.0481927710843" y="453.7469879518072"/>
      <point x="369.87951807228916" y="493.6024096385542"/>
      <point x="290.2530120481928" y="493.6024096385542" type="curve" smooth="yes"/>
      <point x="133.6265060240964" y="493.6024096385542"/>
      <point x="47.566265060240966" y="357.2048192771084"/>
      <point x="47.566265060240966" y="198.6867469879518" type="curve" smooth="yes"/>
      <point x="47.566265060240966" y="71.22891566265059"/>
      <point x="122.87951807228916" y="-8.457831325301205"/>
      <point x="236.19277108433732" y="-8.457831325301205" type="curve" smooth="yes"/>
      <point x="323.2168674698795" y="-8.457831325301205"/>
      <point x="389.0722891566265" y="36.71084337349397"/>
      <point x="423.5301204819277" y="108.19277108433734" type="curve"/>
      <point x="412.2168674698795" y="108.19277108433734" type="line"/>
    </contour>
    <contour>
      <point x="252.03614457831324" y="43.36144578313253" type="curve" smooth="yes"/>
      <point x="162.67469879518072" y="43.36144578313253"/>
      <point x="109.56626506024097" y="97.1566265060241"/>
      <point x="109.56626506024097" y="200.06024096385542" type="curve" smooth="yes"/>
      <point x="109.56626506024097" y="332.65060240963857"/>
      <point x="174.67469879518072" y="441.7831325301205"/>
      <point x="294.2048192771084" y="441.7831325301205" type="curve" smooth="yes"/>
      <point x="383.566265060241" y="441.7831325301205"/>
      <point x="436.67469879518075" y="387.9879518072289"/>
      <point x="436.67469879518075" y="285.0843373493976" type="curve" smooth="yes"/>
      <point x="436.67469879518075" y="152.49397590361446"/>
      <point x="371.566265060241" y="43.36144578313253"/>
    </contour>
  </outline>
</glyph>
<glyph name="r" format="2">
  <advance width="341.87951807228916"/>
  <unicode hex="0072"/>
  <anchor x="73.03614457831326" y="0.0" name="bottom"/>
  <anchor x="244.49397590361446" y="486.7710843373494" name="top"/>
  <outline>
    <contour>
      <point x="42.192771084337345" y="0.0" type="line"/>
      <point x="103.65060240963855" y="0.0" type="line"/>
      <point x="146.73493975903614" y="274.0481927710843" type="line" smooth="yes"/>
      <point x="162.04819277108433" y="369.1566265060241"/>
      <point x="205.3012048192771" y="429.34939759036143"/>
      <point x="319.9759036144578" y="439.66265060240966" type="curve" smooth="yes"/>
      <point x="363.9638554216868" y="443.8072289156627" type="line"/>
      <point x="361.56626506024094" y="497.3734939759036" type="line"/>
      <point x="324.73493975903614" y="494.3734939759036" type="line" smooth="yes"/>
      <point x="231.65060240963857" y="486.83132530120486"/>
      <point x="174.73493975903617" y="439.3734939759036"/>
      <point x="149.96385542168676" y="370.2289156626506" type="curve"/>
      <point x="160.73493975903617" y="370.2289156626506" type="line"/>
      <point x="178.96385542168676" y="485.144578313253" type="line"/>
      <point x="119.42168674698794" y="485.144578313253" type="line"/>
    </contour>
  </outline>
</glyph>
<glyph name="s" format="2">
  <advance width="477.9759036144578"/>
  <unicode hex="0073"/>
  <anchor x="209.51807228915663" y="0.0" name="bottom"/>
  <anchor x="269.8313253012048" y="484.0" name="top"/>
  <outline>
    <contour>
      <point x="221.3734939759036" y="-8.457831325301205" type="curve" smooth="yes"/>
      <point x="331.95180722891564" y="-8.457831325301205"/>
      <point x="406.69879518072287" y="45.68674698795181"/>
      <point x="406.69879518072287" y="135.57831325301206" type="curve" smooth="yes"/>
      <point x="406.69879518072287" y="195.95180722891567"/>
      <point x="366.0120481927711" y="234.32530120481928"/>
      <point x="299.89156626506025" y="251.32530120481928" type="curve" smooth="yes"/>
      <point x="204.03614457831324" y="275.72289156626505" type="line" smooth="yes"/>
      <point x="159.24096385542168" y="287.34939759036143"/>
      <point x="138.3012048192771" y="313.8313253012048"/>
      <point x="138.3012048192771" y="349.3975903614458" type="curve" smooth="yes"/>
      <point x="138.3012048192771" y="407.13253012048193"/>
      <point x="188.18072289156626" y="443.3855421686747"/>
      <point x="266.289156626506" y="443.3855421686747" type="curve" smooth="yes"/>
      <point x="324.68674698795184" y="443.3855421686747"/>
      <point x="372.8313253012048" y="425.07228915662654"/>
      <point x="410.2048192771084" y="386.6746987951807" type="curve"/>
      <point x="434.86746987951807" y="429.6626506024096" type="line"/>
      <point x="400.89156626506025" y="468.9759036144578"/>
      <point x="335.51807228915663" y="493.6024096385542"/>
      <point x="268.43373493975906" y="493.6024096385542" type="curve" smooth="yes"/>
      <point x="153.65060240963857" y="493.6024096385542"/>
      <point x="78.50602409638554" y="432.16867469879514"/>
      <point x="78.50602409638554" y="347.0240963855422" type="curve" smooth="yes"/>
      <point x="78.50602409638554" y="287.421686746988"/>
      <point x="118.42168674698794" y="243.73493975903617"/>
      <point x="181.6265060240964" y="228.19277108433735" type="curve" smooth="yes"/>
      <point x="277.48192771084337" y="203.79518072289156" type="line" smooth="yes"/>
      <point x="321.1927710843374" y="192.710843373494"/>
      <point x="346.9036144578313" y="168.22891566265062"/>
      <point x="346.9036144578313" y="131.2048192771084" type="curve" smooth="yes"/>
      <point x="346.9036144578313" y="73.69879518072288"/>
      <point x="299.7951807228916" y="41.75903614457831"/>
      <point x="223.6867469879518" y="41.75903614457831" type="curve" smooth="yes"/>
      <point x="162.3734939759036" y="41.75903614457831"/>
      <point x="108.855421686747" y="57.44578313253012"/>
      <point x="61.62650602409638" y="96.07228915662651" type="curve"/>
      <point x="34.963855421686745" y="52.084337349397586" type="line"/>
      <point x="75.48192771084338" y="14.855421686746988"/>
      <point x="144.5421686746988" y="-8.457831325301205"/>
    </contour>
  </outline>
</glyph>
<glyph name="t" format="2">
  <advance width="334.65060240963857"/>
  <unicode hex="0074"/>
  <anchor x="178.40963855421685" y="0.0" name="bottom"/>
  <anchor x="161.18072289156626" y="269.48192771084337" name="center"/>
  <anchor x="193.55421686746988" y="635.0" name="top"/>
  <anchor x="310.4457831325301" y="705.0" name="topright"/>
  <outline>
    <contour>
      <point x="228.6987951807229" y="-8.457831325301205" type="curve" smooth="yes"/>
      <point x="256.8433734939759" y="-8.457831325301205"/>
      <point x="290.9879518072289" y="-0.6867469879518071"/>
      <point x="306.04819277108436" y="8.228915662650602" type="curve"/>
      <point x="297.50602409638554" y="56.734939759036145" type="line"/>
      <point x="281.8192771084337" y="50.734939759036145"/>
      <point x="261.50602409638554" y="45.19277108433735"/>
      <point x="237.65060240963857" y="45.19277108433735" type="curve" smooth="yes"/>
      <point x="168.3132530120482" y="45.19277108433735"/>
      <point x="136.0" y="80.90361445783132"/>
      <point x="150.08433734939757" y="168.40963855421685" type="curve" smooth="yes"/>
      <point x="192.33734939759034" y="435.86746987951807" type="line"/>
      <point x="348.81927710843377" y="435.86746987951807" type="line"/>
      <point x="356.87951807228916" y="485.144578313253" type="line"/>
      <point x="200.39759036144576" y="485.144578313253" type="line"/>
      <point x="224.16867469879517" y="635.0" type="line"/>
      <point x="163.1686746987952" y="635.0" type="line"/>
      <point x="139.3975903614458" y="485.144578313253" type="line"/>
      <point x="43.855421686746986" y="485.144578313253" type="line"/>
      <point x="35.795180722891565" y="435.86746987951807" type="line"/>
      <point x="132.10843373493978" y="435.86746987951807" type="line"/>
      <point x="88.0843373493976" y="159.63855421686748" type="line" smooth="yes"/>
      <point x="71.62650602409639" y="56.433734939759034"/>
      <point x="123.144578313253" y="-8.457831325301205"/>
    </contour>
  </outline>
</glyph>
<glyph name="u" format="2">
  <advance width="552.7831325301205"/>
  <unicode hex="0075"/>
  <anchor x="238.43373493975906" y="0.0" name="bottom"/>
  <anchor x="425.12048192771084" y="0.0" name="ogonek"/>
  <anchor x="310.89156626506025" y="485.0" name="top"/>
  <anchor x="457.54216867469876" y="484.0" name="topright"/>
  <outline>
    <contour>
      <point x="214.65060240963857" y="-8.457831325301205" type="curve" smooth="yes"/>
      <point x="302.3614457831325" y="-8.457831325301205"/>
      <point x="370.9879518072289" y="37.71084337349398"/>
      <point x="402.44578313253015" y="115.19277108433735" type="curve"/>
      <point x="391.9036144578313" y="115.19277108433735" type="line"/>
      <point x="373.8192771084337" y="0.0" type="line"/>
      <point x="433.3614457831325" y="0.0" type="line"/>
      <point x="510.3614457831325" y="485.144578313253" type="line"/>
      <point x="449.3614457831325" y="485.144578313253" type="line"/>
      <point x="407.5903614457831" y="221.6024096385542" type="line" smooth="yes"/>
      <point x="390.73493975903614" y="114.24096385542168"/>
      <point x="328.6265060240964" y="44.27710843373494"/>
      <point x="226.8674698795181" y="44.27710843373494" type="curve" smooth="yes"/>
      <point x="148.59036144578312" y="44.27710843373494"/>
      <point x="115.56626506024097" y="91.8433734939759"/>
      <point x="131.42168674698794" y="190.289156626506" type="curve" smooth="yes"/>
      <point x="178.19277108433735" y="485.144578313253" type="line"/>
      <point x="117.19277108433735" y="485.144578313253" type="line"/>
      <point x="70.42168674698796" y="190.83132530120483" type="line" smooth="yes"/>
      <point x="48.96385542168675" y="55.5421686746988"/>
      <point x="109.65060240963857" y="-8.457831325301205"/>
    </contour>
  </outline>
</glyph>
<glyph name="v" format="2">
  <advance width="509.26506024096386"/>
  <unicode hex="0076"/>
  <anchor x="215.97590361445782" y="0.0" name="bottom"/>
  <anchor x="292.7469879518072" y="484.0" name="top"/>
  <outline>
    <contour>
      <point x="184.65060240963857" y="0.0" type="line"/>
      <point x="246.6144578313253" y="0.0" type="line"/>
      <point x="531.4457831325301" y="485.144578313253" type="line"/>
      <point x="463.9036144578313" y="485.144578313253" type="line"/>
      <point x="206.26506024096386" y="36.74698795180723" type="line"/>
      <point x="231.63855421686748" y="36.74698795180723" type="line"/>
      <point x="119.04819277108433" y="485.144578313253" type="line"/>
      <point x="54.50602409638554" y="485.144578313253" type="line"/>
    </contour>
  </outline>
</glyph>
<glyph name="w" format="2">
  <advance width="835.2650602409639"/>
  <unicode hex="0077"/>
  <anchor x="378.51807228915663" y="0.0" name="bottom"/>
  <anchor x="451.9156626506024" y="484.0" name="top"/>
  <outline>
    <contour>
      <point x="168.710843373494" y="0.0" type="line"/>
      <point x="231.2168674698795" y="0.0" type="line"/>
      <point x="470.83132530120486" y="458.08433734939763" type="line"/>
      <point x="433.87951807228916" y="458.08433734939763" type="line"/>
      <point x="525.277108433735" y="0.0" type="line"/>
      <point x="588.0120481927711" y="0.0" type="line"/>
      <point x="841.0481927710844" y="485.144578313253" type="line"/>
      <point x="776.277108433735" y="485.144578313253" type="line"/>
      <point x="546.3493975903615" y="35.34939759036144" type="line"/>
      <point x="570.2048192771084" y="35.34939759036144" type="line"/>
      <point x="483.18072289156623" y="485.144578313253" type="line"/>
      <point x="423.71084337349396" y="485.144578313253" type="line"/>
      <point x="190.24096385542168" y="35.34939759036144" type="line"/>
      <point x="216.0120481927711" y="35.34939759036144" type="line"/>
      <point x="131.3012048192771" y="485.144578313253" type="line"/>
      <point x="70.67469879518073" y="485.144578313253" type="line"/>
    </contour>
  </outline>
</glyph>
<glyph name="x" format="2">
  <advance width="515.156626506024"/>
  <unicode hex="0078"/>
  <anchor x="219.34939759036146" y="0.0" name="bottom"/>
  <anchor x="296.12048192771084" y="484.0" name="top"/>
  <outline>
    <contour>
      <point x="-16.55421686746988" y="0.0" type="line"/>
      <point x="58.421686746987945" y="0.0" type="line"/>
      <point x="265.0963855421687" y="217.2168674698795" type="line"/>
      <point x="247.45783132530119" y="218.9879518072289" type="line"/>
      <point x="387.4216867469879" y="0.0" type="line"/>
      <point x="455.71084337349396" y="0.0" type="line"/>
      <point x="285.3614457831326" y="263.8072289156627" type="line"/>
      <point x="286.90361445783134" y="236.33734939759037" type="line"/>
      <point x="521.4819277108434" y="485.144578313253" type="line"/>
      <point x="445.73493975903614" y="485.144578313253" type="line"/>
      <point x="255.43373493975903" y="279.1566265060241" type="line"/>
      <point x="271.6987951807229" y="279.1566265060241" type="line"/>
      <point x="140.42168674698794" y="485.144578313253" type="line"/>
      <point x="72.13253012048193" y="485.144578313253" type="line"/>
      <point x="234.56626506024097" y="233.79518072289156" type="line"/>
      <point x="236.33734939759037" y="264.433734939759" type="line"/>
    </contour>
  </outline>
</glyph>
<glyph name="y" format="2">
  <advance width="509.03614457831327"/>
  <unicode hex="0079"/>
  <anchor x="340.9277108433735" y="0.0" name="bottom"/>
  <anchor x="281.8313253012048" y="484.0" name="top"/>
  <outline>
    <contour>
      <point x="75.9277108433735" y="-180.0" type="line"/>
      <point x="140.6987951807229" y="-180.0" type="line"/>
      <point x="532.2168674698795" y="485.144578313253" type="line"/>
      <point x="463.6746987951807" y="485.144578313253" type="line"/>
      <point x="204.26506024096386" y="35.74698795180723" type="line"/>
      <point x="230.63855421686748" y="35.74698795180723" type="line"/>
      <point x="117.04819277108435" y="485.144578313253" type="line"/>
      <point x="54.27710843373494" y="485.144578313253" type="line"/>
      <point x="187.19277108433735" y="-11.626506024096386" type="line"/>
      <point x="191.33734939759037" y="15.698795180722891" type="line"/>
    </contour>
  </outline>
</glyph>
<glyph name="z" format="2">
  <advance width="458.578313253012"/>
  <unicode hex="007A"/>
  <anchor x="209.14457831325302" y="0.0" name="bottom"/>
  <anchor x="271.06024096385545" y="484.0" name="top"/>
  <outline>
    <contour>
      <point x="19.481927710843372" y="0.0" type="line"/>
      <point x="388.1807228915663" y="0.0" type="line"/>
      <point x="396.24096385542174" y="48.50602409638554" type="line"/>
      <point x="82.10843373493975" y="48.50602409638554" type="line"/>
      <point x="85.33734939759036" y="30.927710843373493" type="line"/>
      <point x="447.5783132530121" y="444.4698795180723" type="line"/>
      <point x="454.4096385542169" y="485.144578313253" type="line"/>
      <point x="96.48192771084337" y="485.144578313253" type="line"/>
      <point x="88.42168674698794" y="436.6385542168675" type="line"/>
      <point x="389.86746987951807" y="436.6385542168675" type="line"/>
      <point x="386.6385542168675" y="452.7590361445783" type="line"/>
      <point x="26.313253012048193" y="40.903614457831324" type="line"/>
    </contour>
  </outline>
</glyph>
<glyph name="braceleft" format="2">
  <advance width="334.71084337349396"/>
  <unicode hex="007B"/>
  <outline>
    <contour>
      <point x="193.24096385542168" y="-180.0" type="curve" smooth="yes"/>
      <point x="261.65060240963857" y="-180.0" type="line"/>
      <point x="269.71084337349396" y="-129.95180722891567" type="line"/>
      <point x="193.0" y="-129.95180722891567" type="line" smooth="yes"/>
      <point x="162.9156626506024" y="-129.95180722891567"/>
      <point x="152.4578313253012" y="-115.09638554216868"/>
      <point x="157.4578313253012" y="-84.40963855421687" type="curve" smooth="yes"/>
      <point x="195.16867469879517" y="161.56626506024097" type="line" smooth="yes"/>
      <point x="206.16867469879517" y="234.33734939759037"/>
      <point x="165.02409638554215" y="265.2289156626506"/>
      <point x="125.10843373493975" y="265.2289156626506" type="curve"/>
      <point x="125.33734939759036" y="261.2289156626506" type="line"/>
      <point x="165.25301204819277" y="261.2289156626506"/>
      <point x="217.0843373493976" y="291.20481927710847"/>
      <point x="228.0843373493976" y="364.2048192771084" type="curve" smooth="yes"/>
      <point x="266.56626506024094" y="609.4096385542168" type="line" smooth="yes"/>
      <point x="271.56626506024094" y="640.0963855421686"/>
      <point x="289.0240963855421" y="654.9518072289156"/>
      <point x="318.1084337349397" y="654.9518072289156" type="curve" smooth="yes"/>
      <point x="393.5903614457831" y="654.9518072289156" type="line"/>
      <point x="401.87951807228916" y="705.0" type="line"/>
      <point x="310.26506024096386" y="705.0" type="line" smooth="yes"/>
      <point x="250.6024096385542" y="705.0"/>
      <point x="216.16867469879517" y="672.1686746987953"/>
      <point x="206.25301204819277" y="611.7590361445783" type="curve" smooth="yes"/>
      <point x="167.5421686746988" y="369.72289156626505" type="line" smooth="yes"/>
      <point x="158.7710843373494" y="316.1807228915663"/>
      <point x="139.00000000000003" y="292.09638554216866"/>
      <point x="84.06024096385542" y="288.86746987951807" type="curve" smooth="yes"/>
      <point x="58.626506024096386" y="287.1807228915663" type="line"/>
      <point x="51.566265060240966" y="238.59036144578315" type="line"/>
      <point x="75.2289156626506" y="236.90361445783134" type="line" smooth="yes"/>
      <point x="130.3975903614458" y="233.67469879518075"/>
      <point x="141.710843373494" y="209.59036144578312"/>
      <point x="133.710843373494" y="155.81927710843374" type="curve" smooth="yes"/>
      <point x="95.7710843373494" y="-86.75903614457832" type="line" smooth="yes"/>
      <point x="86.3132530120482" y="-146.19277108433735"/>
      <point x="115.97590361445782" y="-180.0"/>
    </contour>
  </outline>
</glyph>
<glyph name="bar" format="2">
  <advance width="254.3012048192771"/>
  <unicode hex="007C"/>
  <outline>
    <contour>
      <point x="29.65060240963855" y="-180.0" type="line"/>
      <point x="90.65060240963857" y="-180.0" type="line"/>
      <point x="230.65060240963857" y="705.0" type="line"/>
      <point x="169.65060240963857" y="705.0" type="line"/>
    </contour>
  </outline>
</glyph>
<glyph name="braceright" format="2">
  <advance width="334.71084337349396"/>
  <unicode hex="007D"/>
  <outline>
    <contour>
      <point x="-61.16867469879518" y="-180.0" type="line"/>
      <point x="30.44578313253012" y="-180.0" type="line" smooth="yes"/>
      <point x="90.10843373493975" y="-180.0"/>
      <point x="124.5421686746988" y="-147.16867469879517"/>
      <point x="134.4578313253012" y="-86.75903614457832" type="curve" smooth="yes"/>
      <point x="173.1686746987952" y="155.27710843373495" type="line" smooth="yes"/>
      <point x="181.93975903614458" y="208.81927710843374"/>
      <point x="201.71084337349396" y="233.13253012048193"/>
      <point x="256.6506024096385" y="236.36144578313252" type="curve" smooth="yes"/>
      <point x="282.0843373493976" y="237.81927710843374" type="line"/>
      <point x="289.144578313253" y="286.6385542168675" type="line"/>
      <point x="265.48192771084337" y="288.09638554216866" type="line" smooth="yes"/>
      <point x="210.3132530120482" y="291.32530120481925"/>
      <point x="199.0" y="315.6385542168675"/>
      <point x="207.0" y="369.18072289156623" type="curve" smooth="yes"/>
      <point x="244.93975903614458" y="611.7590361445783" type="line" smooth="yes"/>
      <point x="254.3975903614458" y="671.1927710843373"/>
      <point x="224.73493975903614" y="705.0"/>
      <point x="147.4698795180723" y="705.0" type="curve" smooth="yes"/>
      <point x="78.83132530120481" y="705.0" type="line"/>
      <point x="70.7710843373494" y="654.9518072289156" type="line"/>
      <point x="147.710843373494" y="654.9518072289156" type="line" smooth="yes"/>
      <point x="177.7951807228916" y="654.9518072289156"/>
      <point x="188.25301204819274" y="640.0963855421686"/>
      <point x="183.25301204819274" y="609.4096385542168" type="curve" smooth="yes"/>
      <point x="145.5421686746988" y="363.6626506024096" type="line" smooth="yes"/>
      <point x="134.5421686746988" y="290.66265060240966"/>
      <point x="175.6867469879518" y="260.0"/>
      <point x="215.6024096385542" y="260.0" type="curve"/>
      <point x="215.3734939759036" y="264.0" type="line"/>
      <point x="175.4578313253012" y="264.0"/>
      <point x="123.62650602409639" y="233.79518072289156"/>
      <point x="112.62650602409639" y="160.79518072289156" type="curve" smooth="yes"/>
      <point x="74.144578313253" y="-84.40963855421687" type="line" smooth="yes"/>
      <point x="69.144578313253" y="-115.09638554216868"/>
      <point x="51.686746987951814" y="-129.95180722891567"/>
      <point x="22.602409638554214" y="-129.95180722891567" type="curve" smooth="yes"/>
      <point x="-53.10843373493976" y="-129.95180722891567" type="line"/>
    </contour>
  </outline>
</glyph>
<glyph name="asciitilde" format="2">
  <advance width="600.0"/>
  <unicode hex="007E"/>
  <outline>
    <contour>
      <point x="422.6265060240964" y="220.56626506024097" type="curve" smooth="yes"/>
      <point x="482.6265060240964" y="220.56626506024097"/>
      <point x="519.4578313253012" y="253.16867469879517"/>
      <point x="555.0" y="312.54216867469876" type="curve"/>
      <point x="515.5903614457831" y="337.26506024096386" type="line"/>
      <point x="493.5903614457831" y="300.5783132530121"/>
      <point x="465.27710843373495" y="269.86746987951807"/>
      <point x="418.2530120481928" y="269.86746987951807" type="curve" smooth="yes"/>
      <point x="386.855421686747" y="269.86746987951807"/>
      <point x="358.08433734939763" y="287.1807228915663"/>
      <point x="322.0" y="308.03614457831327" type="curve" smooth="yes"/>
      <point x="284.7710843373494" y="329.34939759036143"/>
      <point x="238.2289156626506" y="353.66265060240966"/>
      <point x="191.144578313253" y="353.66265060240966" type="curve" smooth="yes"/>
      <point x="131.14457831325302" y="353.66265060240966"/>
      <point x="94.3132530120482" y="321.0602409638554"/>
      <point x="59.0" y="261.45783132530124" type="curve"/>
      <point x="98.40963855421687" y="236.96385542168676" type="line"/>
      <point x="120.18072289156626" y="273.4216867469879"/>
      <point x="148.26506024096383" y="304.3614457831325"/>
      <point x="195.51807228915663" y="304.3614457831325" type="curve" smooth="yes"/>
      <point x="226.9156626506024" y="304.3614457831325"/>
      <point x="258.2289156626506" y="286.27710843373495"/>
      <point x="294.5421686746988" y="265.1927710843373" type="curve" smooth="yes"/>
      <point x="331.54216867469876" y="243.87951807228916"/>
      <point x="375.5421686746988" y="220.56626506024097"/>
    </contour>
  </outline>
</glyph>
<glyph name="exclamdown" format="2">
  <advance width="219.46987951807228"/>
  <unicode hex="00A1"/>
  <outline>
    <contour>
      <point x="4.4457831325301145" y="-180.0" type="line"/>
      <point x="80.79518072289156" y="-180.0" type="line"/>
      <point x="140.01204819277106" y="312.4698795180723" type="line"/>
      <point x="101.79518072289157" y="312.4698795180723" type="line"/>
    </contour>
    <contour>
      <point x="91.81927710843374" y="399.578313253012" type="line"/>
      <point x="177.0722891566265" y="399.578313253012" type="line"/>
      <point x="190.59036144578312" y="485.144578313253" type="line"/>
      <point x="105.33734939759037" y="485.144578313253" type="line"/>
    </contour>
  </outline>
</glyph>
<glyph name="cent" format="2">
  <advance width="600.0"/>
  <unicode hex="00A2"/>
  <outline>
    <contour>
      <point x="226.81927710843374" y="-115.0" type="line"/>
      <point x="280.5542168674699" y="-115.0" type="line"/>
      <point x="300.7831325301205" y="10.518072289156626" type="line"/>
      <point x="286.03614457831327" y="-4.542168674698796" type="line"/>
      <point x="337.55421686746985" y="-10.313253012048191"/>
      <point x="417.69879518072287" y="8.14457831325301"/>
      <point x="464.6385542168675" y="53.39759036144578" type="curve"/>
      <point x="443.3493975903615" y="99.98795180722891" type="line"/>
      <point x="403.49397590361446" y="63.27710843373494"/>
      <point x="354.09638554216866" y="46.734939759036145"/>
      <point x="310.78313253012044" y="46.734939759036145" type="curve" smooth="yes"/>
      <point x="199.50602409638554" y="46.734939759036145"/>
      <point x="156.79518072289156" y="110.07228915662651"/>
      <point x="156.79518072289156" y="204.74698795180723" type="curve" smooth="yes"/>
      <point x="156.79518072289156" y="318.1927710843374"/>
      <point x="211.36144578313252" y="438.86746987951807"/>
      <point x="353.0361445783132" y="438.86746987951807" type="curve" smooth="yes"/>
      <point x="409.433734939759" y="438.86746987951807"/>
      <point x="453.43373493975906" y="421.32530120481925"/>
      <point x="489.06024096385545" y="384.61445783132535" type="curve"/>
      <point x="513.9518072289156" y="429.20481927710847" type="line"/>
      <point x="482.0361445783132" y="464.0602409638554"/>
      <point x="425.8072289156627" y="488.144578313253"/>
      <point x="364.8072289156626" y="490.9156626506024" type="curve"/>
      <point x="372.5542168674699" y="467.5421686746988" type="line"/>
      <point x="394.7831325301205" y="605.144578313253" type="line"/>
      <point x="341.04819277108436" y="605.144578313253" type="line"/>
      <point x="318.5903614457831" y="465.93975903614455" type="line"/>
      <point x="335.0240963855421" y="490.4578313253012" type="line"/>
      <point x="163.93975903614458" y="480.6265060240964"/>
      <point x="94.33734939759037" y="339.6024096385542"/>
      <point x="94.33734939759037" y="204.51807228915663" type="curve" smooth="yes"/>
      <point x="94.33734939759037" y="95.97590361445783"/>
      <point x="144.25301204819277" y="15.97590361445783"/>
      <point x="255.25301204819274" y="-1.397590361445783" type="curve"/>
      <point x="247.27710843373495" y="11.891566265060241" type="line"/>
    </contour>
  </outline>
</glyph>
<glyph name="sterling" format="2">
  <advance width="600.0"/>
  <unicode hex="00A3"/>
  <outline>
    <contour>
      <point x="12.168674698795185" y="0.0" type="line"/>
      <point x="511.433734939759" y="0.0" type="line"/>
      <point x="519.9518072289156" y="54.10843373493976" type="line"/>
      <point x="185.96385542168676" y="54.10843373493976" type="line"/>
      <point x="229.75903614457832" y="329.27710843373495" type="line"/>
      <point x="415.8072289156626" y="329.27710843373495" type="line"/>
      <point x="423.6385542168675" y="377.1807228915663" type="line"/>
      <point x="237.59036144578315" y="377.1807228915663" type="line"/>
      <point x="259.7590361445783" y="518.9638554216867" type="line" smooth="yes"/>
      <point x="273.8433734939759" y="610.7831325301205"/>
      <point x="330.18072289156623" y="658.2650602409639"/>
      <point x="423.6024096385542" y="658.2650602409639" type="curve" smooth="yes"/>
      <point x="495.79518072289153" y="658.2650602409639"/>
      <point x="547.8795180722892" y="634.8674698795181"/>
      <point x="588.2530120481928" y="582.9277108433735" type="curve"/>
      <point x="618.1204819277108" y="631.8313253012049" type="line"/>
      <point x="579.8313253012047" y="679.6867469879518"/>
      <point x="507.3132530120482" y="713.4578313253012"/>
      <point x="424.5421686746988" y="713.4578313253012" type="curve" smooth="yes"/>
      <point x="288.50602409638554" y="713.4578313253012"/>
      <point x="218.75903614457832" y="645.0843373493976"/>
      <point x="198.0722891566265" y="516.277108433735" type="curve" smooth="yes"/>
      <point x="175.90361445783134" y="377.1807228915663" type="line"/>
      <point x="71.0843373493976" y="377.1807228915663" type="line"/>
      <point x="63.25301204819278" y="329.27710843373495" type="line"/>
      <point x="168.0722891566265" y="329.27710843373495" type="line"/>
      <point x="124.27710843373495" y="54.10843373493976" type="line"/>
      <point x="20.457831325301207" y="54.10843373493976" type="line"/>
    </contour>
  </outline>
</glyph>
<glyph name="currency" format="2">
  <advance width="600.0"/>
  <unicode hex="00A4"/>
  <outline>
    <contour>
      <point x="76.83132530120481" y="-23.83132530120482" type="line"/>
      <point x="150.6024096385542" y="51.16867469879518" type="line"/>
      <point x="192.14457831325302" y="17.313253012048193"/>
      <point x="244.4578313253012" y="-3.0"/>
      <point x="301.5421686746988" y="-3.0" type="curve" smooth="yes"/>
      <point x="357.855421686747" y="-3.0"/>
      <point x="409.3975903614458" y="16.542168674698797"/>
      <point x="450.1686746987952" y="50.626506024096386" type="curve"/>
      <point x="522.3975903614457" y="-23.602409638554217" type="line"/>
      <point x="561.8313253012049" y="15.831325301204819" type="line"/>
      <point x="488.6024096385542" y="90.06024096385542" type="line"/>
      <point x="522.4578313253012" y="132.83132530120483"/>
      <point x="541.7710843373494" y="186.14457831325302"/>
      <point x="541.7710843373494" y="245.0" type="curve" smooth="yes"/>
      <point x="541.7710843373494" y="303.855421686747"/>
      <point x="522.6867469879518" y="356.93975903614455"/>
      <point x="488.8313253012048" y="400.48192771084337" type="curve"/>
      <point x="562.0602409638554" y="473.93975903614455" type="line"/>
      <point x="521.9397590361446" y="514.289156626506" type="line"/>
      <point x="450.48192771084337" y="439.8313253012048" type="line"/>
      <point x="408.93975903614455" y="473.68674698795184"/>
      <point x="357.6265060240964" y="493.0"/>
      <point x="301.5421686746988" y="493.0" type="curve" smooth="yes"/>
      <point x="244.6867469879518" y="493.0"/>
      <point x="191.6024096385542" y="472.68674698795184"/>
      <point x="150.83132530120483" y="438.06024096385545" type="curve"/>
      <point x="76.83132530120481" y="513.8313253012049" type="line"/>
      <point x="38.16867469879518" y="474.3975903614458" type="line"/>
      <point x="111.93975903614458" y="398.6265060240964" type="line"/>
      <point x="79.62650602409639" y="356.6265060240964"/>
      <point x="61.08433734939759" y="302.5421686746988"/>
      <point x="61.08433734939759" y="245.0" type="curve" smooth="yes"/>
      <point x="61.08433734939759" y="187.6867469879518"/>
      <point x="80.62650602409639" y="133.3734939759036"/>
      <point x="111.93975903614458" y="91.60240963855422" type="curve"/>
      <point x="38.16867469879518" y="15.831325301204819" type="line"/>
    </contour>
    <contour>
      <point x="300.7710843373494" y="53.27710843373494" type="curve" smooth="yes"/>
      <point x="201.18072289156626" y="53.27710843373494"/>
      <point x="120.90361445783132" y="138.55421686746988"/>
      <point x="120.90361445783132" y="245.0" type="curve" smooth="yes"/>
      <point x="120.90361445783132" y="351.67469879518075"/>
      <point x="201.40963855421685" y="436.1807228915663"/>
      <point x="300.7710843373494" y="436.95180722891564" type="curve" smooth="yes"/>
      <point x="400.67469879518075" y="437.72289156626505"/>
      <point x="480.4096385542169" y="351.67469879518075"/>
      <point x="480.4096385542169" y="245.0" type="curve" smooth="yes"/>
      <point x="480.4096385542169" y="138.55421686746988"/>
      <point x="400.67469879518075" y="53.27710843373494"/>
    </contour>
  </outline>
</glyph>
<glyph name="yen" format="2">
  <advance width="600.0"/>
  <unicode hex="00A5"/>
  <outline>
    <contour>
      <point x="230.1566265060241" y="0.0" type="line"/>
      <point x="291.8433734939759" y="0.0" type="line"/>
      <point x="320.69879518072287" y="182.13253012048193" type="line"/>
      <point x="515.6867469879519" y="182.13253012048193" type="line"/>
      <point x="523.5180722891566" y="230.03614457831324" type="line"/>
      <point x="328.7590361445783" y="230.03614457831324" type="line"/>
      <point x="344.92771084337346" y="333.50602409638554" type="line"/>
      <point x="539.9156626506025" y="333.50602409638554" type="line"/>
      <point x="547.7469879518072" y="381.4096385542169" type="line"/>
      <point x="379.21686746987956" y="381.4096385542169" type="line"/>
      <point x="377.7590361445783" y="370.9759036144578" type="line"/>
      <point x="672.8072289156627" y="705.0" type="line"/>
      <point x="597.7469879518072" y="705.0" type="line"/>
      <point x="308.0" y="375.50602409638554" type="line"/>
      <point x="325.9759036144578" y="375.50602409638554" type="line"/>
      <point x="139.10843373493975" y="705.0" type="line"/>
      <point x="73.19277108433735" y="705.0" type="line"/>
      <point x="264.92771084337346" y="370.9759036144578" type="line"/>
      <point x="266.3855421686747" y="381.4096385542169" type="line"/>
      <point x="96.0843373493976" y="381.4096385542169" type="line"/>
      <point x="88.25301204819277" y="333.50602409638554" type="line"/>
      <point x="283.2409638554217" y="333.50602409638554" type="line"/>
      <point x="267.07228915662654" y="230.03614457831324" type="line"/>
      <point x="71.855421686747" y="230.03614457831324" type="line"/>
      <point x="64.02409638554218" y="182.13253012048193" type="line"/>
      <point x="259.0120481927711" y="182.13253012048193" type="line"/>
    </contour>
  </outline>
</glyph>
<glyph name="brokenbar" format="2">
  <advance width="254.3012048192771"/>
  <unicode hex="00A6"/>
  <outline>
    <contour>
      <point x="117.42168674698794" y="372.0" type="line"/>
      <point x="178.42168674698797" y="372.0" type="line"/>
      <point x="231.42168674698797" y="705.0" type="line"/>
      <point x="170.42168674698797" y="705.0" type="line"/>
    </contour>
    <contour>
      <point x="30.421686746987948" y="-180.0" type="line"/>
      <point x="91.42168674698796" y="-180.0" type="line"/>
      <point x="144.42168674698797" y="153.2289156626506" type="line"/>
      <point x="83.42168674698794" y="153.2289156626506" type="line"/>
    </contour>
  </outline>
</glyph>
<glyph name="section" format="2">
  <advance width="533.5301204819277"/>
  <unicode hex="00A7"/>
  <outline>
    <contour>
      <point x="195.0120481927711" y="-188.4578313253012" type="curve" smooth="yes"/>
      <point x="311.9879518072289" y="-188.4578313253012"/>
      <point x="410.27710843373495" y="-113.37349397590361"/>
      <point x="410.27710843373495" y="-3.02409638554217" type="curve" smooth="yes"/>
      <point x="410.27710843373495" y="22.89156626506024"/>
      <point x="405.5903614457831" y="44.57831325301205"/>
      <point x="396.4457831325301" y="63.49397590361446" type="curve"/>
      <point x="394.2168674698795" y="50.662650602409634" type="line"/>
      <point x="448.50602409638554" y="86.34939759036145"/>
      <point x="479.65060240963857" y="141.89156626506022"/>
      <point x="479.65060240963857" y="196.55421686746988" type="curve" smooth="yes"/>
      <point x="479.65060240963857" y="256.0120481927711"/>
      <point x="440.87951807228916" y="306.4698795180723"/>
      <point x="362.0240963855422" y="354.09638554216866" type="curve" smooth="yes"/>
      <point x="271.6144578313253" y="408.6144578313253" type="line" smooth="yes"/>
      <point x="212.50602409638554" y="444.6385542168675"/>
      <point x="191.65060240963857" y="473.03614457831327"/>
      <point x="191.65060240963857" y="529.4578313253012" type="curve" smooth="yes"/>
      <point x="191.65060240963857" y="604.1927710843373"/>
      <point x="250.53012048192772" y="663.2409638554217"/>
      <point x="346.9759036144578" y="663.2409638554217" type="curve" smooth="yes"/>
      <point x="407.3734939759036" y="663.2409638554217"/>
      <point x="470.8313253012048" y="641.2409638554217"/>
      <point x="506.12048192771084" y="604.1566265060242" type="curve"/>
      <point x="530.7831325301204" y="647.1445783132531" type="line"/>
      <point x="486.34939759036143" y="693.4578313253013"/>
      <point x="419.7469879518072" y="713.4578313253012"/>
      <point x="345.51807228915663" y="713.4578313253012" type="curve" smooth="yes"/>
      <point x="228.5421686746988" y="713.4578313253012"/>
      <point x="130.25301204819277" y="638.1445783132531"/>
      <point x="130.25301204819277" y="528.4819277108434" type="curve" smooth="yes"/>
      <point x="130.25301204819277" y="503.33734939759034"/>
      <point x="134.710843373494" y="482.6506024096385"/>
      <point x="142.62650602409641" y="463.1927710843374" type="curve"/>
      <point x="145.0843373493976" y="473.87951807228916" type="line"/>
      <point x="90.79518072289157" y="437.421686746988"/>
      <point x="60.10843373493976" y="383.10843373493975"/>
      <point x="60.10843373493976" y="328.2168674698795" type="curve" smooth="yes"/>
      <point x="60.10843373493976" y="268.9879518072289"/>
      <point x="100.42168674698794" y="217.30120481927713"/>
      <point x="174.96385542168676" y="170.67469879518075" type="curve" smooth="yes"/>
      <point x="268.9156626506024" y="112.8433734939759" type="line" smooth="yes"/>
      <point x="326.2530120481928" y="76.81927710843374"/>
      <point x="348.87951807228916" y="51.963855421686745"/>
      <point x="348.87951807228916" y="-4.686746987951808" type="curve" smooth="yes"/>
      <point x="348.87951807228916" y="-79.19277108433735"/>
      <point x="289.7710843373494" y="-138.24096385542168"/>
      <point x="193.32530120481928" y="-138.24096385542168" type="curve" smooth="yes"/>
      <point x="119.84337349397589" y="-138.24096385542168"/>
      <point x="62.096385542168676" y="-119.09638554216868"/>
      <point x="20.409638554216865" y="-79.01204819277109" type="curve"/>
      <point x="-7.168674698795181" y="-123.0" type="line"/>
      <point x="39.18072289156626" y="-164.6867469879518"/>
      <point x="106.15662650602408" y="-188.4578313253012"/>
    </contour>
    <contour>
      <point x="117.13253012048192" y="336.33734939759034" type="curve" smooth="yes"/>
      <point x="117.13253012048192" y="368.50602409638554"/>
      <point x="135.0722891566265" y="407.9879518072289"/>
      <point x="170.55421686746988" y="436.5301204819277" type="curve"/>
      <point x="160.72289156626505" y="436.1566265060241" type="line"/>
      <point x="178.57831325301206" y="406.3614457831325"/>
      <point x="208.8313253012048" y="381.87951807228916"/>
      <point x="249.71084337349396" y="355.6265060240964" type="curve" smooth="yes"/>
      <point x="326.8072289156626" y="308.33734939759034" type="line" smooth="yes"/>
      <point x="389.45783132530124" y="268.5421686746988"/>
      <point x="422.6265060240964" y="234.144578313253"/>
      <point x="422.6265060240964" y="188.66265060240963" type="curve" smooth="yes"/>
      <point x="422.6265060240964" y="156.72289156626505"/>
      <point x="404.4578313253012" y="117.46987951807229"/>
      <point x="370.433734939759" y="88.61445783132531" type="curve"/>
      <point x="380.578313253012" y="86.3012048192771" type="line"/>
      <point x="362.72289156626505" y="115.32530120481928"/>
      <point x="333.46987951807233" y="138.80722891566265"/>
      <point x="291.5903614457831" y="165.83132530120483" type="curve" smooth="yes"/>
      <point x="210.18072289156626" y="216.66265060240966" type="line" smooth="yes"/>
      <point x="150.07228915662648" y="255.4578313253012"/>
      <point x="117.13253012048192" y="290.855421686747"/>
    </contour>
  </outline>
</glyph>
<glyph name="copyright" format="2">
  <advance width="815.0"/>
  <unicode hex="00A9"/>
  <outline>
    <contour>
      <point x="425.0" y="-8.457831325301205" type="curve" smooth="yes"/>
      <point x="629.2289156626506" y="-8.457831325301205"/>
      <point x="785.4578313253012" y="148.7710843373494"/>
      <point x="785.4578313253012" y="353.0" type="curve" smooth="yes"/>
      <point x="785.4578313253012" y="557.2289156626506"/>
      <point x="629.2289156626506" y="713.4578313253012"/>
      <point x="425.0" y="713.4578313253012" type="curve" smooth="yes"/>
      <point x="219.7710843373494" y="713.4578313253012"/>
      <point x="63.54216867469879" y="557.2289156626506"/>
      <point x="63.54216867469879" y="353.0" type="curve" smooth="yes"/>
      <point x="63.54216867469879" y="148.7710843373494"/>
      <point x="220.5421686746988" y="-8.457831325301205"/>
    </contour>
    <contour>
      <point x="436.06024096385545" y="137.0" type="curve" smooth="yes"/>
      <point x="487.28915662650604" y="137.0"/>
      <point x="543.7469879518072" y="158.3132530120482"/>
      <point x="577.7469879518072" y="192.16867469879517" type="curve"/>
      <point x="556.7710843373494" y="234.78313253012047" type="line"/>
      <point x="519.8313253012047" y="200.0722891566265"/>
      <point x="476.43373493975906" y="185.53012048192772"/>
      <point x="437.12048192771084" y="185.53012048192772" type="curve" smooth="yes"/>
      <point x="343.8433734939759" y="185.53012048192772"/>
      <point x="288.04819277108436" y="250.95180722891567"/>
      <point x="288.04819277108436" y="354.7710843373494" type="curve" smooth="yes"/>
      <point x="288.04819277108436" y="459.3614457831325"/>
      <point x="343.8433734939759" y="519.6987951807229"/>
      <point x="437.12048192771084" y="519.6987951807229" type="curve" smooth="yes"/>
      <point x="476.43373493975906" y="519.6987951807229"/>
      <point x="519.8313253012047" y="505.69879518072287"/>
      <point x="556.7710843373494" y="471.2168674698795" type="curve"/>
      <point x="577.7469879518072" y="513.0602409638554" type="line"/>
      <point x="543.7469879518072" y="546.9156626506024"/>
      <point x="489.06024096385545" y="568.0"/>
      <point x="436.06024096385545" y="568.0" type="curve" smooth="yes"/>
      <point x="309.2289156626506" y="568.0"/>
      <point x="232.16867469879517" y="487.0"/>
      <point x="232.16867469879517" y="355.5421686746988" type="curve" smooth="yes"/>
      <point x="232.16867469879517" y="224.3132530120482"/>
      <point x="309.2289156626506" y="137.0"/>
    </contour>
    <contour>
      <point x="425.0" y="31.433734939759034" type="curve" smooth="yes"/>
      <point x="243.6024096385542" y="31.433734939759034"/>
      <point x="104.89156626506023" y="170.83132530120483"/>
      <point x="104.89156626506023" y="353.0" type="curve" smooth="yes"/>
      <point x="104.89156626506023" y="535.1686746987951"/>
      <point x="243.6024096385542" y="673.566265060241"/>
      <point x="425.0" y="673.566265060241" type="curve" smooth="yes"/>
      <point x="605.6265060240963" y="673.566265060241"/>
      <point x="744.1084337349398" y="535.1686746987951"/>
      <point x="744.1084337349398" y="353.0" type="curve" smooth="yes"/>
      <point x="744.1084337349398" y="170.83132530120483"/>
      <point x="605.6265060240963" y="31.433734939759034"/>
    </contour>
  </outline>
</glyph>
<glyph name="ordfeminine" format="2">
  <advance width="321.26506024096386"/>
  <unicode hex="00AA"/>
  <outline>
    <contour>
      <point x="169.6265060240964" y="411.855421686747" type="curve" smooth="yes"/>
      <point x="214.710843373494" y="411.855421686747"/>
      <point x="249.4819277108434" y="434.3975903614458"/>
      <point x="271.71084337349396" y="470.5421686746988" type="curve"/>
      <point x="273.93975903614455" y="470.5421686746988" type="line"/>
      <point x="265.71084337349396" y="417.0843373493976" type="line"/>
      <point x="309.5542168674699" y="417.0843373493976" type="line"/>
      <point x="337.09638554216866" y="592.1084337349397" type="line" smooth="yes"/>
      <point x="349.09638554216866" y="667.7951807228916"/>
      <point x="300.15662650602405" y="713.4578313253012"/>
      <point x="224.43373493975903" y="713.4578313253012" type="curve" smooth="yes"/>
      <point x="179.06024096385545" y="713.4578313253012"/>
      <point x="133.7710843373494" y="700.144578313253"/>
      <point x="106.85542168674698" y="678.144578313253" type="curve"/>
      <point x="122.7710843373494" y="643.9638554216867" type="line"/>
      <point x="154.45783132530119" y="665.5060240963855"/>
      <point x="184.6024096385542" y="675.5903614457832"/>
      <point x="221.3734939759036" y="675.5903614457832" type="curve" smooth="yes"/>
      <point x="269.5421686746988" y="675.5903614457832"/>
      <point x="301.56626506024094" y="652.9638554216867"/>
      <point x="294.0240963855422" y="604.3975903614457" type="curve" smooth="yes"/>
      <point x="283.0240963855422" y="535.3975903614457" type="line" smooth="yes"/>
      <point x="275.48192771084337" y="485.83132530120486"/>
      <point x="224.6024096385542" y="448.34939759036143"/>
      <point x="177.12048192771084" y="448.34939759036143" type="curve" smooth="yes"/>
      <point x="142.18072289156626" y="448.34939759036143"/>
      <point x="117.78313253012048" y="469.9759036144578"/>
      <point x="117.78313253012048" y="502.68674698795184" type="curve" smooth="yes"/>
      <point x="117.78313253012048" y="538.3975903614457"/>
      <point x="150.86746987951807" y="553.4819277108434"/>
      <point x="247.3975903614458" y="553.4819277108434" type="curve" smooth="yes"/>
      <point x="301.56626506024094" y="553.4819277108434" type="line"/>
      <point x="307.0240963855421" y="585.9156626506024" type="line"/>
      <point x="239.5421686746988" y="585.9156626506024" type="line" smooth="yes"/>
      <point x="123.0" y="585.9156626506024"/>
      <point x="71.48192771084337" y="560.2289156626506"/>
      <point x="71.48192771084337" y="500.7710843373494" type="curve" smooth="yes"/>
      <point x="71.48192771084337" y="450.7710843373494"/>
      <point x="113.93975903614458" y="411.855421686747"/>
    </contour>
  </outline>
</glyph>
<glyph name="logicalnot" format="2">
  <advance width="600.0"/>
  <unicode hex="00AC"/>
  <outline>
    <contour>
      <point x="477.6385542168675" y="153.10843373493975" type="line"/>
      <point x="529.3132530120482" y="153.10843373493975" type="line"/>
      <point x="570.6867469879518" y="414.26506024096386" type="line"/>
      <point x="82.91566265060241" y="414.26506024096386" type="line"/>
      <point x="75.08433734939759" y="364.04819277108436" type="line"/>
      <point x="511.4096385542169" y="364.04819277108436" type="line"/>
    </contour>
  </outline>
</glyph>
<glyph name="registered" format="2">
  <advance width="815.0"/>
  <unicode hex="00AE"/>
  <outline>
    <contour>
      <point x="425.0" y="-8.457831325301205" type="curve" smooth="yes"/>
      <point x="629.2289156626506" y="-8.457831325301205"/>
      <point x="785.4578313253012" y="148.7710843373494"/>
      <point x="785.4578313253012" y="353.0" type="curve" smooth="yes"/>
      <point x="785.4578313253012" y="557.2289156626506"/>
      <point x="629.2289156626506" y="713.4578313253012"/>
      <point x="425.0" y="713.4578313253012" type="curve" smooth="yes"/>
      <point x="219.7710843373494" y="713.4578313253012"/>
      <point x="63.54216867469879" y="557.2289156626506"/>
      <point x="63.54216867469879" y="353.0" type="curve" smooth="yes"/>
      <point x="63.54216867469879" y="148.7710843373494"/>
      <point x="220.5421686746988" y="-8.457831325301205"/>
    </contour>
    <contour>
      <point x="425.0" y="31.433734939759034" type="curve" smooth="yes"/>
      <point x="243.6024096385542" y="31.433734939759034"/>
      <point x="104.89156626506023" y="170.83132530120483"/>
      <point x="104.89156626506023" y="353.0" type="curve" smooth="yes"/>
      <point x="104.89156626506023" y="535.1686746987951"/>
      <point x="243.6024096385542" y="673.566265060241"/>
      <point x="425.0" y="673.566265060241" type="curve" smooth="yes"/>
      <point x="605.6265060240963" y="673.566265060241"/>
      <point x="744.1084337349398" y="535.1686746987951"/>
      <point x="744.1084337349398" y="353.0" type="curve" smooth="yes"/>
      <point x="744.1084337349398" y="170.83132530120483"/>
      <point x="605.6265060240963" y="31.433734939759034"/>
    </contour>
    <contour>
      <point x="285.421686746988" y="142.0" type="line"/>
      <point x="339.0120481927711" y="142.0" type="line"/>
      <point x="339.0120481927711" y="328.10843373493975" type="line"/>
      <point x="326.86746987951807" y="318.65060240963857" type="line"/>
      <point x="408.4578313253012" y="318.65060240963857" type="line" smooth="yes"/>
      <point x="446.2530120481928" y="318.65060240963857"/>
      <point x="473.1927710843373" y="309.10843373493975"/>
      <point x="487.8192771084337" y="273.93975903614455" type="curve" smooth="yes"/>
      <point x="539.9277108433735" y="142.0" type="line"/>
      <point x="595.5180722891566" y="142.0" type="line"/>
      <point x="542.8674698795181" y="275.50602409638554" type="line" smooth="yes"/>
      <point x="526.867469879518" y="318.855421686747"/>
      <point x="499.09638554216866" y="333.5421686746988"/>
      <point x="459.95180722891564" y="333.5421686746988" type="curve"/>
      <point x="452.6024096385542" y="324.0843373493976" type="line"/>
      <point x="540.0602409638554" y="324.0843373493976"/>
      <point x="589.7469879518072" y="366.0843373493976"/>
      <point x="589.7469879518072" y="442.31325301204816" type="curve" smooth="yes"/>
      <point x="589.7469879518072" y="518.6265060240963"/>
      <point x="540.8313253012049" y="563.4578313253012"/>
      <point x="452.2289156626506" y="563.4578313253012" type="curve" smooth="yes"/>
      <point x="285.421686746988" y="563.4578313253012" type="line"/>
    </contour>
    <contour>
      <point x="338.7831325301205" y="363.66265060240966" type="line"/>
      <point x="338.7831325301205" y="518.4457831325301" type="line"/>
      <point x="445.3975903614458" y="518.4457831325301" type="line" smooth="yes"/>
      <point x="508.13253012048193" y="518.4457831325301"/>
      <point x="537.3012048192771" y="493.50602409638554"/>
      <point x="537.3012048192771" y="441.1686746987952" type="curve" smooth="yes"/>
      <point x="537.3012048192771" y="387.8313253012048"/>
      <point x="507.3614457831325" y="363.66265060240966"/>
      <point x="445.3975903614458" y="363.66265060240966" type="curve" smooth="yes"/>
    </contour>
  </outline>
</glyph>
<glyph name="degree" format="2">
  <advance width="367.43373493975906"/>
  <unicode hex="00B0"/>
  <outline>
    <contour>
      <point x="235.14457831325302" y="420.50602409638554" type="curve" smooth="yes"/>
      <point x="316.66265060240966" y="420.50602409638554"/>
      <point x="379.03614457831327" y="482.65060240963857"/>
      <point x="379.03614457831327" y="565.2530120481928" type="curve" smooth="yes"/>
      <point x="379.03614457831327" y="647.855421686747"/>
      <point x="316.433734939759" y="710.0"/>
      <point x="235.14457831325302" y="710.0" type="curve" smooth="yes"/>
      <point x="153.0843373493976" y="710.0"/>
      <point x="90.48192771084337" y="647.0843373493976"/>
      <point x="90.48192771084337" y="565.2530120481928" type="curve" smooth="yes"/>
      <point x="90.48192771084337" y="483.421686746988"/>
      <point x="152.855421686747" y="420.50602409638554"/>
    </contour>
    <contour>
      <point x="235.14457831325302" y="467.6024096385542" type="curve" smooth="yes"/>
      <point x="179.89156626506022" y="467.6024096385542"/>
      <point x="141.49397590361446" y="508.0"/>
      <point x="141.49397590361446" y="565.2530120481928" type="curve" smooth="yes"/>
      <point x="141.49397590361446" y="622.5060240963855"/>
      <point x="179.89156626506022" y="662.9036144578314"/>
      <point x="235.14457831325302" y="662.9036144578314" type="curve" smooth="yes"/>
      <point x="290.3975903614458" y="662.9036144578314"/>
      <point x="329.0240963855422" y="622.5060240963855"/>
      <point x="329.0240963855422" y="565.2530120481928" type="curve" smooth="yes"/>
      <point x="329.0240963855422" y="508.0"/>
      <point x="290.3975903614458" y="467.6024096385542"/>
    </contour>
  </outline>
</glyph>
<glyph name="plusminus" format="2">
  <advance width="600.0"/>
  <unicode hex="00B1"/>
  <outline>
    <contour>
      <point x="255.73493975903617" y="122.03614457831326" type="line"/>
      <point x="307.4096385542168" y="122.03614457831326" type="line"/>
      <point x="335.2650602409638" y="300.2530120481928" type="line"/>
      <point x="553.5421686746988" y="300.2530120481928" type="line"/>
      <point x="561.3734939759037" y="350.4698795180723" type="line"/>
      <point x="344.09638554216866" y="350.4698795180723" type="line"/>
      <point x="371.72289156626505" y="528.6867469879518" type="line"/>
      <point x="320.04819277108436" y="528.6867469879518" type="line"/>
      <point x="292.421686746988" y="350.4698795180723" type="line"/>
      <point x="73.37349397590361" y="350.4698795180723" type="line"/>
      <point x="65.5421686746988" y="300.2530120481928" type="line"/>
      <point x="283.5903614457832" y="300.2530120481928" type="line"/>
    </contour>
    <contour>
      <point x="18.0" y="0.0" type="line"/>
      <point x="506.0" y="0.0" type="line"/>
      <point x="513.6024096385543" y="50.21686746987952" type="line"/>
      <point x="25.602409638554217" y="50.21686746987952" type="line"/>
    </contour>
  </outline>
</glyph>
<glyph name="micro" format="2">
  <advance width="600.0"/>
  <unicode hex="00B5"/>
  <outline>
    <contour>
      <point x="36.30120481927711" y="-180.0" type="line"/>
      <point x="97.30120481927712" y="-180.0" type="line"/>
      <point x="130.2409638554217" y="63.506024096385545" type="line"/>
      <point x="122.61445783132531" y="61.734939759036145" type="line"/>
      <point x="143.24096385542168" y="15.168674698795181"/>
      <point x="188.26506024096383" y="-8.457831325301205"/>
      <point x="248.9156626506024" y="-8.457831325301205" type="curve" smooth="yes"/>
      <point x="332.27710843373495" y="-8.457831325301205"/>
      <point x="397.4698795180723" y="37.93975903614458"/>
      <point x="426.6385542168674" y="115.87951807228916" type="curve"/>
      <point x="417.4698795180723" y="115.87951807228916" type="line"/>
      <point x="399.1566265060241" y="0.0" type="line"/>
      <point x="458.69879518072287" y="0.0" type="line"/>
      <point x="535.6987951807229" y="485.144578313253" type="line"/>
      <point x="474.69879518072287" y="485.144578313253" type="line"/>
      <point x="432.92771084337346" y="221.60240963855424" type="line" smooth="yes"/>
      <point x="415.8433734939759" y="114.2409638554217"/>
      <point x="353.9638554216868" y="44.27710843373494"/>
      <point x="252.20481927710844" y="44.27710843373494" type="curve" smooth="yes"/>
      <point x="173.9277108433735" y="44.27710843373494"/>
      <point x="140.90361445783134" y="91.8433734939759"/>
      <point x="156.75903614457832" y="190.289156626506" type="curve" smooth="yes"/>
      <point x="203.53012048192772" y="485.144578313253" type="line"/>
      <point x="142.53012048192772" y="485.144578313253" type="line"/>
    </contour>
  </outline>
</glyph>
<glyph name="paragraph" format="2">
  <advance width="571.566265060241"/>
  <unicode hex="00B6"/>
  <outline>
    <contour>
      <point x="174.06024096385542" y="-180.0" type="line"/>
      <point x="227.27710843373495" y="-180.0" type="line"/>
      <point x="359.4457831325301" y="655.3253012048193" type="line"/>
      <point x="491.86746987951807" y="655.3253012048193" type="line"/>
      <point x="359.6987951807229" y="-180.0" type="line"/>
      <point x="412.9156626506024" y="-180.0" type="line"/>
      <point x="552.9156626506025" y="705.0" type="line"/>
      <point x="307.6024096385542" y="705.0" type="line" smooth="yes"/>
      <point x="178.79518072289156" y="705.0"/>
      <point x="88.96385542168674" y="615.9397590361446"/>
      <point x="88.96385542168674" y="487.5903614457832" type="curve" smooth="yes"/>
      <point x="88.96385542168674" y="395.92771084337346"/>
      <point x="150.25301204819277" y="322.86746987951807"/>
      <point x="253.2289156626506" y="322.86746987951807" type="curve"/>
    </contour>
  </outline>
</glyph>
<glyph name="periodcentered" format="2">
  <advance width="219.46987951807228"/>
  <unicode hex="00B7"/>
  <outline>
    <contour>
      <point x="63.96385542168675" y="222.67469879518072" type="line"/>
      <point x="149.2168674698795" y="222.67469879518072" type="line"/>
      <point x="162.73493975903614" y="308.4698795180723" type="line"/>
      <point x="77.48192771084338" y="308.4698795180723" type="line"/>
    </contour>
  </outline>
</glyph>
<glyph name="ordmasculine" format="2">
  <advance width="332.1807228915663"/>
  <unicode hex="00BA"/>
  <outline>
    <contour>
      <point x="210.20481927710844" y="412.31325301204816" type="curve" smooth="yes"/>
      <point x="291.72289156626505" y="412.31325301204816"/>
      <point x="357.5542168674699" y="475.0843373493976"/>
      <point x="357.5542168674699" y="575.3132530120482" type="curve" smooth="yes"/>
      <point x="357.5542168674699" y="659.2289156626506"/>
      <point x="302.26506024096386" y="713.4578313253012"/>
      <point x="223.51807228915663" y="713.4578313253012" type="curve" smooth="yes"/>
      <point x="141.99999999999997" y="713.4578313253012"/>
      <point x="76.16867469879517" y="650.6867469879518"/>
      <point x="76.16867469879517" y="550.4578313253012" type="curve" smooth="yes"/>
      <point x="76.16867469879517" y="466.54216867469876"/>
      <point x="131.45783132530119" y="412.31325301204816"/>
    </contour>
    <contour>
      <point x="211.20481927710844" y="450.4096385542169" type="curve" smooth="yes"/>
      <point x="157.86746987951807" y="450.4096385542169"/>
      <point x="122.92771084337349" y="486.12048192771084"/>
      <point x="122.92771084337349" y="549.4578313253012" type="curve" smooth="yes"/>
      <point x="122.92771084337349" y="630.566265060241"/>
      <point x="163.40963855421685" y="675.3614457831326"/>
      <point x="222.51807228915663" y="675.3614457831326" type="curve" smooth="yes"/>
      <point x="275.85542168674704" y="675.3614457831326"/>
      <point x="310.7951807228916" y="639.6506024096385"/>
      <point x="310.7951807228916" y="576.3132530120482" type="curve" smooth="yes"/>
      <point x="310.7951807228916" y="495.2048192771084"/>
      <point x="270.3132530120482" y="450.4096385542169"/>
    </contour>
  </outline>
</glyph>
<glyph name="questiondown" format="2">
  <advance width="435.86746987951807"/>
  <unicode hex="00BF"/>
  <outline>
    <contour>
      <point x="145.89156626506025" y="-188.4578313253012" type="curve" smooth="yes"/>
      <point x="235.20481927710844" y="-188.4578313253012"/>
      <point x="319.12048192771084" y="-161.8313253012048"/>
      <point x="376.86746987951807" y="-107.83132530120483" type="curve"/>
      <point x="353.289156626506" y="-58.325301204819276" type="line"/>
      <point x="293.7469879518073" y="-110.49397590361446"/>
      <point x="226.57831325301203" y="-132.12048192771084"/>
      <point x="151.24096385542168" y="-132.12048192771084" type="curve" smooth="yes"/>
      <point x="83.04819277108435" y="-132.12048192771084"/>
      <point x="45.024096385542165" y="-92.78313253012048"/>
      <point x="45.024096385542165" y="-41.13253012048193" type="curve" smooth="yes"/>
      <point x="45.024096385542165" y="14.518072289156626"/>
      <point x="83.59036144578313" y="54.084337349397586"/>
      <point x="141.1566265060241" y="102.19277108433734" type="curve" smooth="yes"/>
      <point x="221.72289156626505" y="168.38554216867468"/>
      <point x="248.57831325301203" y="214.6987951807229"/>
      <point x="260.8915662650602" y="290.26506024096386" type="curve" smooth="yes"/>
      <point x="264.578313253012" y="312.3855421686747" type="line"/>
      <point x="224.04819277108433" y="312.3855421686747" type="line"/>
      <point x="218.13253012048193" y="291.0120481927711" type="line" smooth="yes"/>
      <point x="203.59036144578315" y="233.67469879518072"/>
      <point x="173.42168674698794" y="192.96385542168676"/>
      <point x="98.33734939759037" y="132.85542168674698" type="curve" smooth="yes"/>
      <point x="29.879518072289155" y="78.60240963855422"/>
      <point x="-18.97590361445783" y="23.831325301204817"/>
      <point x="-18.204819277108435" y="-48.39759036144578" type="curve" smooth="yes"/>
      <point x="-18.204819277108435" y="-125.77108433734941"/>
      <point x="45.5421686746988" y="-188.4578313253012"/>
    </contour>
    <contour>
      <point x="216.1566265060241" y="399.34939759036143" type="line"/>
      <point x="300.6385542168675" y="399.34939759036143" type="line"/>
      <point x="314.1566265060241" y="485.144578313253" type="line"/>
      <point x="229.67469879518072" y="485.144578313253" type="line"/>
    </contour>
  </outline>
</glyph>
<glyph name="AE" format="2">
  <advance width="976.0361445783133"/>
  <unicode hex="00C6"/>
  <anchor x="448.2289156626506" y="0.0" name="bottom"/>
  <anchor x="544.9156626506024" y="705.0" name="top"/>
  <outline>
    <contour>
      <point x="-45.69879518072289" y="0.0" type="line"/>
      <point x="24.36144578313253" y="0.0" type="line"/>
      <point x="178.5301204819277" y="204.710843373494" type="line"/>
      <point x="150.2048192771084" y="187.67469879518072" type="line"/>
      <point x="543.1445783132531" y="187.67469879518072" type="line"/>
      <point x="521.0240963855422" y="205.6265060240964" type="line"/>
      <point x="531.2530120481928" y="0.0" type="line"/>
      <point x="887.5783132530121" y="0.0" type="line"/>
      <point x="896.6385542168675" y="53.42168674698795" type="line"/>
      <point x="562.0120481927711" y="53.42168674698795" type="line"/>
      <point x="585.277108433735" y="30.30120481927711" type="line"/>
      <point x="569.277108433735" y="346.6265060240964" type="line"/>
      <point x="548.9277108433736" y="330.90361445783134" type="line"/>
      <point x="919.9759036144578" y="330.90361445783134" type="line"/>
      <point x="928.2650602409639" y="384.32530120481925" type="line"/>
      <point x="545.7831325301205" y="384.32530120481925" type="line"/>
      <point x="568.277108433735" y="367.8313253012048" type="line"/>
      <point x="551.5060240963854" y="677.8674698795181" type="line"/>
      <point x="533.5542168674699" y="651.5783132530121" type="line"/>
      <point x="991.0602409638554" y="651.5783132530121" type="line"/>
      <point x="999.3493975903615" y="705.0" type="line"/>
      <point x="490.421686746988" y="705.0" type="line"/>
    </contour>
    <contour>
      <point x="496.48192771084337" y="628.3132530120482" type="line"/>
      <point x="498.48192771084337" y="628.3132530120482" type="line"/>
      <point x="519.7951807228916" y="226.14457831325302" type="line"/>
      <point x="531.8313253012049" y="241.09638554216866" type="line"/>
      <point x="187.65060240963857" y="241.09638554216866" type="line"/>
      <point x="194.73493975903614" y="226.289156626506" type="line"/>
    </contour>
  </outline>
</glyph>
<glyph name="multiply" format="2">
  <advance width="600.0"/>
  <unicode hex="00D7"/>
  <outline>
    <contour>
      <point x="90.24096385542168" y="49.45783132530121" type="line"/>
      <point x="305.7710843373494" y="247.67469879518072" type="line"/>
      <point x="486.6746987951807" y="49.45783132530121" type="line"/>
      <point x="522.6867469879518" y="85.24096385542168" type="line"/>
      <point x="343.5542168674699" y="282.6867469879518" type="line"/>
      <point x="560.855421686747" y="482.4457831325301" type="line"/>
      <point x="525.5301204819277" y="518.4578313253012" type="line"/>
      <point x="310.0" y="320.2409638554217" type="line"/>
      <point x="129.0963855421687" y="518.4578313253012" type="line"/>
      <point x="92.855421686747" y="482.4457831325301" type="line"/>
      <point x="271.9879518072289" y="286.2289156626506" type="line"/>
      <point x="54.68674698795181" y="85.24096385542168" type="line"/>
    </contour>
  </outline>
</glyph>
<glyph name="Thorn" format="2">
  <advance width="624.6987951807229"/>
  <unicode hex="00DE"/>
  <anchor x="281.12048192771084" y="0.0" name="bottom"/>
  <anchor x="392.89156626506025" y="705.0" name="top"/>
  <outline>
    <contour>
      <point x="53.42168674698795" y="0.0" type="line"/>
      <point x="115.10843373493977" y="0.0" type="line"/>
      <point x="140.42168674698797" y="158.33734939759037" type="line"/>
      <point x="352.8072289156627" y="158.33734939759037" type="line" smooth="yes"/>
      <point x="519.6987951807229" y="158.33734939759037"/>
      <point x="609.7590361445783" y="248.02409638554218"/>
      <point x="609.7590361445783" y="387.3734939759036" type="curve" smooth="yes"/>
      <point x="609.7590361445783" y="511.6024096385542"/>
      <point x="528.301204819277" y="573.8915662650603"/>
      <point x="390.03614457831327" y="573.8915662650603" type="curve" smooth="yes"/>
      <point x="206.56626506024097" y="573.8915662650603" type="line"/>
      <point x="227.10843373493978" y="705.0" type="line"/>
      <point x="165.42168674698797" y="705.0" type="line"/>
    </contour>
    <contour>
      <point x="148.710843373494" y="211.53012048192772" type="line"/>
      <point x="197.50602409638554" y="520.6987951807229" type="line"/>
      <point x="386.60240963855426" y="520.6987951807229" type="line" smooth="yes"/>
      <point x="492.10843373493975" y="520.6987951807229"/>
      <point x="547.4457831325301" y="478.6746987951807"/>
      <point x="547.4457831325301" y="384.0843373493976" type="curve" smooth="yes"/>
      <point x="547.4457831325301" y="271.6385542168675"/>
      <point x="481.0240963855422" y="211.53012048192772"/>
      <point x="357.26506024096386" y="211.53012048192772" type="curve" smooth="yes"/>
    </contour>
  </outline>
</glyph>
<glyph name="germandbls" format="2">
  <advance width="597.4819277108434"/>
  <unicode hex="00DF"/>
  <outline>
    <contour>
      <point x="363.96385542168673" y="-8.457831325301205" type="curve" smooth="yes"/>
      <point x="471.16867469879514" y="-8.457831325301205"/>
      <point x="546.144578313253" y="45.68674698795181"/>
      <point x="546.144578313253" y="136.03614457831324" type="curve" smooth="yes"/>
      <point x="546.144578313253" y="206.49397590361446"/>
      <point x="500.8313253012048" y="242.18072289156626"/>
      <point x="418.43373493975906" y="270.95180722891564" type="curve" smooth="yes"/>
      <point x="350.18072289156623" y="294.0361445783132"/>
      <point x="325.4096385542169" y="318.2048192771084"/>
      <point x="325.4096385542169" y="351.3734939759036" type="curve" smooth="yes"/>
      <point x="325.4096385542169" y="391.71084337349396"/>
      <point x="355.2048192771084" y="414.8795180722891"/>
      <point x="403.66265060240966" y="450.71084337349396" type="curve" smooth="yes"/>
      <point x="461.8313253012048" y="495.4819277108434"/>
      <point x="500.31325301204816" y="530.710843373494"/>
      <point x="500.31325301204816" y="598.4216867469879" type="curve" smooth="yes"/>
      <point x="500.31325301204816" y="661.1686746987953"/>
      <point x="446.73493975903614" y="713.4578313253012"/>
      <point x="357.86746987951807" y="713.4578313253012" type="curve" smooth="yes"/>
      <point x="218.87951807228916" y="713.4578313253012"/>
      <point x="141.96385542168673" y="633.0240963855422"/>
      <point x="120.04819277108433" y="492.3012048192771" type="curve" smooth="yes"/>
      <point x="42.421686746987945" y="0.0" type="line"/>
      <point x="103.42168674698794" y="0.0" type="line"/>
      <point x="181.73493975903614" y="495.65060240963857" type="line" smooth="yes"/>
      <point x="199.04819277108433" y="603.4457831325302"/>
      <point x="257.07228915662654" y="662.5542168674699"/>
      <point x="355.4096385542169" y="662.5542168674699" type="curve" smooth="yes"/>
      <point x="410.66265060240966" y="662.5542168674699"/>
      <point x="440.144578313253" y="631.9277108433735"/>
      <point x="440.144578313253" y="592.132530120482" type="curve" smooth="yes"/>
      <point x="440.144578313253" y="545.1084337349398"/>
      <point x="412.20481927710847" y="519.2530120481928"/>
      <point x="366.4096385542169" y="485.0843373493976" type="curve" smooth="yes"/>
      <point x="288.84337349397595" y="427.4578313253012"/>
      <point x="265.1566265060241" y="399.3975903614458"/>
      <point x="265.1566265060241" y="347.79518072289153" type="curve" smooth="yes"/>
      <point x="265.1566265060241" y="290.2530120481928"/>
      <point x="296.6144578313253" y="256.10843373493975"/>
      <point x="387.78313253012044" y="224.79518072289156" type="curve" smooth="yes"/>
      <point x="465.578313253012" y="198.710843373494"/>
      <point x="486.12048192771084" y="168.4578313253012"/>
      <point x="486.12048192771084" y="131.43373493975903" type="curve" smooth="yes"/>
      <point x="486.12048192771084" y="73.6987951807229"/>
      <point x="441.0120481927711" y="42.903614457831324"/>
      <point x="360.3373493975904" y="42.903614457831324" type="curve" smooth="yes"/>
      <point x="300.1686746987952" y="42.903614457831324"/>
      <point x="250.10843373493975" y="61.90361445783133"/>
      <point x="207.19277108433735" y="97.21686746987952" type="curve"/>
      <point x="179.61445783132532" y="53.2289156626506" type="line"/>
      <point x="218.9879518072289" y="16.771084337349397"/>
      <point x="287.8192771084337" y="-8.457831325301205"/>
    </contour>
  </outline>
</glyph>
<glyph name="ae" format="2">
  <advance width="858.8313253012049"/>
  <unicode hex="00E6"/>
  <anchor x="376.7710843373494" y="0.0" name="bottom"/>
  <anchor x="442.6265060240964" y="484.0" name="top"/>
  <outline>
    <contour>
      <point x="207.289156626506" y="-8.457831325301205" type="curve" smooth="yes"/>
      <point x="300.9156626506024" y="-8.457831325301205"/>
      <point x="384.22891566265065" y="41.48192771084337"/>
      <point x="415.0" y="151.90361445783134" type="curve"/>
      <point x="388.45783132530124" y="151.90361445783134" type="line"/>
      <point x="405.7469879518072" y="51.024096385542165"/>
      <point x="481.2048192771084" y="-8.457831325301205"/>
      <point x="596.8313253012049" y="-8.457831325301205" type="curve" smooth="yes"/>
      <point x="665.1204819277109" y="-8.457831325301205"/>
      <point x="738.3493975903614" y="14.542168674698795"/>
      <point x="782.2650602409639" y="59.168674698795186" type="curve"/>
      <point x="758.2048192771085" y="101.8433734939759" type="line"/>
      <point x="713.1204819277108" y="60.13253012048193"/>
      <point x="661.1204819277109" y="43.36144578313253"/>
      <point x="598.0361445783133" y="43.36144578313253" type="curve" smooth="yes"/>
      <point x="482.3012048192771" y="43.36144578313253"/>
      <point x="423.0481927710843" y="124.18072289156626"/>
      <point x="442.90361445783134" y="245.5421686746988" type="curve" smooth="yes"/>
      <point x="446.3614457831325" y="266.51807228915663" type="line" smooth="yes"/>
      <point x="460.4457831325301" y="352.93975903614455"/>
      <point x="515.2409638554217" y="444.8433734939759"/>
      <point x="633.0843373493976" y="444.8433734939759" type="curve" smooth="yes"/>
      <point x="742.5301204819277" y="444.8433734939759"/>
      <point x="777.6987951807229" y="362.33734939759034"/>
      <point x="763.6144578313252" y="262.2048192771084" type="curve"/>
      <point x="782.3855421686746" y="277.66265060240966" type="line"/>
      <point x="431.2168674698795" y="277.66265060240966" type="line"/>
      <point x="424.3012048192771" y="232.65060240963857" type="line"/>
      <point x="812.5783132530121" y="232.65060240963857" type="line"/>
      <point x="815.8072289156627" y="252.93975903614458" type="line" smooth="yes"/>
      <point x="835.5783132530121" y="374.28915662650604"/>
      <point x="782.8313253012049" y="493.6024096385542"/>
      <point x="634.3132530120481" y="493.6024096385542" type="curve" smooth="yes"/>
      <point x="535.433734939759" y="493.6024096385542"/>
      <point x="463.34939759036143" y="440.9518072289157"/>
      <point x="422.43373493975906" y="363.8433734939759" type="curve"/>
      <point x="452.89156626506025" y="363.8433734939759" type="line"/>
      <point x="443.4578313253012" y="447.8072289156627"/>
      <point x="388.2289156626506" y="493.6024096385542"/>
      <point x="292.83132530120486" y="493.6024096385542" type="curve" smooth="yes"/>
      <point x="223.3132530120482" y="493.6024096385542"/>
      <point x="150.10843373493975" y="471.3734939759036"/>
      <point x="103.19277108433735" y="437.144578313253" type="curve"/>
      <point x="123.71084337349399" y="389.2409638554217" type="line"/>
      <point x="174.93975903614458" y="425.5542168674699"/>
      <point x="227.08433734939757" y="441.5542168674699"/>
      <point x="287.6265060240964" y="441.5542168674699" type="curve" smooth="yes"/>
      <point x="376.27710843373495" y="441.5542168674699"/>
      <point x="411.9879518072289" y="396.7590361445783"/>
      <point x="397.3614457831325" y="304.5421686746988" type="curve" smooth="yes"/>
      <point x="377.5903614457831" y="182.6867469879518" type="line" smooth="yes"/>
      <point x="361.73493975903614" y="88.01204819277109"/>
      <point x="289.6024096385542" y="40.98795180722892"/>
      <point x="213.49397590361446" y="40.98795180722892" type="curve" smooth="yes"/>
      <point x="158.24096385542168" y="40.98795180722892"/>
      <point x="108.59036144578313" y="74.6987951807229"/>
      <point x="108.59036144578313" y="138.74698795180723" type="curve" smooth="yes"/>
      <point x="108.59036144578313" y="209.25301204819277"/>
      <point x="162.9277108433735" y="232.65060240963857"/>
      <point x="333.3614457831325" y="232.65060240963857" type="curve" smooth="yes"/>
      <point x="393.27710843373495" y="232.65060240963857" type="line"/>
      <point x="400.1927710843374" y="277.66265060240966" type="line"/>
      <point x="319.421686746988" y="277.66265060240966" type="line" smooth="yes"/>
      <point x="127.10843373493975" y="277.66265060240966"/>
      <point x="44.42168674698795" y="237.06024096385542"/>
      <point x="44.42168674698795" y="135.6024096385542" type="curve" smooth="yes"/>
      <point x="44.42168674698795" y="46.626506024096386"/>
      <point x="122.85542168674698" y="-8.457831325301205"/>
    </contour>
  </outline>
</glyph>
<glyph name="eth" format="2">
  <advance width="549.9277108433735"/>
  <unicode hex="00F0"/>
  <outline>
    <contour>
      <point x="248.89156626506022" y="-8.457831325301205" type="curve" smooth="yes"/>
      <point x="434.18072289156623" y="-8.457831325301205"/>
      <point x="505.8192771084337" y="148.566265060241"/>
      <point x="506.8192771084337" y="313.144578313253" type="curve" smooth="yes"/>
      <point x="507.5903614457831" y="450.81927710843377"/>
      <point x="470.3614457831325" y="558.2771084337348"/>
      <point x="385.2168674698795" y="630.8795180722892" type="curve"/>
      <point x="383.2168674698795" y="620.8795180722891" type="line"/>
      <point x="505.15662650602405" y="672.6506024096385" type="line"/>
      <point x="488.18072289156623" y="711.144578313253" type="line"/>
      <point x="346.578313253012" y="650.7710843373494" type="line"/>
      <point x="361.7228915662651" y="649.5421686746988" type="line"/>
      <point x="324.9759036144578" y="675.6867469879519"/>
      <point x="279.31325301204816" y="696.3734939759036"/>
      <point x="226.50602409638554" y="711.144578313253" type="curve"/>
      <point x="209.30120481927713" y="667.8433734939758" type="line"/>
      <point x="247.3855421686747" y="657.987951807229"/>
      <point x="280.9277108433735" y="643.9036144578313"/>
      <point x="310.15662650602405" y="625.5903614457832" type="curve"/>
      <point x="310.6144578313253" y="635.3614457831325" type="line"/>
      <point x="173.13253012048193" y="577.0481927710842" type="line"/>
      <point x="190.10843373493975" y="538.5542168674699" type="line"/>
      <point x="349.71084337349396" y="606.6987951807229" type="line"/>
      <point x="335.566265060241" y="608.156626506024" type="line"/>
      <point x="421.04819277108436" y="541.4457831325301"/>
      <point x="459.10843373493975" y="432.48192771084337"/>
      <point x="451.87951807228916" y="292.1807228915663" type="curve"/>
      <point x="467.710843373494" y="292.4096385542169" type="line"/>
      <point x="461.10843373493975" y="401.7469879518072"/>
      <point x="385.79518072289153" y="453.0843373493976"/>
      <point x="290.6265060240964" y="453.0843373493976" type="curve" smooth="yes"/>
      <point x="149.93975903614458" y="453.0843373493976"/>
      <point x="44.795180722891565" y="343.4578313253012"/>
      <point x="44.795180722891565" y="186.06024096385542" type="curve" smooth="yes"/>
      <point x="44.795180722891565" y="66.60240963855422"/>
      <point x="132.54216867469881" y="-8.457831325301205"/>
    </contour>
    <contour>
      <point x="252.18072289156626" y="43.81927710843373" type="curve" smooth="yes"/>
      <point x="162.13253012048193" y="43.81927710843373"/>
      <point x="106.79518072289157" y="96.38554216867469"/>
      <point x="106.79518072289157" y="189.06024096385542" type="curve" smooth="yes"/>
      <point x="106.79518072289157" y="324.7590361445783"/>
      <point x="189.15662650602408" y="401.49397590361446"/>
      <point x="291.28915662650604" y="401.49397590361446" type="curve" smooth="yes"/>
      <point x="381.33734939759034" y="401.49397590361446"/>
      <point x="436.67469879518075" y="348.9277108433735"/>
      <point x="436.67469879518075" y="256.2530120481928" type="curve" smooth="yes"/>
      <point x="436.67469879518075" y="120.55421686746989"/>
      <point x="354.31325301204816" y="43.81927710843373"/>
    </contour>
  </outline>
</glyph>
<glyph name="divide" format="2">
  <advance width="600.0"/>
  <unicode hex="00F7"/>
  <outline>
    <contour>
      <point x="59.08433734939759" y="261.50602409638554" type="line"/>
      <point x="547.0843373493976" y="261.50602409638554" type="line"/>
      <point x="554.9156626506024" y="311.72289156626505" type="line"/>
      <point x="66.91566265060241" y="311.72289156626505" type="line"/>
    </contour>
    <contour>
      <point x="223.65060240963854" y="48.024096385542165" type="line"/>
      <point x="301.43373493975906" y="48.024096385542165" type="line"/>
      <point x="314.5783132530121" y="125.80722891566265" type="line"/>
      <point x="236.79518072289156" y="125.80722891566265" type="line"/>
    </contour>
    <contour>
      <point x="287.4216867469879" y="447.421686746988" type="line"/>
      <point x="365.2048192771084" y="447.421686746988" type="line"/>
      <point x="377.34939759036143" y="525.2048192771084" type="line"/>
      <point x="299.56626506024094" y="525.2048192771084" type="line"/>
    </contour>
  </outline>
</glyph>
